<svg width="16" height="10" viewBox="0 0 16 10" fill="none" xmlns="http://www.w3.org/2000/svg">
<path d="M8.00008 3C7.46965 3 6.96094 3.21071 6.58587 3.58579C6.21079 3.96086 6.00008 4.46957 6.00008 5C6.00008 5.53043 6.21079 6.03914 6.58587 6.41421C6.96094 6.78929 7.46965 7 8.00008 7C8.53051 7 9.03922 6.78929 9.41429 6.41421C9.78937 6.03914 10.0001 5.53043 10.0001 5C10.0001 4.46957 9.78937 3.96086 9.41429 3.58579C9.03922 3.21071 8.53051 3 8.00008 3ZM8.00008 8.33333C7.11603 8.33333 6.26818 7.98214 5.64306 7.35702C5.01794 6.7319 4.66675 5.88406 4.66675 5C4.66675 4.11595 5.01794 3.2681 5.64306 2.64298C6.26818 2.01786 7.11603 1.66667 8.00008 1.66667C8.88414 1.66667 9.73198 2.01786 10.3571 2.64298C10.9822 3.2681 11.3334 4.11595 11.3334 5C11.3334 5.88406 10.9822 6.7319 10.3571 7.35702C9.73198 7.98214 8.88414 8.33333 8.00008 8.33333ZM8.00008 0C4.66675 0 1.82008 2.07333 0.666748 5C1.82008 7.92667 4.66675 10 8.00008 10C11.3334 10 14.1801 7.92667 15.3334 5C14.1801 2.07333 11.3334 0 8.00008 0Z" fill="#262626"/>
</svg>
