<svg width="16" height="13" viewBox="0 0 16 13" fill="none" xmlns="http://www.w3.org/2000/svg">
<path d="M7.88675 4L10.0001 6.10667V6C10.0001 5.46957 9.78937 4.96086 9.41429 4.58579C9.03922 4.21071 8.53051 4 8.00008 4H7.88675ZM5.02008 4.53333L6.05341 5.56667C6.02008 5.70667 6.00008 5.84667 6.00008 6C6.00008 6.53043 6.21079 7.03914 6.58587 7.41421C6.96094 7.78929 7.46965 8 8.00008 8C8.14675 8 8.29341 7.98 8.43341 7.94667L9.46675 8.98C9.02008 9.2 8.52675 9.33333 8.00008 9.33333C7.11603 9.33333 6.26818 8.98214 5.64306 8.35702C5.01794 7.7319 4.66675 6.88406 4.66675 6C4.66675 5.47333 4.80008 4.98 5.02008 4.53333ZM1.33341 0.846667L2.85341 2.36667L3.15341 2.66667C2.05341 3.53333 1.18675 4.66667 0.666748 6C1.82008 8.92667 4.66675 11 8.00008 11C9.03341 11 10.0201 10.8 10.9201 10.44L11.2067 10.72L13.1534 12.6667L14.0001 11.82L2.18008 0L1.33341 0.846667ZM8.00008 2.66667C8.88414 2.66667 9.73198 3.01786 10.3571 3.64298C10.9822 4.2681 11.3334 5.11595 11.3334 6C11.3334 6.42667 11.2467 6.84 11.0934 7.21333L13.0467 9.16667C14.0467 8.33333 14.8467 7.24 15.3334 6C14.1801 3.07333 11.3334 1 8.00008 1C7.06675 1 6.17341 1.16667 5.33341 1.46667L6.78008 2.9C7.16008 2.75333 7.56675 2.66667 8.00008 2.66667Z" fill="#262626"/>
</svg>
