<svg width="14" height="14" viewBox="0 0 14 14" fill="none" xmlns="http://www.w3.org/2000/svg">
<path d="M7.66667 7.66665H6.33334V3.66665H7.66667V7.66665ZM7.66667 10.3333H6.33334V8.99998H7.66667V10.3333ZM7 0.333313C6.12452 0.333313 5.25762 0.505751 4.44878 0.840783C3.63994 1.17581 2.90501 1.66688 2.28596 2.28593C1.03571 3.53618 0.333336 5.23187 0.333336 6.99998C0.333336 8.76809 1.03571 10.4638 2.28596 11.714C2.90501 12.3331 3.63994 12.8241 4.44878 13.1592C5.25762 13.4942 6.12452 13.6666 7 13.6666C8.76811 13.6666 10.4638 12.9643 11.714 11.714C12.9643 10.4638 13.6667 8.76809 13.6667 6.99998C13.6667 6.1245 13.4942 5.25759 13.1592 4.44876C12.8242 3.63992 12.3331 2.90499 11.714 2.28593C11.095 1.66688 10.3601 1.17581 9.55123 0.840783C8.74239 0.505751 7.87548 0.333313 7 0.333313Z" fill="#C40000"/>
</svg>
