<svg width="93" height="137" viewBox="0 0 93 137" fill="none" xmlns="http://www.w3.org/2000/svg">
<path d="M46.4806 73.8485C71.6703 73.8485 92.0906 70.316 92.0906 65.9585C92.0906 61.601 71.6703 58.0685 46.4806 58.0685C21.2909 58.0685 0.870605 61.601 0.870605 65.9585C0.870605 70.316 21.2909 73.8485 46.4806 73.8485Z" fill="#444444"/>
<path d="M47.9906 84.8385C68.3644 84.8385 84.8806 80.2763 84.8806 74.6485C84.8806 69.0207 68.3644 64.4585 47.9906 64.4585C27.6168 64.4585 11.1006 69.0207 11.1006 74.6485C11.1006 80.2763 27.6168 84.8385 47.9906 84.8385Z" fill="#333333"/>
<path d="M8.84056 71.5886C7.5933 61.9664 7.52275 52.228 8.63054 42.5886C9.36068 37.1954 10.7511 31.9125 12.7705 26.8587C19.2106 11.3287 33.6906 2.67859 51.9706 5.04859C59.1406 5.90859 67.8206 9.27857 72.9006 13.2786C76.9806 16.3686 79.3706 19.8386 81.6706 25.2786C83.9651 31.1081 85.5369 37.1967 86.3506 43.4085C86.3506 43.7085 86.3506 43.4083 86.4306 43.9983C87.9306 54.1783 87.2306 64.9987 86.1206 74.3787C88.8106 78.5587 90.9606 73.1885 90.9106 69.9885C93.4806 45.1985 88.7306 18.2584 74.0206 8.82838C24.3906 -18.8816 -2.15946 23.8983 4.20054 68.2683C3.92054 74.6583 7.91056 74.9984 8.84056 71.5584V71.5886Z" fill="#333333"/>
<path d="M68.1205 78.6888C68.5761 78.2227 68.8974 77.6421 69.0505 77.0086C69.4403 75.5997 69.6619 74.1498 69.7105 72.6888C70.2805 62.3988 67.2205 52.1484 62.3805 43.0384C61.2096 40.8002 59.8969 38.6394 58.4505 36.5687C57.7362 35.3252 56.6226 34.3594 55.2905 33.8284C54.673 33.6494 54.0114 33.7027 53.4305 33.9783C53.0042 34.1755 52.644 34.4924 52.3938 34.8899C52.1436 35.2875 52.0139 35.7488 52.0205 36.2186C52.0705 38.6986 52.4205 41.2185 52.6705 43.6785C53.1699 48.7664 53.9612 53.8215 55.0405 58.8187C55.6605 61.5987 56.4005 64.3484 57.2805 67.0584C58.5705 70.9784 60.2805 74.9383 63.2805 77.7283C63.561 77.9907 63.8583 78.235 64.1705 78.4588C64.5906 78.7612 65.0565 78.9942 65.5505 79.1487C65.9832 79.2928 66.4452 79.3263 66.8941 79.2459C67.343 79.1655 67.7647 78.974 68.1205 78.6888Z" fill="#F4CC73"/>
<path d="M61.8806 45.3986C62.5206 45.3986 63.2506 45.5985 63.6806 45.6085L63.5306 45.2985C61.6906 45.2085 61.5306 44.6282 61.2406 42.8082C61.6143 42.8314 61.9855 42.8851 62.3506 42.9684L62.1706 42.6486C61.1206 42.3886 60.7806 41.7882 60.7006 40.5582L61.0406 40.6383L60.7406 40.1183C60.5863 39.9752 60.4754 39.7917 60.4206 39.5885C60.2806 39.3485 60.1306 39.1186 59.9806 38.8786C60.0706 39.2986 60.1706 39.7286 60.2606 40.1486C57.3506 39.8786 58.4706 40.3485 57.6506 37.8385C58.24 37.84 58.8284 37.8865 59.4106 37.9782C59.3206 37.8482 59.2306 37.7283 59.1506 37.5983C57.3406 37.3483 57.6606 38.0382 57.1506 35.9782C57.4233 35.9528 57.6979 35.9528 57.9706 35.9782L57.7806 35.7384C57.5392 35.6774 57.3188 35.5522 57.1428 35.3761C56.9667 35.2001 56.8416 34.9798 56.7806 34.7384C56.6707 34.6399 56.5538 34.5497 56.4306 34.4684C56.4801 34.9106 56.5877 35.3444 56.7506 35.7584C54.8106 36.4884 54.6906 35.1285 54.5506 33.8185C54.4175 33.8082 54.2837 33.8082 54.1506 33.8185C54.4806 34.9985 55.3006 36.3685 52.9706 36.5285C52.9546 35.8788 52.8572 35.2339 52.6806 34.6085C52.5866 34.7028 52.5028 34.8067 52.4306 34.9186C52.4306 35.1986 52.4906 35.5785 52.5706 36.0685C52.6093 36.1673 52.6267 36.2731 52.6215 36.379C52.6164 36.485 52.5887 36.5887 52.5405 36.6832C52.4923 36.7778 52.4247 36.861 52.3419 36.9274C52.2592 36.9938 52.1633 37.0419 52.0606 37.0685C52.0556 37.1518 52.0556 37.2352 52.0606 37.3185C52.3406 37.1285 52.5806 36.9785 52.6806 37.0285C53.1006 38.1985 52.7406 38.6685 52.1706 39.0285V39.3683C52.5006 39.1183 52.7906 38.9086 52.9106 38.9586C53.4206 40.6186 53.0806 41.1986 52.4206 41.7086V42.0382C52.7506 41.7582 53.0506 41.5082 53.2306 41.5382C53.6306 43.5382 53.6906 43.7683 52.6806 44.3683C52.6806 44.4883 52.6806 44.5984 52.6806 44.7184C52.9633 44.5084 53.2685 44.3309 53.5906 44.1886C54.1406 45.4686 53.5906 45.9986 52.8606 46.3786C52.855 46.4651 52.855 46.5517 52.8606 46.6383C53.1526 46.4187 53.4977 46.2807 53.8606 46.2384C54.5406 47.9784 53.8606 48.5884 53.1506 49.0084C53.1451 49.115 53.1451 49.2217 53.1506 49.3283C53.4689 49.0579 53.8402 48.8571 54.2406 48.7384C54.8506 50.2484 54.2406 50.7386 53.4206 51.2086L53.4806 51.5582C53.9406 51.2082 54.4006 50.8283 54.6106 50.8683C54.8446 51.3385 54.891 51.8803 54.7406 52.3834C54.5902 52.8866 54.2542 53.3136 53.8006 53.5783V53.6583C54.0406 53.5483 54.4206 53.3986 55.0006 53.1686C56.0006 55.6186 53.1106 56.1683 55.4206 55.4083C56.2906 56.8583 55.1406 58.0882 54.7506 58.5182C54.7468 58.5514 54.7468 58.5851 54.7506 58.6183L55.9206 58.0182C57.1106 60.5582 54.1306 61.3183 56.4506 60.5783C57.5306 62.6283 54.2006 63.4883 56.8806 62.5783C56.9906 63.1083 57.1106 63.6484 57.2306 64.1784C54.9606 64.3984 58.1106 64.3283 57.7206 66.3283C57.4155 66.2838 57.1057 66.2838 56.8006 66.3283C56.8006 66.4383 56.8706 66.5483 56.9006 66.6583C56.9933 66.6731 57.0879 66.6731 57.1806 66.6583C58.4306 66.7583 58.1806 68.2183 58.1306 66.6583C60.1306 66.3883 61.5706 66.0182 61.5106 68.0582C60.5606 68.4582 57.9406 68.2686 58.3306 68.9186C60.4606 68.7786 61.9606 67.5485 62.0706 70.3185C61.0706 70.6585 58.5706 70.4185 58.9906 71.0685C63.5106 70.0085 62.0806 71.6585 63.5006 76.0685C64.2006 75.1285 62.5006 71.8782 62.5006 70.5582C63.4793 70.3708 64.4325 70.0688 65.3406 69.6583C65.8706 71.7183 66.4106 73.7785 66.9406 75.8385C67.9406 74.2685 63.8406 69.3782 67.2106 68.4982C67.9706 67.6582 65.8306 63.0783 65.7306 61.3683C66.7306 61.5683 64.7306 59.4583 65.0306 58.6383C65.8906 58.6383 66.4806 58.4984 66.0306 58.2184C64.2806 58.7784 64.7706 56.9385 64.3906 56.3185C65.3906 56.2285 65.7606 56.5283 65.9706 56.1383C63.7206 55.8883 64.3306 55.7985 63.8806 54.2985C65.1206 54.4385 64.6606 53.8484 64.1806 53.9684C63.2606 53.9684 63.6006 52.2882 63.3006 52.0582C64.0806 52.2482 64.6306 52.2386 64.3006 51.8986C62.5806 52.0386 63.0206 50.1582 62.6506 49.5382C63.9606 49.8682 63.7106 49.2384 63.0506 49.2584C61.9906 49.2584 62.4706 47.8285 62.1406 47.5285C62.9606 47.6185 64.0506 48.0285 63.7606 47.5285C62.1906 47.3185 62.0706 46.5686 61.8806 45.3986ZM62.4706 49.0485C59.8006 48.9085 60.7706 49.3485 60.1106 47.3185C60.7548 47.2969 61.3997 47.3201 62.0406 47.3883L62.4706 49.0485ZM58.4106 52.0485C60.7206 51.4485 61.2406 51.8582 61.4106 53.8082C59.1906 54.0882 58.5606 54.2885 58.4106 52.0885V52.0485ZM62.0306 55.9982C61.1434 56.0885 60.262 56.2292 59.3906 56.4186C59.2406 55.7286 59.0806 55.0383 58.9306 54.3483C61.0806 53.9983 61.8706 54.0082 62.0306 56.0382V55.9982ZM58.0306 50.3483C57.5106 48.8883 59.1006 49.7583 59.6906 49.3483C60.9906 49.0483 60.4506 51.1684 60.8506 51.4284C59.1306 51.5484 58.0206 52.2883 58.0306 50.3883V50.3483ZM63.1106 51.5285C60.4606 51.6185 61.1606 50.7585 60.6406 49.2985C61.2812 49.2685 61.9232 49.2886 62.5606 49.3585L63.1106 51.5285ZM63.6906 53.8082C61.1106 54.1682 61.7506 53.0282 61.2806 51.8082C61.9224 51.8 62.5639 51.8371 63.2006 51.9186L63.6906 53.8082ZM64.2206 55.8683C61.7006 56.0083 62.5606 56.2186 61.8906 54.1286C62.5206 54.1286 63.1506 54.1286 63.7806 54.1286C63.9306 54.7586 64.0706 55.3283 64.2206 55.9083V55.8683ZM64.8206 58.2086C62.2506 58.9286 62.9806 57.5285 62.4506 56.2985C63.0706 56.2385 63.6906 56.2086 64.3006 56.1886L64.8206 58.2086ZM60.0706 59.3986C62.5006 58.6486 63.0706 58.7286 63.3206 60.9386C61.2106 61.0986 60.1706 61.7686 60.0706 59.4386V59.3986ZM63.8006 62.8082C61.4906 63.3682 60.8006 63.9782 60.5706 61.5182C62.4706 61.3082 63.7706 60.8883 63.8006 62.8483V62.8082ZM65.5106 60.8986C63.1006 61.3286 63.5106 60.0585 63.1006 58.7785C63.7006 58.6785 64.3006 58.6082 64.9006 58.5382L65.5106 60.8986ZM63.7406 61.2584H65.5906C66.3206 63.2184 63.4006 62.9785 63.7406 61.2985V61.2584ZM64.3506 64.8986C62.1106 65.7486 61.2806 66.2184 61.1006 63.7584C63.1906 63.3984 64.1606 62.5386 64.3506 64.9386V64.8986ZM65.7706 69.0382C64.3506 66.6682 68.4206 65.9683 65.2006 66.8683C63.9406 64.4883 67.2006 64.1282 64.6606 64.7882L64.2106 63.0485C64.7906 62.8985 65.3606 62.7385 65.9406 62.5685L67.3206 67.9982C66.8514 68.422 66.3307 68.7849 65.7706 69.0783V69.0382ZM62.1506 68.1383C63.1059 67.9166 64.0475 67.6393 64.9706 67.3082C66.1606 69.8082 64.2606 69.6083 62.6306 70.0983L62.1506 68.1383ZM61.6406 66.0582C62.5912 65.8564 63.5242 65.5788 64.4306 65.2282C66.0006 67.7382 61.4306 68.6485 61.7006 66.3185L61.6406 66.0582ZM57.8606 64.3185C60.1806 63.9285 61.0806 63.3182 61.2406 65.8082C60.2687 66.0081 59.2821 66.1288 58.2906 66.1686C58.1506 65.5986 58.0006 64.9785 57.8606 64.3585V64.3185ZM60.7006 63.4982C59.5106 63.7282 58.4506 63.8984 57.7906 63.9884C56.6106 61.0884 61.1706 61.0282 60.7006 63.5382V63.4982ZM59.7006 59.4982C59.8406 60.0882 59.9806 60.6684 60.1106 61.2584C59.1523 61.4142 58.2113 61.6618 57.3006 61.9982C56.3006 59.6982 58.6206 60.0185 59.7506 59.5285L59.7006 59.4982ZM59.4106 56.7482C61.9206 56.0482 62.3506 56.3382 62.6306 58.5182C61.7306 58.6682 60.8406 58.8585 59.9506 59.0885C59.6706 57.7285 59.5806 57.2985 59.4706 56.7785L59.4106 56.7482ZM59.0906 56.8283C60.0906 59.8283 59.2706 59.1485 56.8706 60.0285C55.8606 57.2185 57.5606 57.3185 59.1406 56.8585L59.0906 56.8283ZM58.5506 54.4186C59.6806 57.2186 57.9806 56.5686 56.3406 57.4186C55.3906 54.6586 56.8306 54.8184 58.6006 54.4484L58.5506 54.4186ZM58.4806 54.0983C57.5735 54.2449 56.6849 54.4897 55.8306 54.8283C54.6306 51.8383 58.8206 51.3686 58.5306 54.1286L58.4806 54.0983ZM57.4806 49.7482C57.7006 50.7482 57.8406 51.4182 57.9306 51.8082C57.0593 51.997 56.206 52.2613 55.3806 52.5983C54.5806 50.1383 55.9306 50.3085 57.5606 49.7785L57.4806 49.7482ZM60.1306 48.9884C59.3224 49.0398 58.5198 49.157 57.7306 49.3385C56.4706 46.5585 60.4706 46.8382 60.2106 49.0182L60.1306 48.9884ZM57.0306 47.6886C58.0306 49.9986 56.2106 49.5785 54.9706 50.2785C54.1806 48.0485 55.7406 48.1484 57.1106 47.7184L57.0306 47.6886ZM56.8906 45.4284C58.8206 45.0384 59.4706 45.2784 59.6006 46.9684C58.824 47.0203 58.0521 47.127 57.2906 47.2882C57.2406 46.6982 57.1006 46.0786 56.9706 45.4586L56.8906 45.4284ZM56.4006 43.1183C59.0506 42.2483 58.6406 43.4486 59.0806 44.9386C56.9106 45.3286 56.6606 44.9986 56.4706 43.1486L56.4006 43.1183ZM54.6006 48.1183C54.5506 47.7983 54.4906 47.4886 54.4406 47.1686C54.0206 43.4786 60.1706 47.1384 54.6806 48.2184L54.6006 48.1183ZM56.0706 43.1686L56.4906 45.1686C55.7155 45.2895 54.9501 45.4665 54.2006 45.6984C53.5906 43.4684 54.6406 43.7384 56.1506 43.2184L56.0706 43.1686ZM55.5306 40.5582C56.5306 43.8682 55.3706 42.6682 53.8806 43.5582C53.3606 41.4482 53.7706 40.8783 55.6106 40.6183L55.5306 40.5582ZM55.0206 38.0685C55.8606 40.5285 55.0206 40.3486 53.4906 40.8986C52.9806 38.6886 53.4706 38.4186 55.1006 38.1286L55.0206 38.0685ZM54.6406 36.2282C55.4406 38.1282 54.0906 37.8985 53.1306 38.3385C53.1306 37.4885 52.6706 36.8083 53.2106 36.6383C53.7073 36.4949 54.2114 36.3779 54.7206 36.2882L54.6406 36.2282ZM57.1406 37.4484C56.5156 37.4711 55.8936 37.5449 55.2806 37.6686C55.1706 37.1686 55.0706 36.6683 54.9706 36.1583C55.558 36.0412 56.1527 35.9643 56.7506 35.9284L57.1406 37.4484ZM57.7906 39.9484C55.3106 40.5384 55.6606 39.4882 55.3406 37.9982C55.9637 37.8745 56.5957 37.8012 57.2306 37.7785L57.7906 39.9484ZM58.4306 42.4186C57.7228 42.4766 57.0206 42.5901 56.3306 42.7584C56.1006 41.6784 55.9806 41.1184 55.8506 40.4884C58.4106 40.2184 57.8606 40.0082 58.4706 42.4782L58.4306 42.4186ZM60.7306 42.4186C58.3606 42.7486 58.5806 41.7285 58.2206 40.3185C58.89 40.3284 59.5581 40.3815 60.2206 40.4782C60.4706 41.1482 60.6506 41.7886 60.8106 42.4386L60.7306 42.4186ZM61.3606 45.0084C58.9206 45.2884 59.2506 44.1284 58.8506 42.7584C60.1806 42.6684 61.0406 42.5683 61.0106 43.6183C61.2106 44.0983 61.3306 44.5685 61.4706 45.0285L61.3606 45.0084ZM61.8706 47.0084C59.3906 47.0784 59.9606 46.7382 59.5106 45.2682C60.1506 45.2682 60.8006 45.2685 61.4506 45.3385L61.8706 47.0084Z" fill="#E8B142"/>
<path d="M70.8806 77.9781C72.8206 74.8281 72.5706 70.8685 72.4406 67.1885C72.4512 64.2535 72.2406 61.3218 71.8106 58.4185C70.9565 54.6396 69.6117 50.9883 67.8106 47.5581C66.5806 44.9881 65.3306 42.4383 63.8906 39.9883C63.5406 39.3883 62.2106 37.4283 61.2006 37.5283C61.0774 37.5389 60.9586 37.5789 60.8541 37.645C60.7497 37.7112 60.6628 37.8014 60.6006 37.9082C59.8906 38.9082 61.3606 41.4785 61.6506 42.4185C62.7058 46.0757 63.2872 49.853 63.3806 53.6582C63.5906 58.8882 63.2006 64.1282 63.1306 69.3682C63.1306 72.9982 63.2606 76.8285 65.2006 79.8985C65.3092 80.0699 65.4295 80.2334 65.5606 80.3882C65.684 80.5289 65.8334 80.6442 66.0006 80.7281C66.3952 80.8879 66.8324 80.9091 67.2406 80.7881C68.0023 80.5821 68.7159 80.2278 69.3405 79.7456C69.9651 79.2635 70.4884 78.6628 70.8806 77.9781Z" fill="#7BBA88"/>
<path d="M55.7906 52.9285C56.6306 55.2185 57.1406 57.6085 57.7906 59.9285C59.1137 64.7931 60.9892 69.4904 63.3805 73.9285C64.4405 75.9285 65.6305 77.9284 65.8905 80.1184C65.9405 80.4984 65.8905 80.9684 65.5705 81.1184C65.4303 81.1568 65.2835 81.1641 65.1401 81.1399C64.9968 81.1157 64.8604 81.0605 64.7406 80.9783C61.9306 79.4583 59.9605 76.7483 58.4005 73.9783C55.9959 69.5657 54.1741 64.8597 52.9806 59.9783C52.3989 57.9163 52.0434 55.7973 51.9206 53.6584C51.9206 52.5584 51.9206 51.4586 52.0006 50.3586C51.8903 49.2781 51.8903 48.1892 52.0006 47.1086C52.8506 47.1086 53.7805 48.9184 54.1905 49.5784C54.8319 50.6401 55.3679 51.7622 55.7906 52.9285Z" fill="#98D3A9"/>
<path d="M24.3306 42.4885C25.9706 44.5985 26.4706 47.3187 26.9306 49.9387C29.5695 49.0151 32.3448 48.5415 35.1406 48.5383C33.813 45.6404 31.6001 43.2386 28.8206 41.6784C27.8457 41.0206 26.7625 40.54 25.6206 40.2585C24.2907 39.9934 22.9155 40.0655 21.6206 40.4685C22.6933 40.8783 23.6314 41.5775 24.3306 42.4885Z" fill="#BA8352"/>
<path d="M41.9006 47.7282C37.8702 45.9031 33.4001 45.275 29.0227 45.9186C24.6453 46.5622 20.5452 48.4506 17.2106 51.3585C15.0512 61.8276 16.6517 72.7228 21.7307 82.1286C25.7611 83.9537 30.2312 84.5817 34.6086 83.9381C38.986 83.2946 43.0861 81.4061 46.4207 78.4982C49.8807 56.1482 41.9006 47.7282 41.9006 47.7282Z" fill="#EF8D56"/>
<path d="M59.4706 67.2184C59.8978 65.3603 60.0093 63.4436 59.8006 61.5485C59.8006 61.3185 59.8006 61.0983 59.7206 60.8683C58.4706 52.2183 51.2206 46.2186 43.4706 47.3786C42.9266 47.4585 42.3887 47.5751 41.8606 47.7282C41.8606 47.7282 49.8606 56.1482 46.3806 78.4982C46.9294 78.4897 47.4772 78.4464 48.0206 78.3683C53.8006 77.5283 58.1606 72.9684 59.4706 67.2184Z" fill="#EA7F49"/>
<path d="M17.2107 51.3586C16.6618 51.3668 16.1139 51.4101 15.5706 51.4885C8.66064 52.4885 3.73063 58.9087 3.69063 66.3787C3.65751 69.5477 4.50574 72.6637 6.14064 75.3787C9.14064 80.3787 14.5106 83.2983 20.1406 82.4783C20.6846 82.3983 21.2226 82.2817 21.7507 82.1287C16.6649 72.7254 15.0573 61.83 17.2107 51.3586Z" fill="#EA7F49"/>
<path d="M85.6606 53.4487C73.0106 50.2187 72.3006 54.5689 74.5406 53.7089C70.8406 57.8689 76.0306 56.1589 78.3306 56.1289C80.4806 55.8789 84.9806 57.1288 84.2406 54.2988C84.7006 54.5488 87.1406 54.3887 85.6606 53.4487Z" fill="#EA5647"/>
<path d="M80.9105 49.4983C79.7705 48.4983 79.9105 50.4985 79.7805 51.1585C79.578 52.4625 79.243 53.7423 78.7805 54.9783C79.8505 57.5283 82.3205 50.9483 80.9105 49.4983Z" fill="#BA8352"/>
<path d="M87.6506 53.6885C85.1006 52.6885 83.0106 55.2183 80.3606 54.9283C79.1906 54.5883 77.7406 54.0582 76.3606 53.6382C76.1679 53.5468 75.9621 53.4864 75.7506 53.4585C74.7816 53.1461 73.7688 52.9903 72.7506 52.9981C66.1906 53.3481 69.2806 66.7082 71.0406 68.8882C73.3006 72.2082 75.0406 71.5783 78.2006 71.4683C85.8606 74.2483 90.4006 66.5385 90.3406 60.6485C90.4006 58.2685 90.4706 54.8785 87.6506 53.6885Z" fill="#EF6852"/>
<path d="M32.6405 59.7483C31.2805 59.3983 29.6405 57.1384 26.7005 56.5984C24.1305 56.1184 22.3205 57.9284 21.4805 60.5984C19.8305 65.8784 20.8105 75.0387 28.1905 76.4187C38.8205 78.4187 42.0505 69.3385 42.6405 66.1785C43.1205 63.5685 42.3705 60.4585 39.1605 59.3685C37.0705 58.6885 34.3005 60.2183 32.6405 59.7483Z" fill="#F4CC73"/>
<path d="M33.1306 60.2185C33.2278 58.9286 33.806 57.7224 34.7506 56.8386C34.7926 56.7976 34.826 56.7487 34.8488 56.6946C34.8716 56.6405 34.8834 56.5824 34.8834 56.5237C34.8834 56.465 34.8716 56.4069 34.8488 56.3528C34.826 56.2987 34.7926 56.2497 34.7506 56.2087C34.6653 56.1286 34.5527 56.0837 34.4356 56.0837C34.3186 56.0837 34.2059 56.1286 34.1206 56.2087C33.0115 57.2559 32.3428 58.6862 32.2506 60.2087C32.2506 60.3264 32.2966 60.4391 32.3788 60.5232C32.4611 60.6073 32.5729 60.6558 32.6906 60.6584C32.8082 60.6558 32.9201 60.6073 33.0023 60.5232C33.0846 60.4391 33.1306 60.3264 33.1306 60.2087V60.2185Z" fill="#BA8352"/>
<path d="M87.2505 71.9783L84.6905 86.9783L84.5305 87.9783L83.3005 95.2087L83.1305 96.2087L81.8805 103.529L81.7005 104.578L80.4705 111.819L80.2905 112.888L79.0505 120.118L78.8705 121.198L77.6405 128.408L77.4605 129.478L76.9405 132.478C75.6005 132.838 74.2605 133.168 72.9405 133.478L71.8505 133.719C69.5039 134.232 67.1505 134.669 64.7905 135.029L63.7905 135.169C61.1905 135.549 58.5839 135.838 55.9705 136.038L55.2105 136.089C52.7305 136.262 50.2505 136.352 47.7705 136.359H46.8505C45.3105 136.359 43.7805 136.359 42.2405 136.259H41.4305C39.3439 136.159 37.2539 136.002 35.1605 135.788L34.5005 135.719C32.2339 135.479 29.9605 135.175 27.6805 134.808L27.0305 134.698C24.6705 134.312 22.3072 133.852 19.9405 133.319L19.0005 133.098C18.1905 132.918 17.3905 132.728 16.5805 132.518L16.2105 130.328L16.0705 129.558L14.8005 122.069L14.6705 121.288L13.3905 113.799L13.2505 113.009L11.9705 105.498L11.8405 104.709L10.5505 97.1785L10.4205 96.3884L9.16052 89.0085L9.03052 88.2185L6.2605 72.0085L87.2505 71.9783Z" fill="#333333"/>
<path d="M84.6905 86.9783L84.5305 87.9783C82.8466 88.6104 81.131 89.1548 79.3905 89.6086L78.5905 89.8186C75.295 90.6392 71.9565 91.2765 68.5905 91.7283L67.7905 91.8284C65.3505 92.1484 62.7905 92.4084 60.2305 92.5984L59.4005 92.6487C56.7405 92.8387 54.0105 92.9483 51.2505 92.9983H50.5005C47.5705 92.9983 44.6105 92.9987 41.6505 92.9187H40.9705C38.2505 92.8287 35.5305 92.6785 32.8405 92.4685L32.1105 92.4187C28.9105 92.1587 25.7505 91.8287 22.6805 91.4187L21.9805 91.3284C19.5905 90.9984 17.2505 90.6285 14.9805 90.2185L14.0505 90.0383C12.3805 89.7283 10.7505 89.3783 9.18054 89.0383L9.05054 88.2483C10.5905 88.6083 12.2572 88.9586 14.0505 89.2986L14.9605 89.4783C17.1405 89.8783 19.4905 90.2684 21.9605 90.6184L22.6505 90.7185C25.6505 91.1385 28.8105 91.4986 32.1205 91.7786L32.8505 91.8386C35.4805 92.0586 38.1905 92.2186 40.9605 92.3186H41.6605C44.5405 92.4086 47.4905 92.4286 50.4805 92.3186H51.2405C53.9539 92.2519 56.6805 92.1017 59.4205 91.8684L60.2405 91.7986C62.7472 91.5786 65.2505 91.2854 67.7505 90.9187L68.5605 90.7883C71.9405 90.2683 75.3105 89.5983 78.5605 88.7883L79.3705 88.5784C81.1839 88.085 82.9572 87.5516 84.6905 86.9783Z" fill="#444444"/>
<path d="M83.3007 95.2185L83.1306 96.2185C81.8006 96.6785 80.4007 97.0985 78.9207 97.4885L78.2706 97.6487C75.0415 98.4548 71.7697 99.0787 68.4706 99.5183L67.7806 99.6086C65.2006 99.9486 62.5106 100.219 59.7806 100.419L58.9606 100.478C56.3406 100.648 53.6606 100.758 50.9606 100.808H50.3506C47.3506 100.808 44.3506 100.808 41.3506 100.728H40.7507C38.0107 100.638 35.2806 100.479 32.5706 100.279L31.8906 100.219C28.8906 99.9785 25.8906 99.6686 22.9606 99.2986L22.2606 99.1985C19.8606 98.8785 17.5206 98.5186 15.2606 98.1086L14.2606 97.9387C13.0006 97.6987 11.7707 97.4487 10.5607 97.1887L10.4307 96.3987C11.6307 96.6587 12.8906 96.9187 14.2206 97.1687L15.2206 97.3484C17.4006 97.7484 19.734 98.1249 22.2206 98.4783L22.9207 98.5686C25.7607 98.9586 28.7707 99.2986 31.9207 99.5686H32.6006C35.2606 99.7886 37.9907 99.9583 40.7906 100.058H41.4006C44.3406 100.148 47.4006 100.168 50.4006 100.058H51.0206C53.6706 99.9883 56.3506 99.8487 59.0206 99.6287L59.8506 99.5583C62.5106 99.3283 65.1806 99.0184 67.8506 98.6184L68.5507 98.5085C71.8607 97.9885 75.1506 97.3285 78.3906 96.5085L79.0607 96.3386C80.4707 96.0186 81.8807 95.6085 83.3007 95.2185Z" fill="#444444"/>
<path d="M81.8806 103.498L81.7006 104.549C80.5806 104.909 79.4106 105.239 78.1906 105.549L77.5906 105.698C74.4704 106.454 71.3127 107.044 68.1306 107.469L67.5106 107.549C64.8306 107.899 62.0406 108.179 59.1806 108.379L58.3806 108.428C55.7939 108.602 53.1572 108.708 50.4706 108.748H49.8906C46.9806 108.748 44.0506 108.749 41.1106 108.669H40.4506C37.8106 108.579 35.1706 108.439 32.5606 108.239L31.8506 108.189C29.0406 107.959 26.2606 107.678 23.5406 107.348L22.7706 107.248C20.3306 106.928 17.9406 106.569 15.6206 106.169L14.8106 106.018C13.8106 105.848 12.9106 105.668 11.9806 105.478L11.8506 104.689C12.7806 104.879 13.7406 105.068 14.7406 105.248L15.5806 105.408C17.8106 105.798 20.1906 106.178 22.7106 106.518L23.4806 106.629C26.1406 106.969 28.9406 107.279 31.8406 107.529L32.5506 107.589C35.1206 107.789 37.7606 107.949 40.4706 108.049H41.1206C44.0006 108.139 46.9506 108.168 49.9306 108.098H50.4706C53.0906 108.028 55.7406 107.899 58.4006 107.689L59.2006 107.618C61.9706 107.388 64.7506 107.068 67.5206 106.618L68.1406 106.529C71.3406 106.029 74.5306 105.389 77.6606 104.609L78.2606 104.459C79.4706 104.219 80.6906 103.858 81.8806 103.498Z" fill="#444444"/>
<path d="M80.4706 111.819L80.2906 112.888C79.2906 113.178 78.2906 113.459 77.1906 113.719L76.5306 113.879C73.7306 114.529 70.7206 115.059 67.5306 115.489L66.8606 115.578C64.1506 115.918 61.3406 116.189 58.4506 116.379L57.6906 116.428C55.1172 116.588 52.5073 116.688 49.8606 116.728H49.2006C46.5106 116.728 43.7906 116.729 41.0706 116.649H40.2706C37.8106 116.559 35.3406 116.429 32.9106 116.259L32.1206 116.198C29.5306 115.998 26.9606 115.749 24.4506 115.459L23.6006 115.359C21.1006 115.049 18.6506 114.699 16.2806 114.299L15.6406 114.189L13.3806 113.779L13.2406 112.989L15.5406 113.419L16.2006 113.529C18.4906 113.929 20.9406 114.298 23.5106 114.638L24.3606 114.739C26.8306 115.049 29.4106 115.318 32.0806 115.538L32.8606 115.598C35.2706 115.788 37.7506 115.928 40.2806 116.018H41.0606C43.7506 116.098 46.4906 116.129 49.2606 116.069H49.9206C52.5106 116.009 55.1306 115.889 57.7506 115.689L58.5206 115.629C61.3306 115.399 64.1506 115.079 66.9506 114.629L67.6106 114.529C70.6106 114.059 73.6806 113.529 76.6606 112.759L77.3106 112.598C78.3806 112.388 79.4706 112.119 80.4706 111.819Z" fill="#444444"/>
<path d="M79.0406 120.118L78.8606 121.198C77.8606 121.468 76.8606 121.719 75.8606 121.959L75.0006 122.138C72.3906 122.708 69.6106 123.139 66.7106 123.549L65.8606 123.649C63.2106 123.969 60.4706 124.219 57.6606 124.399H56.9006C54.3739 124.545 51.8072 124.635 49.2006 124.669H48.3806C46.0506 124.669 43.7006 124.668 41.3806 124.598H40.3806C38.1306 124.528 35.8706 124.419 33.6406 124.259C33.3539 124.259 33.0639 124.238 32.7706 124.198C30.3772 124.025 28.0172 123.812 25.6906 123.558L24.8006 123.469C22.2906 123.179 19.8006 122.839 17.4406 122.469L16.8406 122.379L14.8406 122.029L14.7106 121.248L16.7106 121.609L17.3106 121.709C19.6306 122.089 22.1006 122.449 24.6806 122.759L25.5706 122.868C27.8706 123.142 30.2506 123.372 32.7106 123.558L33.5706 123.618C35.7806 123.788 38.0506 123.909 40.3606 123.989H41.3606C43.7006 124.049 46.0773 124.049 48.4906 123.989H49.3006C51.8506 123.939 54.4306 123.828 57.0206 123.638L57.7806 123.589C60.5306 123.379 63.2906 123.079 66.0406 122.689L66.8606 122.569C69.6806 122.159 72.4906 121.639 75.2706 121.009L76.1006 120.808C77.0406 120.648 78.0406 120.388 79.0406 120.118Z" fill="#444444"/>
<path d="M77.6305 128.408L77.4505 129.478C76.3005 129.768 75.1205 130.038 73.9005 130.288L72.8305 130.509C70.4805 130.959 68.0005 131.339 65.4305 131.649L64.4305 131.768C61.8905 132.048 59.2705 132.269 56.5905 132.419H55.8205C53.3472 132.545 50.8405 132.622 48.3005 132.649H47.3505C45.5305 132.649 43.7105 132.649 41.8905 132.649H40.8905C38.8005 132.589 36.7005 132.498 34.6105 132.368L33.8005 132.319C31.5405 132.169 29.3005 131.989 27.0805 131.759L26.2905 131.678C23.8805 131.428 21.5105 131.139 19.2005 130.799L18.3805 130.678L16.2005 130.328L16.0605 129.558L18.2105 129.908L19.0005 130.029C21.2605 130.379 23.6505 130.698 26.1405 130.978L26.9505 131.069C29.1305 131.302 31.3772 131.502 33.6905 131.669L34.5205 131.719C36.5805 131.859 38.6805 131.958 40.8205 132.018H41.8205C43.6605 132.018 45.5405 132.078 47.4205 132.018H48.3705C50.8605 132.018 53.3705 131.879 55.9205 131.709L56.6905 131.658C59.3105 131.468 61.9505 131.209 64.5805 130.859L65.5805 130.728C68.1105 130.368 70.5805 129.939 73.1305 129.419L74.1905 129.189C75.3505 128.969 76.4705 128.698 77.6305 128.408Z" fill="#444444"/>
<path d="M19.9506 133.288L19.0106 133.069C18.8106 132.329 18.6106 131.519 18.4006 130.649C18.4006 130.389 18.2906 130.139 18.2306 129.879C17.7406 127.689 17.2306 125.158 16.8206 122.388C16.7706 122.128 16.7306 121.868 16.6906 121.618C16.3206 119.278 15.9706 116.778 15.6906 114.178C15.6906 113.918 15.6206 113.668 15.5906 113.408C15.3106 111.008 15.0506 108.529 14.8406 106.009C14.8406 105.759 14.7906 105.499 14.7706 105.239C14.5706 102.809 14.4106 100.339 14.2906 97.8987C14.2906 97.6387 14.2906 97.3887 14.2906 97.1287C14.1806 94.7187 14.1206 92.3283 14.1106 89.9983V89.2185C14.1106 85.4385 14.2606 81.8186 14.5806 78.5486C14.7806 81.8986 14.9006 85.5487 15.0206 89.3987C15.0206 89.6487 15.0206 89.8984 15.0206 90.1584C15.0906 92.4784 15.1606 94.8583 15.2506 97.2883C15.2506 97.5483 15.2506 97.7986 15.2506 98.0486C15.3506 100.459 15.4606 102.909 15.6106 105.379C15.6106 105.629 15.6106 105.878 15.6106 106.138C15.7706 108.588 15.9606 111.048 16.2106 113.498C16.2106 113.758 16.2106 114.008 16.2906 114.268C16.5606 116.758 16.8806 119.268 17.2906 121.698C17.2906 121.948 17.3806 122.209 17.4206 122.459C17.8606 125.019 18.4206 127.538 19.0206 129.978L19.2206 130.748C19.4706 131.618 19.7006 132.458 19.9506 133.288Z" fill="#444444"/>
<path d="M27.6905 134.779L27.0405 134.669C26.8105 133.819 26.5705 132.809 26.3105 131.669L26.1605 130.969C25.7105 128.879 25.2405 126.359 24.7805 123.509L24.6605 122.788C24.3005 120.508 23.9505 118.018 23.6605 115.368L23.5705 114.649C23.2905 112.289 23.0405 109.819 22.8105 107.259L22.7505 106.529C22.5505 104.149 22.3805 101.689 22.2605 99.1785C22.2605 98.9385 22.2605 98.6988 22.2605 98.4588C22.1505 96.1088 22.0705 93.7184 22.0405 91.3084V90.5784C22.0405 87.0584 22.0405 83.4988 22.2605 79.9388C23.4305 78.6188 22.6905 81.8085 22.7305 90.6785C22.7305 90.9185 22.7305 91.1588 22.7305 91.3988C22.7305 93.4888 22.8105 95.8687 22.9505 98.5487C22.9505 98.7887 22.9505 99.0286 22.9505 99.2786C23.0805 101.519 23.2605 103.968 23.5105 106.638L23.5705 107.359C23.8005 109.659 24.0705 112.128 24.4105 114.748L24.5005 115.469C24.8105 117.819 25.1705 120.289 25.5805 122.899L25.7005 123.598C26.0805 125.978 26.5205 128.458 27.0005 131.058C27.0005 131.288 27.0905 131.518 27.1305 131.748C27.2905 132.728 27.4705 133.749 27.6905 134.779Z" fill="#444444"/>
<path d="M35.1706 135.759L34.5106 135.689C34.2906 134.789 34.0606 133.688 33.8206 132.288C33.8206 132.078 33.7506 131.858 33.7106 131.638C33.3706 129.638 33.0406 127.118 32.7106 124.218L32.6506 123.569C32.4306 121.339 32.2406 118.869 32.1006 116.189C32.1006 115.969 32.1006 115.749 32.1006 115.529C31.9806 113.229 31.9006 110.768 31.8506 108.178C31.8506 107.958 31.8506 107.738 31.8506 107.518C31.8506 105.178 31.8506 102.738 31.8506 100.178C31.8506 99.9684 31.8506 99.7485 31.8506 99.5285C31.8906 97.2152 31.9672 94.832 32.0806 92.3786V91.7185C32.2506 88.2885 32.5006 84.7182 32.8306 80.9782C33.9806 79.5582 33.2906 83.5385 32.8306 91.7785V92.4284C32.7106 94.5584 32.6106 96.9383 32.5506 99.5783C32.5506 99.7983 32.5506 100.018 32.5506 100.238C32.5506 102.508 32.5506 104.958 32.5506 107.578C32.5506 107.788 32.5506 108.008 32.5506 108.228C32.6106 110.558 32.7106 113.019 32.8706 115.589C32.8706 115.809 32.8706 116.028 32.9206 116.248C33.0706 118.608 33.2706 121.079 33.5406 123.629C33.5406 123.849 33.5406 124.069 33.6106 124.279C33.8606 126.669 34.1606 129.149 34.5306 131.689L34.6206 132.339C34.8006 133.459 34.9806 134.609 35.1706 135.759Z" fill="#444444"/>
<path d="M42.2506 136.269H41.4405C41.2305 135.119 41.0606 133.919 40.9106 132.659C40.9106 132.449 40.8606 132.239 40.8406 132.029C40.6006 129.729 40.4506 127.259 40.3606 124.659C40.3606 124.459 40.3606 124.249 40.3606 124.039C40.3006 121.669 40.2906 119.209 40.3606 116.679C40.3606 116.469 40.3606 116.259 40.3606 116.049C40.3606 113.649 40.4406 111.199 40.5106 108.699V108.079C40.5806 105.649 40.6706 103.198 40.7506 100.728C40.7506 100.518 40.7506 100.309 40.7506 100.109C40.8306 97.7089 40.9106 95.3089 40.9706 92.9189C40.9706 92.7089 40.9706 92.5088 40.9706 92.2988C41.0606 88.6388 41.1106 85.0185 41.0706 81.5185C42.1306 80.3385 41.9906 84.7988 41.6706 92.3188V92.9389C41.5806 95.1189 41.4705 97.5289 41.3805 100.129V100.749C41.3005 103.069 41.2305 105.539 41.1905 108.099C41.1905 108.309 41.1905 108.519 41.1905 108.719C41.1905 111.109 41.1905 113.569 41.1905 116.079C41.1905 116.289 41.1905 116.499 41.1905 116.699C41.1905 119.119 41.2806 121.589 41.3906 124.069V124.689C41.5006 127.139 41.6605 129.609 41.8805 132.059L41.9405 132.689C41.9805 133.859 42.1006 135.069 42.2506 136.269Z" fill="#444444"/>
<path d="M51.2406 92.3085C51.2406 92.5185 51.2406 92.7389 51.2406 92.9589C51.1806 95.1689 51.0906 97.5786 50.9706 100.119V100.768C50.8506 103.138 50.7106 105.599 50.5506 108.099V108.748C50.3906 111.178 50.2106 113.649 50.0206 116.079L49.9606 116.728C49.7606 119.238 49.5406 121.729 49.3106 124.059L49.2506 124.709C48.9906 127.319 48.7206 129.799 48.4406 132.049C48.4406 132.269 48.4406 132.479 48.3606 132.689C48.1906 134.009 48.0306 135.239 47.8606 136.369H46.9406C47.0706 135.299 47.2306 134.069 47.4106 132.699C47.4106 132.489 47.4106 132.279 47.4906 132.059C47.7706 129.919 48.1006 127.449 48.4306 124.719C48.4306 124.509 48.4306 124.289 48.5006 124.079C48.7706 121.799 49.0506 119.349 49.3006 116.739L49.3606 116.089C49.5806 113.759 49.7906 111.309 49.9706 108.759C49.9706 108.549 49.9706 108.329 49.9706 108.109C50.1306 105.749 50.2606 103.298 50.3606 100.788C50.3606 100.568 50.3606 100.349 50.3606 100.129C50.4406 97.7988 50.4906 95.4084 50.5006 92.9784V92.3285C50.5006 88.6785 50.4106 84.9388 50.1906 81.1288C51.1306 79.9488 51.4006 84.8185 51.2406 92.3085Z" fill="#444444"/>
<path d="M60.2406 91.7886V92.5586C60.1306 94.7386 60.0006 97.1186 59.8406 99.6186C59.8406 99.8686 59.8406 100.129 59.7906 100.379C59.6406 102.719 59.4606 105.149 59.2706 107.619L59.2106 108.379C59.0106 110.789 58.8006 113.219 58.5706 115.639C58.5706 115.889 58.5706 116.139 58.5006 116.379C58.2606 118.859 58.0106 121.309 57.7406 123.659C57.7406 123.909 57.7406 124.149 57.6606 124.399C57.3606 126.979 57.0406 129.399 56.7106 131.689C56.7106 131.939 56.6406 132.179 56.6006 132.419C56.4106 133.709 56.2106 134.919 56.0106 136.049L55.2506 136.099C55.4206 135.099 55.6206 133.889 55.8306 132.459C55.8306 132.229 55.9006 131.989 55.9406 131.739C56.2306 129.739 56.5606 127.339 56.9406 124.439C56.9406 124.199 56.9906 123.959 57.0206 123.709C57.2706 121.559 57.5206 119.139 57.7806 116.429L57.8406 115.699C58.0539 113.472 58.2572 111.049 58.4506 108.429L58.5106 107.689C58.6772 105.429 58.8439 103.012 59.0106 100.439C59.0106 100.189 59.0106 99.939 59.0106 99.689C59.1506 97.449 59.2806 95.0989 59.4106 92.6089C59.4106 92.3689 59.4106 92.1189 59.4106 91.8589C59.5906 88.2989 59.7606 84.4889 59.9106 80.3989C60.5606 78.6789 60.6106 83.7986 60.2406 91.7886Z" fill="#444444"/>
<path d="M68.4705 98.5687C68.4705 98.8687 68.4705 99.1684 68.4705 99.4784C68.4005 101.738 68.3105 104.118 68.1805 106.558C68.1805 106.858 68.1805 107.159 68.1305 107.469C67.9905 109.799 67.8305 112.178 67.6305 114.578C67.6305 114.878 67.5705 115.189 67.5505 115.489C67.3305 117.879 67.0805 120.279 66.7905 122.639C66.7905 122.939 66.7205 123.249 66.6805 123.549C66.3605 126.009 66.0005 128.419 65.5905 130.759C65.5905 131.049 65.4905 131.349 65.4305 131.649C65.2205 132.799 65.0005 133.938 64.7605 135.038L63.7605 135.179C63.9505 134.079 64.1505 132.948 64.3705 131.768C64.3705 131.478 64.4805 131.189 64.5305 130.889C64.9305 128.709 65.3705 126.339 65.7905 123.649C65.7905 123.359 65.8805 123.059 65.9305 122.759C66.2605 120.589 66.5705 118.208 66.8405 115.578L66.9305 114.679C67.1405 112.489 67.3305 110.119 67.4705 107.549C67.4705 107.249 67.4705 106.949 67.5205 106.649C67.6205 104.449 67.7005 102.089 67.7405 99.5687C67.7405 99.2787 67.7405 98.9786 67.7405 98.6786C67.7405 96.5086 67.7405 94.2184 67.7405 91.7884C67.7405 91.4984 67.7405 91.1985 67.7405 90.9085C67.6705 87.4485 67.5405 83.7286 67.3105 79.6986C67.9505 77.9486 68.4805 82.8087 68.5505 90.7787C68.5505 91.0787 68.5505 91.3788 68.5505 91.6888C68.5705 93.7988 68.5505 96.1187 68.4705 98.5687Z" fill="#444444"/>
<path d="M79.4706 88.5382V89.5382C79.3806 91.6482 79.2506 93.9483 79.0806 96.3683C79.0806 96.7083 79.0807 97.0583 79.0007 97.3683C78.8307 99.6383 78.6206 102.008 78.3806 104.368C78.3806 104.718 78.3106 105.078 78.2706 105.428C78.0206 107.788 77.7306 110.168 77.4106 112.528L77.2606 113.598C76.9206 116.038 76.5307 118.448 76.1107 120.758C76.0407 121.118 75.9706 121.478 75.9106 121.838C75.4106 124.408 74.9106 126.838 74.2806 129.098C74.1806 129.468 74.0807 129.819 73.9807 130.169C73.6707 131.299 73.3307 132.368 72.9807 133.368L71.8906 133.609C72.2406 132.559 72.5806 131.478 72.8906 130.388C73.0006 130.038 73.1006 129.678 73.2006 129.328C73.8673 126.988 74.4773 124.552 75.0306 122.018C75.1106 121.668 75.1906 121.309 75.2606 120.959C75.754 118.619 76.194 116.218 76.5806 113.758C76.6306 113.398 76.6907 113.049 76.7407 112.689C77.0873 110.369 77.3906 107.998 77.6506 105.578C77.6506 105.228 77.7306 104.878 77.7606 104.518C77.9906 102.218 78.1806 99.8682 78.3306 97.5182L78.3906 96.5182C78.5206 94.2782 78.6006 92.0181 78.6506 89.7281C78.6506 89.3881 78.6506 89.0381 78.6506 88.7281C78.7106 85.1281 78.6773 81.4815 78.5507 77.7882C79.3707 76.2782 79.6906 81.0282 79.4706 88.5382Z" fill="#444444"/>
<path d="M88.9107 79.6784C68.4907 89.0284 27.1207 88.2084 4.72067 79.6784C1.14067 78.3184 -1.12934 63.5482 2.59066 64.4982C30.2007 71.4982 57.2107 76.2682 91.0507 64.4982C94.6707 63.2182 92.4007 78.0884 88.9107 79.6784Z" fill="#444444"/>
</svg>
