<svg width="173" height="138" viewBox="0 0 173 138" fill="none" xmlns="http://www.w3.org/2000/svg">
<path d="M144.831 73.0688C144.831 73.0688 142.961 64.3688 126.051 61.0688C109.141 57.7688 77.8906 57.019 72.7006 62.439C67.5106 67.859 86.2006 80.439 86.2006 80.439L132.451 77.439L144.831 73.0688Z" fill="#EF8D56"/>
<path d="M96.5405 73.4885C96.5405 73.4885 93.2804 64.8885 72.8104 62.4885C52.3404 60.0885 15.1505 61.1386 9.64046 66.8586C4.13046 72.5786 27.8205 84.1286 27.8205 84.1286L82.3704 78.5485L96.5405 73.4885Z" fill="#98D3A9"/>
<path d="M54.2406 2.43859C54.2406 2.43859 52.0806 30.3586 77.7406 13.2086C77.7406 13.2086 97.1406 14.7682 104.901 38.5782L88.2706 49.7184C84.2106 47.0084 79.8206 48.4483 80.2706 51.3883C81.4106 58.9283 81.5106 74.3883 89.0006 91.3883C94.6006 104.128 82.1106 106.969 78.3006 106.109C44.7706 98.5385 21.5106 114.408 19.0506 95.7482C19.0506 95.7482 26.5007 56.0485 30.1407 30.8785C30.8207 26.1885 23.2107 29.4483 23.1407 26.3883C23.0507 15.9683 16.6606 7.38829 16.6606 7.38829C16.6606 7.38829 35.5606 -5.13141 54.2406 2.43859Z" fill="#EF6852"/>
<path d="M165.971 81.7884C165.971 81.7884 163.591 73.2188 146.471 70.9188C129.351 68.6188 98.1607 69.7388 93.3007 75.4588C88.4407 81.1788 107.841 92.6185 107.841 92.6185L153.841 86.8987L165.971 81.7884Z" fill="#98D3A9"/>
<path d="M120.801 83.8387C120.801 83.8387 118.891 75.1585 101.961 71.9085C85.0306 68.6585 53.7906 68.0686 48.6206 73.5086C43.4506 78.9486 62.1906 91.4388 62.1906 91.4388L108.431 88.2684L120.801 83.8387Z" fill="#F4CC73"/>
<path d="M165.831 133.699L105.841 137.469V81.3685L165.831 76.3885V133.699Z" fill="#333333"/>
<path d="M105.841 137.469L8.80054 125.969V76.3885L105.841 81.3685V137.469Z" fill="#444444"/>
<path d="M8.80046 76.3884C8.80046 76.3884 0.62048 83.9587 0.0504802 84.1487C-0.51952 84.3387 91.8005 95.7883 91.8005 95.7883L105.8 81.3684L8.80046 76.3884Z" fill="#333333"/>
<path d="M165.831 76.3885L172.861 86.0885L116.781 95.7885L105.841 81.3685L165.831 76.3885Z" fill="#444444"/>
<path d="M48.6705 116.368C48.4923 116.513 48.2699 116.592 48.0405 116.592C47.8111 116.592 47.5886 116.513 47.4105 116.368C45.0605 114.368 42.7305 112.238 41.4705 109.448C40.8905 108.158 40.6105 106.448 41.8705 105.568C42.0511 105.448 42.2459 105.351 42.4505 105.278C42.9297 105.152 43.4306 105.13 43.9189 105.215C44.4073 105.299 44.8716 105.488 45.2805 105.768C46.4325 106.458 47.3198 107.514 47.8005 108.768C48.2585 107.667 48.9394 106.673 49.8005 105.848C50.2279 105.427 50.7718 105.144 51.3619 105.035C51.9519 104.926 52.561 104.997 53.1105 105.238C53.5123 105.488 53.8459 105.833 54.0815 106.243C54.3171 106.653 54.4473 107.116 54.4605 107.588C54.4851 108.537 54.2901 109.478 53.8905 110.338C52.7316 112.786 50.9268 114.871 48.6705 116.368Z" fill="#EF6852"/>
</svg>
