<svg width="74" height="78" viewBox="0 0 74 78" fill="none" xmlns="http://www.w3.org/2000/svg">
<path d="M72.2205 10.9286C71.8361 10.8252 71.4268 10.8711 71.0745 11.0565C70.7223 11.2419 70.453 11.5532 70.3205 11.9286L65.8905 23.4588L64.3205 22.8587L68.2305 11.2284C68.2855 11.0675 68.3126 10.8984 68.3105 10.7284C68.293 10.3779 68.1594 10.0433 67.9307 9.77719C67.7019 9.5111 67.3911 9.32903 67.0473 9.25912C66.7035 9.18921 66.3461 9.23581 66.0317 9.39144C65.7172 9.54708 65.4635 9.80271 65.3105 10.1185L60.5705 21.4984L58.9605 20.8084L63.3305 9.24838C63.4056 9.05388 63.443 8.84699 63.4405 8.63851C63.4427 8.26475 63.3223 7.90075 63.0978 7.60189C62.8733 7.30304 62.5571 7.08581 62.1976 6.98373C61.838 6.88165 61.4549 6.90015 61.1069 7.03646C60.7589 7.17278 60.4651 7.41948 60.2705 7.73861C57.7015 11.8434 55.4996 16.1667 53.6905 20.6585C50.8105 28.0885 56.0505 30.4486 56.0505 30.4486L44.3205 67.9886C44.1173 68.5424 44.0286 69.1319 44.0598 69.721C44.091 70.3101 44.2414 70.8866 44.5019 71.4159C44.7624 71.9451 45.1277 72.4161 45.5755 72.8001C46.0233 73.1842 46.5444 73.4735 47.1072 73.6502C47.6701 73.827 48.2629 73.8875 48.8499 73.8285C49.4368 73.7694 50.0057 73.5918 50.5221 73.3065C51.0385 73.0212 51.4916 72.6343 51.854 72.1688C52.2164 71.7033 52.4806 71.169 52.6305 70.5985L64.3605 33.0384C72.5105 34.6884 73.3605 17.3086 73.3605 12.5086C73.3762 12.1554 73.2721 11.8071 73.0652 11.5203C72.8583 11.2336 72.5607 11.0251 72.2205 10.9286Z" fill="#333333"/>
<path d="M24.2603 72.5487L17.0503 35.3587L16.7703 33.9285L10.9503 3.92853C10.7752 3.07985 10.3122 2.31772 9.63983 1.77106C8.96744 1.22441 8.12688 0.926781 7.26032 0.928535C7.01524 0.927028 6.77063 0.950551 6.5303 0.998603C4.58826 1.37758 2.85805 2.46881 1.67944 4.05817C0.500839 5.64753 -0.0410051 7.62028 0.16031 9.58869L2.47031 31.2186C2.62972 32.7336 3.32848 34.1407 4.43912 35.1834C5.54975 36.2261 6.99822 36.8351 8.5203 36.8988L15.7703 74.2684C15.9918 75.4009 16.654 76.3991 17.6114 77.0433C18.5688 77.6875 19.7428 77.9249 20.8753 77.7034C22.0078 77.482 23.0059 76.82 23.6501 75.8626C24.2943 74.9052 24.5318 73.7309 24.3103 72.5985L24.2603 72.5487Z" fill="#333333"/>
</svg>
