<svg width="146" height="57" viewBox="0 0 146 57" fill="none" xmlns="http://www.w3.org/2000/svg">
<path d="M5.17017 29.7883C5.17017 42.3283 35.5402 56.1086 73.0102 56.1086C110.48 56.1086 140.86 42.3283 140.86 29.7883C140.86 17.2483 110.48 10.6584 73.0102 10.6584C35.5402 10.6584 5.17017 17.2183 5.17017 29.7883Z" fill="#444444"/>
<path d="M73.01 49.4085C112.802 49.4085 145.06 39.2364 145.06 26.6885C145.06 14.1406 112.802 3.96851 73.01 3.96851C33.2179 3.96851 0.959961 14.1406 0.959961 26.6885C0.959961 39.2364 33.2179 49.4085 73.01 49.4085Z" fill="#333333"/>
<path d="M83.0802 8.7987C84.2682 9.30291 85.2905 10.1313 86.0302 11.1888C86.3936 11.7223 86.5754 12.3583 86.5484 13.0033C86.5213 13.6482 86.287 14.2673 85.8802 14.7684C84.4702 16.2584 81.4602 15.5886 80.5002 17.4086C79.9902 18.4086 80.3802 19.5388 80.3602 20.6288C80.3602 23.3288 77.6802 25.3885 75.0102 25.8085C72.3402 26.2285 69.6702 25.4285 67.0102 24.8085C62.7034 23.6052 58.2402 23.0559 53.7702 23.1786C51.2602 23.3086 48.7702 23.7484 46.2502 23.7284C43.7173 23.8381 41.2209 23.0953 39.1602 21.6185C37.1602 20.0385 36.1002 17.2286 37.0602 14.9086C37.4738 14.0565 38.0655 13.3034 38.7952 12.6996C39.525 12.0958 40.3758 11.6554 41.2902 11.4086C43.1142 10.9171 44.9841 10.6156 46.8702 10.5087C53.3202 9.77866 59.5302 7.62866 66.0002 7.00866C71.5202 6.42866 78.0602 6.3087 83.0802 8.7987Z" fill="#FFFBEE"/>
<path d="M71.9401 28.1087C75.3301 28.4987 78.8201 28.9184 81.8401 30.5184C82.67 30.8949 83.3795 31.4937 83.8902 32.2484C84.2036 32.8774 84.3668 33.571 84.3668 34.2738C84.3668 34.9765 84.2036 35.6696 83.8902 36.2987C82.3402 40.0487 78.3001 42.2487 74.2901 42.8787C70.2802 43.5087 66.2001 42.8286 62.1601 42.4486C49.3601 41.2386 36.0302 42.8184 23.9802 38.3284C19.9802 36.8484 15.9301 34.3288 14.8201 30.2088C14.5754 29.4786 14.5103 28.7 14.6304 27.9393C14.7505 27.1786 15.0523 26.458 15.5102 25.8387C17.1902 23.9087 20.2301 24.4987 22.7701 24.8387C26.6201 25.3187 30.5301 24.7685 34.4101 24.5985C41.0192 24.4528 47.6262 24.9755 54.1301 26.1585C60.0201 27.0785 65.9901 27.4187 71.9401 28.1087Z" fill="#FFFBEE"/>
<path d="M69.34 7.1086C67.0307 5.9716 64.4545 5.48759 61.89 5.7087C58.6574 5.90207 55.5158 6.85426 52.72 8.48848C51.5402 9.09755 50.543 10.0086 49.83 11.1286C49.4884 11.6966 49.3257 12.3541 49.3632 13.0158C49.4006 13.6776 49.6365 14.3128 50.04 14.8386C50.9112 15.6193 52.0402 16.0502 53.21 16.0485C57.5731 16.4035 61.9605 16.3332 66.31 15.8386C68.2316 15.6923 70.1443 15.4451 72.04 15.0983C72.9 14.9383 74.04 14.6286 74.24 13.6086C74.37 12.8786 73.67 11.9886 73.38 11.3386C72.5355 9.5224 71.1155 8.03558 69.34 7.1086Z" fill="#F4CC73"/>
<path d="M46.9802 23.2684C44.6742 22.1323 42.1014 21.6482 39.5402 21.8685C36.3045 22.0701 33.1608 23.0255 30.3602 24.6586C29.1762 25.2616 28.1776 26.174 27.4702 27.2987C27.1312 27.8675 26.9701 28.5248 27.0075 29.1859C27.0449 29.847 27.2792 30.4817 27.6802 31.0087C28.5538 31.7853 29.6813 32.2156 30.8502 32.2186C35.2135 32.5686 39.6003 32.4983 43.9502 32.0087C45.8702 31.8287 47.7902 31.6284 49.6802 31.2684C50.5402 31.0984 51.6802 30.7884 51.8802 29.7684C52.0102 29.0484 51.3102 28.1584 51.0202 27.4984C50.1757 25.6822 48.7557 24.1954 46.9802 23.2684Z" fill="#F4CC73"/>
<path d="M129.19 15.5582C131.141 14.2957 132.803 12.6367 134.07 10.6886C134.692 9.70696 135.059 8.5856 135.14 7.4264C135.22 6.26719 135.01 5.10647 134.53 4.04847C133.933 3.06505 133.089 2.25499 132.082 1.69886C131.075 1.14272 129.94 0.859973 128.79 0.878545C126.484 0.943863 124.25 1.69204 122.37 3.02845C120.509 4.37197 118.729 5.82461 117.04 7.37854C111.84 11.8185 105.71 15.4484 98.94 16.4684C92.67 17.4084 86.29 16.0686 79.94 16.1686C78.4844 16.1306 77.035 16.3716 75.67 16.8785C74.9919 17.1446 74.386 17.5667 73.9013 18.1105C73.4166 18.6542 73.0667 19.3043 72.88 20.0084C72.7833 20.6844 72.842 21.3733 73.0517 22.0231C73.2613 22.6729 73.6164 23.2665 74.09 23.7584C75.0486 24.7318 76.2092 25.4831 77.49 25.9586C83.81 28.5886 90.93 28.0782 97.57 27.2682C104.813 26.4394 111.891 24.532 118.57 21.6085C122.31 19.965 125.869 17.9371 129.19 15.5582Z" fill="#EA5647"/>
<path d="M133.28 14.3683C133.349 16.1779 133.007 17.9796 132.28 19.6383C129.14 27.7283 122.34 34.0082 114.63 37.9782C106.92 41.9482 98.3001 43.8185 89.7201 45.0685C87.3223 45.499 84.8811 45.6364 82.4501 45.4782C80.0003 45.3068 77.676 44.3295 75.8401 42.6984C75.1054 42.0668 74.5556 41.2479 74.2492 40.3287C73.9428 39.4096 73.8913 38.4243 74.1001 37.4782C74.7001 35.5782 76.6401 34.4784 78.4901 33.7384C83.3101 31.8284 88.4901 31.1885 93.6701 30.5685C98.8501 29.9485 104.04 29.3286 108.86 27.4186C113.68 25.5086 118.15 22.1586 120.27 17.4186C120.96 15.8986 121.39 14.2684 122.09 12.7584C122.722 11.2006 123.879 9.91268 125.36 9.11829C128.97 7.48829 132.99 10.7583 133.28 14.3683Z" fill="#EF6852"/>
<path d="M128.25 20.3686C128.15 19.8686 127.4 19.1785 127.07 18.8085C126.603 18.2715 126.084 17.7824 125.52 17.3485C124.413 16.5368 123.144 15.9741 121.8 15.6986C122.87 14.1586 124.67 15.3585 125.74 16.2485C127.01 17.3059 127.893 18.7551 128.25 20.3686Z" fill="#F27E72"/>
<path d="M125.53 25.3883C125.43 24.8783 124.68 24.1985 124.35 23.8185C123.881 23.2871 123.362 22.8014 122.8 22.3683C121.692 21.5573 120.424 20.9918 119.08 20.7086C120.15 19.1686 121.95 20.3782 123.02 21.2682C124.29 22.3256 125.173 23.7749 125.53 25.3883Z" fill="#F27E72"/>
<path d="M118.62 31.5385C118.51 31.0385 117.77 30.3487 117.44 29.9687C116.968 29.4397 116.449 28.9542 115.89 28.5185C114.782 27.7076 113.514 27.142 112.17 26.8588C113.23 25.3288 115.04 26.5289 116.1 27.4189C117.376 28.4728 118.263 29.9226 118.62 31.5385Z" fill="#F27E72"/>
<path d="M108.85 35.8083C108.749 35.1541 108.514 34.5278 108.16 33.9685C107.864 33.3249 107.506 32.7119 107.09 32.1384C106.261 31.0446 105.207 30.1411 104 29.4885C105.46 28.3185 106.85 29.9887 107.61 31.1487C108.528 32.5219 108.964 34.1606 108.85 35.8083Z" fill="#F27E72"/>
<path d="M97.1801 38.2185C97.0728 37.569 96.8383 36.9471 96.4901 36.3884C96.1905 35.7437 95.8323 35.1279 95.4201 34.5486C94.5887 33.4596 93.5355 32.5596 92.3301 31.9085C93.7801 30.7385 95.1701 32.3984 95.9401 33.5584C96.8551 34.9328 97.291 36.571 97.1801 38.2185Z" fill="#F27E72"/>
<path d="M85.4001 40.8986C85.4183 40.2365 85.3062 39.5774 85.0701 38.9586C84.8934 38.2721 84.6558 37.6028 84.3601 36.9586C83.7542 35.7269 82.8874 34.6416 81.8201 33.7784C83.4801 32.8984 84.5301 34.7782 85.0601 36.0782C85.705 37.6027 85.8246 39.2987 85.4001 40.8986Z" fill="#F27E72"/>
<path d="M128.78 4.3186C129.148 4.90902 129.395 5.56649 129.507 6.25317C129.618 6.93986 129.592 7.64206 129.43 8.3186C129.194 6.86372 128.467 5.53344 127.37 4.54858C126.279 3.56378 124.887 2.97554 123.42 2.87866C124.018 2.74831 124.601 2.55701 125.16 2.30835C125.35 2.22691 125.554 2.1853 125.76 2.1853C125.966 2.1853 126.171 2.22691 126.36 2.30835C127.357 2.70838 128.204 3.4117 128.78 4.3186Z" fill="#F2786B"/>
<path d="M121.81 9.35845C122.03 10.1748 121.941 11.0437 121.56 11.7984C121.58 10.9203 121.336 10.0564 120.86 9.31841C120.467 8.74033 119.865 8.33833 119.18 8.19829C118.93 8.19829 118.3 8.29837 118.18 8.02837C118.06 7.75837 118.67 7.33833 118.84 7.23833C120.14 6.51833 121.47 8.26845 121.81 9.35845Z" fill="#F2786B"/>
<path d="M114.96 14.3286C115.18 15.1416 115.091 16.0074 114.71 16.7587C114.728 15.8809 114.484 15.0176 114.01 14.2788C113.614 13.706 113.012 13.3084 112.33 13.1689C112.08 13.1189 111.45 13.2587 111.33 12.9887C111.21 12.7187 111.82 12.2989 111.99 12.2089C113.29 11.4889 114.66 13.2186 114.96 14.3286Z" fill="#F2786B"/>
<path d="M105.1 18.8882C105.322 19.7054 105.229 20.5761 104.84 21.3282C104.869 20.4504 104.629 19.5847 104.15 18.8482C103.758 18.2701 103.155 17.8681 102.47 17.7281C102.22 17.6781 101.59 17.8284 101.47 17.5484C101.35 17.2684 101.96 16.8681 102.13 16.7681C103.47 16.0481 104.8 17.7982 105.1 18.8882Z" fill="#F2786B"/>
<path d="M94.6099 19.8482C94.6212 20.6925 94.3142 21.5101 93.75 22.1382C94.0051 21.3006 94.0051 20.4061 93.75 19.5684C93.512 18.9095 93.0282 18.3681 92.3999 18.0582C92.1699 17.9582 91.5199 17.9385 91.4799 17.6485C91.4399 17.3585 92.1299 17.0984 92.3199 17.0484C93.7099 16.6784 94.5899 18.7182 94.6099 19.8482Z" fill="#F2786B"/>
<path d="M86.5601 20.6487C86.5674 21.4923 86.2609 22.3085 85.7001 22.9387C85.9392 22.0927 85.9218 21.1947 85.6501 20.3586C85.4118 19.7024 84.9277 19.1645 84.3001 18.8586C84.0701 18.7486 83.4201 18.7287 83.3801 18.4387C83.3401 18.1487 84.0301 17.8984 84.2201 17.8484C85.6601 17.4784 86.5401 19.5087 86.5601 20.6487Z" fill="#F2786B"/>
</svg>
