<svg width="683" height="626" viewBox="0 0 683 626" fill="none" xmlns="http://www.w3.org/2000/svg">
<g clip-path="url(#clip0_130_10954)">
<path d="M299.674 525.805C296.379 525.862 293.142 524.926 290.386 523.117C287.701 521.235 285.467 518.781 283.843 515.931C282.053 512.653 280.753 509.13 279.988 505.474C279.155 501.339 278.744 497.131 278.761 492.913C278.839 488.678 279.388 484.465 280.397 480.352C281.178 476.269 282.576 472.329 284.544 468.667C286.301 465.443 288.708 462.618 291.613 460.371C294.582 458.17 298.199 457.019 301.894 457.1C305.395 456.988 308.826 458.104 311.591 460.255C314.267 462.411 316.389 465.175 317.783 468.317C319.429 471.814 320.551 475.535 321.113 479.359C321.792 483.413 322.124 487.517 322.106 491.628C322.149 495.968 321.699 500.3 320.762 504.539C319.982 508.318 318.602 511.947 316.673 515.289C314.959 518.366 312.536 520.99 309.605 522.942C306.658 524.873 303.197 525.871 299.674 525.805ZM300.726 476.905C300.184 476.899 299.647 477.011 299.153 477.233C298.659 477.455 298.219 477.781 297.863 478.19C296.992 479.227 296.319 480.415 295.877 481.696C295.331 483.247 294.959 484.853 294.767 486.486C294.534 488.269 294.417 490.064 294.417 491.861C294.421 493.816 294.558 495.768 294.826 497.704C295.015 499.686 295.406 501.643 295.994 503.546C296.403 504.964 297.077 506.293 297.98 507.46C298.291 507.921 298.708 508.299 299.196 508.563C299.684 508.828 300.229 508.971 300.784 508.979C301.427 508.973 302.056 508.79 302.603 508.45C303.149 508.11 303.591 507.626 303.88 507.051C304.697 505.584 305.306 504.012 305.691 502.377C306.116 500.452 306.409 498.5 306.567 496.535C306.567 494.607 306.567 493.03 306.567 491.744C306.679 490.072 306.679 488.393 306.567 486.72C306.401 485.074 306.068 483.45 305.574 481.871C305.166 480.528 304.534 479.264 303.705 478.132C303.362 477.675 302.909 477.312 302.388 477.077C301.867 476.842 301.295 476.743 300.726 476.788V476.905Z" fill="#6D5953"/>
<path d="M375.44 471.004C375.487 474.871 374.455 478.675 372.46 481.988C370.452 485.321 367.716 488.157 364.457 490.284C366.083 490.573 367.633 491.189 369.014 492.095C370.274 492.911 371.365 493.962 372.227 495.191C373.089 496.461 373.74 497.862 374.155 499.339C374.609 500.915 374.825 502.549 374.797 504.188C374.873 507.247 374.083 510.264 372.519 512.893C371.012 515.237 369.02 517.229 366.677 518.736C364.164 520.375 361.402 521.598 358.499 522.358C355.56 523.116 352.538 523.508 349.503 523.526C347.887 523.62 346.267 523.601 344.654 523.468C343.054 523.246 341.485 522.834 339.981 522.241C339.455 522.241 339.047 521.365 338.696 520.079C338.287 518.588 338.014 517.063 337.878 515.522C337.878 513.711 337.469 511.725 337.352 509.68C337.236 507.635 337.352 505.591 337.352 503.838C337.352 502.085 337.352 500.216 337.352 498.755V489.291C337.352 487.187 337.352 485.143 337.352 483.098C337.352 482.572 337.352 481.754 337.352 480.644C337.352 479.534 337.352 478.307 337.352 476.905C337.352 475.503 337.352 474.101 337.352 472.582C337.352 471.063 337.352 469.661 337.703 468.317C337.811 467.174 338.006 466.041 338.287 464.928C338.413 464.263 338.739 463.651 339.222 463.176C340.64 462.252 342.124 461.432 343.661 460.722C345.303 459.901 347.002 459.198 348.744 458.619C350.465 458.043 352.221 457.574 354.001 457.217C355.654 456.877 357.337 456.701 359.025 456.691C361.142 456.707 363.246 457.021 365.275 457.626C367.188 458.195 368.973 459.127 370.533 460.371C372.048 461.618 373.282 463.171 374.155 464.928C375.049 466.826 375.489 468.907 375.44 471.004ZM360.894 475.62C360.917 475.212 360.845 474.804 360.682 474.428C360.52 474.053 360.273 473.721 359.959 473.458C359.261 472.965 358.418 472.719 357.564 472.757C356.682 472.768 355.81 472.946 354.994 473.283C354.132 473.596 353.339 474.072 352.657 474.685C352.374 475.122 352.213 475.626 352.19 476.146C352.001 477.07 351.884 478.007 351.84 478.95C351.785 479.903 351.785 480.859 351.84 481.813C351.84 482.747 351.84 483.332 351.84 483.624V484.208C351.813 484.48 351.813 484.754 351.84 485.026C351.807 485.278 351.807 485.533 351.84 485.785V486.136C352.951 486.087 354.025 485.722 354.936 485.084C356.015 484.309 356.978 483.384 357.798 482.338C358.623 481.281 359.31 480.123 359.843 478.891C360.431 477.892 360.79 476.775 360.894 475.62ZM360.544 500.975C360.583 500.561 360.505 500.145 360.319 499.773C360.133 499.401 359.847 499.089 359.492 498.872C358.765 498.449 357.938 498.227 357.097 498.229C356.209 498.239 355.332 498.438 354.527 498.814C353.719 499.138 352.969 499.592 352.307 500.157C352.307 500.157 352.015 500.566 351.898 501.034V502.553C351.871 503.078 351.871 503.605 351.898 504.13C351.877 504.48 351.877 504.831 351.898 505.182V505.883C351.869 506.233 351.869 506.584 351.898 506.934C351.832 507.282 351.832 507.639 351.898 507.986C351.898 508.336 351.898 508.512 352.19 508.512C353.127 508.479 354.044 508.239 354.877 507.811C355.878 507.339 356.819 506.75 357.681 506.058C358.501 505.366 359.193 504.535 359.726 503.604C360.253 502.828 360.538 501.913 360.544 500.975Z" fill="#6D5953"/>
<path d="M432.278 476.671C432.336 480.48 431.368 484.233 429.475 487.538C427.54 490.826 425.003 493.719 421.997 496.068C422.932 497.47 423.925 499.106 424.918 500.975C425.932 502.858 426.81 504.81 427.547 506.818C428.348 508.829 428.993 510.899 429.475 513.01C429.968 514.919 430.223 516.881 430.234 518.853C430.246 520.618 429.782 522.353 428.89 523.877C428.386 524.622 427.694 525.221 426.883 525.611C426.072 526.001 425.172 526.169 424.275 526.097C423.343 526.064 422.433 525.808 421.619 525.35C420.806 524.893 420.115 524.248 419.602 523.468C418.168 521.545 416.99 519.444 416.097 517.217C415.046 514.763 414.111 512.309 413.293 509.797C412.611 507.804 411.811 505.853 410.898 503.955C409.844 504.283 408.81 504.673 407.802 505.123L404.765 506.409C404.765 507.694 404.648 509.447 404.414 511.667C404.136 513.879 403.686 516.067 403.07 518.21C402.642 520.262 401.893 522.234 400.851 524.052C400.447 524.799 399.848 525.423 399.118 525.855C398.387 526.287 397.552 526.512 396.703 526.506C395.822 526.546 394.947 526.35 394.166 525.94C393.386 525.529 392.729 524.918 392.264 524.169C391.124 522.398 390.367 520.408 390.044 518.327C389.583 516.135 389.328 513.906 389.284 511.667C389.284 509.447 389.284 507.694 389.284 506.409C389.284 503.663 389.284 500.975 389.284 498.288C389.284 495.6 389.284 492.913 389.284 490.167C389.284 487.421 389.284 485.143 389.284 482.63C389.284 480.118 389.284 477.606 389.284 475.035V473.224C389.284 472.29 389.284 471.355 389.284 470.42C389.284 469.485 389.284 468.492 389.284 467.616C389.363 466.88 389.581 466.167 389.927 465.513C390.849 463.955 392.239 462.728 393.899 462.007C396.095 460.852 398.381 459.875 400.734 459.086C403.405 458.158 406.138 457.416 408.912 456.866C410.654 456.436 412.435 456.182 414.228 456.107C416.948 456.032 419.648 456.592 422.114 457.742C424.386 458.791 426.386 460.35 427.956 462.299C429.494 464.243 430.644 466.465 431.344 468.843C432.041 471.392 432.356 474.03 432.278 476.671ZM416.039 477.898C416.121 476.659 415.747 475.433 414.987 474.451C414.537 474.029 414.002 473.706 413.418 473.505C412.834 473.303 412.214 473.228 411.599 473.283C410.387 473.277 409.183 473.475 408.036 473.867C406.908 474.242 405.814 474.711 404.765 475.269C404.765 479.885 404.765 484.5 404.765 489.057C406.066 488.621 407.335 488.094 408.562 487.48C409.83 486.839 411.008 486.033 412.067 485.084C413.132 484.19 414.041 483.124 414.754 481.929C415.491 480.715 415.875 479.319 415.864 477.898H416.039Z" fill="#6D5953"/>
<path d="M465.167 525.805C461.779 525.875 458.453 524.896 455.645 523.001C452.96 521.118 450.726 518.664 449.102 515.815C447.311 512.537 446.012 509.013 445.247 505.357C444.414 501.222 444.003 497.014 444.02 492.796C444.011 488.611 444.462 484.438 445.364 480.352C446.144 476.269 447.543 472.329 449.511 468.667C451.27 465.427 453.7 462.599 456.638 460.371C459.745 458.163 463.526 457.109 467.328 457.392C470.83 457.28 474.26 458.396 477.025 460.547C479.701 462.704 481.823 465.467 483.217 468.609C484.863 472.106 485.985 475.827 486.547 479.651C487.226 483.705 487.558 487.809 487.54 491.92C487.584 496.261 487.133 500.592 486.197 504.831C485.417 508.61 484.036 512.239 482.107 515.581C480.39 518.539 478.01 521.058 475.156 522.942C472.192 524.884 468.709 525.883 465.167 525.805ZM466.218 476.905C465.676 476.899 465.14 477.011 464.646 477.233C464.151 477.455 463.711 477.781 463.356 478.19C462.504 479.231 461.851 480.419 461.428 481.696C460.862 483.244 460.47 484.851 460.26 486.486C460.027 488.269 459.91 490.064 459.909 491.861C459.914 493.816 460.05 495.768 460.318 497.704C460.508 499.686 460.899 501.643 461.487 503.546C461.895 504.964 462.569 506.293 463.473 507.46C463.796 507.922 464.224 508.3 464.721 508.564C465.219 508.828 465.772 508.97 466.335 508.979C466.97 508.969 467.589 508.783 468.125 508.443C468.661 508.103 469.093 507.621 469.373 507.051C470.189 505.584 470.799 504.011 471.184 502.377C471.609 500.452 471.901 498.5 472.06 496.535C472.06 494.607 472.06 493.03 472.06 491.744C472.171 490.071 472.171 488.393 472.06 486.72C471.893 485.074 471.56 483.45 471.067 481.871C470.683 480.519 470.049 479.25 469.197 478.132C468.858 477.671 468.406 477.305 467.884 477.069C467.362 476.834 466.788 476.737 466.218 476.788V476.905Z" fill="#6D5953"/>
<path d="M546.19 518.911C546.282 520.341 545.845 521.755 544.963 522.884C544.498 523.426 543.912 523.851 543.252 524.125C542.593 524.399 541.878 524.514 541.166 524.461C539.835 524.483 538.537 524.051 537.486 523.234C536.296 522.376 535.233 521.353 534.331 520.196C533.369 519.005 532.509 517.735 531.761 516.399C531.06 515.055 530.417 513.887 529.95 512.893L526.328 505.532C525.16 503.078 523.933 500.566 522.765 498.054L517.507 501.326C517.653 503.017 517.653 504.717 517.507 506.409C517.274 508.083 517.098 509.778 516.982 511.491C516.855 512.767 516.66 514.034 516.397 515.289C516.147 516.627 515.714 517.924 515.112 519.145C514.555 520.31 513.759 521.345 512.776 522.183C511.725 522.999 510.426 523.432 509.095 523.41C507.923 523.459 506.762 523.153 505.766 522.533C504.897 522.003 504.158 521.285 503.604 520.43C503.052 519.509 502.657 518.502 502.436 517.45C502.201 516.317 502.083 515.161 502.086 514.004V513.302C502.078 509.828 502.273 506.355 502.67 502.903C503.02 499.456 503.254 495.951 503.371 492.445C503.371 487.83 503.663 483.215 503.838 478.599C504.013 473.984 504.247 469.369 504.539 464.753C504.596 463.723 504.772 462.704 505.065 461.715C505.337 460.752 505.771 459.844 506.35 459.028C506.941 458.269 507.676 457.634 508.511 457.158C509.449 456.674 510.494 456.433 511.549 456.457C512.337 456.412 513.124 456.564 513.839 456.901C514.553 457.238 515.171 457.748 515.638 458.385C516.573 459.778 517.21 461.349 517.507 463C517.888 464.923 518.045 466.884 517.975 468.843C517.975 470.771 517.975 472.406 517.975 473.692C517.975 477.372 517.975 481.053 517.975 484.734C519.744 483.239 521.404 481.618 522.94 479.885C524.465 478.152 525.87 476.317 527.146 474.393C528.123 472.914 529.001 471.372 529.775 469.777C530.768 467.85 531.878 465.922 533.046 463.935C534.141 462.176 535.435 460.549 536.902 459.086C537.47 458.47 538.155 457.972 538.917 457.621C539.679 457.27 540.503 457.073 541.341 457.041C542.035 456.974 542.735 457.071 543.385 457.325C544.034 457.579 544.615 457.982 545.08 458.502C545.901 459.592 546.314 460.936 546.248 462.299C546.234 464.732 545.88 467.151 545.197 469.485C544.415 471.982 543.419 474.406 542.217 476.73C540.808 479.079 539.206 481.306 537.427 483.39C536.048 485.473 534.484 487.429 532.754 489.232C534.39 491.978 535.908 494.724 537.369 497.528L541.75 505.883C542.276 506.817 542.802 507.869 543.327 508.979C543.853 510.089 544.262 511.199 544.671 512.368C545.083 513.512 545.414 514.683 545.664 515.873C545.953 516.863 546.13 517.882 546.19 518.911Z" fill="#6D5953"/>
<path d="M627.154 464.753C626.971 465.636 626.697 466.497 626.337 467.324C625.752 468.726 625.051 470.42 624.117 472.465L620.904 479.359L617.165 487.187C615.88 489.816 614.653 492.445 613.427 495.016L610.038 501.968C608.987 504.013 608.169 505.766 607.468 507.226L606.125 509.914C607.942 509.311 609.795 508.823 611.674 508.453C613.595 508.053 615.553 507.857 617.516 507.869C618.507 507.787 619.504 507.787 620.495 507.869C621.514 507.982 622.503 508.279 623.416 508.745C624.294 509.157 625.071 509.755 625.694 510.498C626.338 511.332 626.669 512.366 626.629 513.419C626.624 514.695 626.145 515.924 625.285 516.866C624.339 517.971 623.188 518.884 621.897 519.554C620.415 520.366 618.848 521.013 617.224 521.482C615.471 522.007 613.719 522.475 611.966 522.825C610.327 523.161 608.669 523.395 607.001 523.526C605.678 523.599 604.352 523.599 603.029 523.526H598.589C597.035 523.424 595.501 523.11 594.032 522.592C592.648 522.095 591.391 521.297 590.352 520.255C589.354 519.043 588.853 517.498 588.95 515.931C589.046 514.137 589.4 512.366 590.002 510.673C590.761 508.512 591.637 506.233 592.63 503.955C593.624 501.676 594.617 499.456 595.727 497.295L598.297 492.27C600.283 488.59 602.269 484.909 604.138 481.287C606.008 477.665 608.111 473.925 609.98 470.186C607.731 471.439 605.387 472.514 602.97 473.4C600.596 474.29 598.086 474.764 595.551 474.802C594.664 474.793 593.781 474.675 592.923 474.451C592.06 474.243 591.233 473.908 590.469 473.458C589.763 473.035 589.163 472.455 588.717 471.764C588.241 471.035 587.997 470.18 588.016 469.31C588.01 467.783 588.525 466.299 589.476 465.104C590.57 463.719 591.894 462.533 593.39 461.598C595.099 460.478 596.92 459.538 598.823 458.794C600.722 457.983 602.674 457.3 604.664 456.749C606.709 456.223 608.636 455.814 610.506 455.522C612.05 455.263 613.613 455.126 615.179 455.113C618.094 454.984 620.988 455.672 623.533 457.1C624.796 457.904 625.807 459.05 626.448 460.404C627.089 461.758 627.334 463.266 627.154 464.753Z" fill="#6D5953"/>
<path d="M683 509.797C683.101 511.197 683.101 512.603 683 514.003C682.828 515.608 682.434 517.181 681.832 518.677C681.286 520.086 680.473 521.376 679.437 522.475C678.924 522.983 678.311 523.381 677.638 523.642C676.964 523.903 676.244 524.023 675.523 523.994C674.581 524.059 673.639 523.878 672.789 523.468C671.939 523.058 671.21 522.434 670.674 521.657C669.504 519.89 668.708 517.901 668.338 515.815C667.861 513.605 667.587 511.356 667.52 509.096C667.52 506.817 667.52 505.006 667.52 503.663C663.314 504.364 659.166 505.006 655.077 505.532C654.92 507.201 654.666 508.859 654.318 510.498C653.984 512.512 653.395 514.475 652.565 516.34C651.847 518.106 650.818 519.728 649.528 521.131C648.947 521.78 648.236 522.298 647.44 522.65C646.645 523.003 645.783 523.182 644.913 523.176C644.279 523.207 643.648 523.079 643.076 522.804C642.505 522.528 642.012 522.114 641.641 521.598C640.798 520.526 640.182 519.294 639.831 517.976C639.431 516.565 639.177 515.116 639.071 513.653C639.071 512.134 639.071 510.907 639.071 509.914C639.08 506.606 639.353 503.304 639.889 500.04C640.415 496.827 640.999 493.614 641.7 490.401C642.05 488.687 642.518 486.74 643.102 484.558C643.686 482.28 644.387 479.943 645.263 477.489C646.106 475.034 647.101 472.634 648.242 470.303C649.29 468.033 650.604 465.895 652.156 463.935C653.516 462.123 655.199 460.577 657.122 459.378C658.981 458.226 661.126 457.618 663.314 457.626C665.366 457.567 667.392 458.094 669.155 459.144C670.835 460.159 672.302 461.488 673.478 463.059C674.757 464.865 675.797 466.829 676.574 468.901C677.334 470.946 678.035 473.049 678.619 475.211C679.203 477.372 679.612 479.417 680.021 481.462C680.43 483.507 680.722 485.318 681.014 486.895C681.773 490.693 682.416 494.549 682.942 498.58C683.203 502.314 683.223 506.061 683 509.797ZM665.943 488.531C665.943 487.83 665.943 486.662 665.943 485.084C665.834 483.459 665.639 481.84 665.358 480.235C665.094 478.762 664.643 477.329 664.015 475.97C663.832 475.437 663.496 474.97 663.05 474.627C662.603 474.284 662.065 474.081 661.503 474.042C660.919 474.042 660.393 474.451 659.867 475.269C659.24 476.179 658.767 477.186 658.465 478.249C658.003 479.546 657.633 480.873 657.355 482.221C657.009 483.608 656.736 485.012 656.538 486.428C656.538 487.772 656.129 488.998 656.012 490.05C655.895 491.102 656.012 491.92 656.012 492.387C659.517 492.387 662.963 491.628 666.351 491.043L665.943 488.531Z" fill="#6D5953"/>
<path d="M321.288 564.481C321.284 567.488 320.626 570.458 319.36 573.186C318.097 576.03 316.359 578.638 314.22 580.898C312.105 583.237 309.618 585.211 306.859 586.74C304.248 588.164 301.357 589.002 298.389 589.194C298.389 590.187 298.389 591.414 298.389 592.933C298.375 594.514 298.278 596.094 298.097 597.665C298.097 599.301 297.688 600.995 297.396 602.631C297.124 604.159 296.673 605.649 296.052 607.071C295.585 608.307 294.823 609.41 293.833 610.284C292.927 611.115 291.731 611.556 290.503 611.511C289.817 611.533 289.134 611.409 288.5 611.147C287.865 610.885 287.294 610.491 286.823 609.992C285.893 608.92 285.197 607.667 284.778 606.311C284.31 604.849 283.996 603.341 283.843 601.813C283.843 600.294 283.843 598.95 283.493 597.84C283.142 596.73 283.493 594.685 283.493 593.166C283.493 591.647 283.493 590.07 283.493 588.434V584.228C283.493 582.241 283.493 580.021 283.493 577.567C283.493 575.114 283.493 572.426 283.493 569.68C283.493 566.935 283.493 564.481 283.493 562.144C283.493 559.807 283.493 557.821 283.843 556.302C283.857 555.319 284.055 554.348 284.428 553.439L284.895 553.088L285.83 552.504C286.108 552.308 286.401 552.132 286.706 551.978L287.29 551.628C289.95 550.135 292.747 548.903 295.643 547.947C298.512 546.92 301.534 546.387 304.581 546.37C306.968 546.312 309.333 546.833 311.474 547.889C313.485 548.857 315.275 550.229 316.732 551.92C318.206 553.645 319.354 555.625 320.12 557.762C320.872 559.923 321.267 562.193 321.288 564.481ZM307.035 566.35C307.061 565.343 306.797 564.349 306.275 563.488C305.986 563.067 305.59 562.732 305.128 562.516C304.666 562.301 304.154 562.212 303.646 562.261C302.587 562.261 301.537 562.46 300.55 562.845L297.63 564.13C297.63 566.058 297.98 567.928 298.097 569.972C298.256 571.917 298.256 573.871 298.097 575.815L300.959 574.296C301.985 573.735 302.962 573.09 303.88 572.368C304.738 571.665 305.487 570.838 306.1 569.914C306.813 568.869 307.143 567.61 307.035 566.35Z" fill="#6D5953"/>
<path d="M351.547 611.394C348.441 611.455 345.388 610.58 342.785 608.882C340.371 607.072 338.378 604.76 336.943 602.105C335.215 599.029 333.993 595.695 333.322 592.232C332.495 588.392 332.084 584.475 332.095 580.547C332.129 576.619 332.56 572.704 333.38 568.863C334.169 565.13 335.487 561.53 337.294 558.171C338.929 555.116 341.2 552.446 343.953 550.342C346.76 548.284 350.171 547.215 353.65 547.305C356.92 547.168 360.131 548.204 362.705 550.226C365.229 552.256 367.232 554.86 368.547 557.821C370.053 561.128 371.095 564.627 371.643 568.22C372.28 572.082 372.592 575.99 372.577 579.904C372.598 584.006 372.187 588.099 371.351 592.115C370.594 595.653 369.272 599.046 367.437 602.164C365.844 604.953 363.624 607.333 360.952 609.116C358.115 610.797 354.84 611.59 351.547 611.394ZM352.482 565.357C351.974 565.353 351.472 565.466 351.016 565.689C350.56 565.913 350.162 566.239 349.853 566.642C349.013 567.572 348.377 568.666 347.984 569.856C347.432 571.321 347.078 572.854 346.933 574.413C346.7 576.097 346.583 577.795 346.582 579.495C346.578 581.448 346.695 583.399 346.933 585.338C347.148 587.1 347.52 588.84 348.043 590.537C348.436 591.886 349.069 593.153 349.912 594.276C350.217 594.706 350.619 595.057 351.087 595.301C351.554 595.545 352.072 595.674 352.599 595.679C353.196 595.667 353.778 595.492 354.283 595.172C354.787 594.853 355.195 594.402 355.461 593.867C356.23 592.494 356.8 591.019 357.155 589.486C357.579 587.76 357.853 586.001 357.973 584.228C357.973 582.417 357.973 580.898 357.973 579.671C358.055 578.114 358.055 576.554 357.973 574.997C357.803 573.433 357.49 571.888 357.039 570.382C356.646 569.127 356.054 567.943 355.286 566.876C354.983 566.409 354.568 566.024 354.078 565.759C353.588 565.494 353.039 565.356 352.482 565.357Z" fill="#6D5953"/>
<path d="M426.437 565.299C426.49 568.88 425.582 572.411 423.808 575.523C421.997 578.609 419.618 581.324 416.798 583.527C417.794 585.016 418.711 586.556 419.544 588.142C420.496 590.038 421.335 591.989 422.056 593.984C422.765 595.897 423.37 597.848 423.867 599.827C424.312 601.604 424.548 603.428 424.568 605.26C424.601 606.928 424.155 608.57 423.282 609.992C422.82 610.701 422.174 611.272 421.412 611.642C420.651 612.013 419.803 612.169 418.96 612.095C418.072 612.067 417.204 611.824 416.43 611.386C415.657 610.949 415.002 610.33 414.52 609.583C413.178 607.788 412.078 605.823 411.249 603.741C410.252 601.471 409.374 599.15 408.62 596.789C407.981 594.796 407.22 592.845 406.342 590.946L403.479 592.056L400.559 593.225C400.559 594.452 400.559 596.146 400.559 598.249C400.439 600.373 400.146 602.483 399.682 604.559C399.278 606.471 398.568 608.306 397.579 609.992C397.201 610.697 396.636 611.283 395.945 611.685C395.254 612.087 394.465 612.29 393.665 612.271C392.839 612.307 392.017 612.119 391.288 611.729C390.558 611.338 389.947 610.759 389.518 610.051C388.471 608.457 387.756 606.669 387.415 604.792C386.974 602.737 386.739 600.643 386.714 598.541C386.714 596.438 386.714 594.802 386.714 593.575C386.714 591.005 386.714 588.434 386.714 585.98C386.714 583.527 386.714 580.898 386.714 578.327C386.714 575.756 386.714 573.595 386.714 571.258C386.714 568.921 386.714 566.467 386.714 564.072V561.969C386.656 561.093 386.656 560.215 386.714 559.34C386.714 558.405 386.714 557.587 386.714 556.711C386.777 556.035 386.975 555.379 387.298 554.783C388.153 553.299 389.464 552.131 391.037 551.452C393.101 550.366 395.25 549.447 397.463 548.707C399.705 547.944 401.987 547.301 404.297 546.779C405.932 546.418 407.592 546.183 409.263 546.078C411.824 546.028 414.362 546.567 416.681 547.655C418.77 548.655 420.607 550.113 422.056 551.92C423.501 553.767 424.591 555.867 425.269 558.113C426 560.44 426.393 562.86 426.437 565.299ZM411.19 566.467C411.296 565.289 410.94 564.116 410.197 563.195C409.777 562.784 409.271 562.471 408.715 562.279C408.16 562.087 407.569 562.021 406.984 562.085C405.848 562.08 404.721 562.278 403.655 562.67C402.591 563.017 401.555 563.446 400.559 563.955C400.559 568.337 400.559 572.66 400.559 576.925C401.772 576.504 402.962 576.016 404.122 575.464C405.32 574.842 406.438 574.077 407.452 573.186C408.445 572.358 409.294 571.371 409.964 570.265C410.734 569.225 411.2 567.991 411.307 566.701L411.19 566.467Z" fill="#6D5953"/>
<path d="M457.689 611.394C454.585 611.441 451.535 610.567 448.927 608.882C446.513 607.072 444.519 604.76 443.085 602.105C441.407 599.006 440.187 595.681 439.464 592.232C438.686 588.386 438.294 584.471 438.295 580.547C438.3 576.617 438.731 572.699 439.58 568.863C440.343 565.123 441.662 561.519 443.494 558.171C445.013 555.107 447.164 552.4 449.803 550.226C452.584 548.159 455.979 547.089 459.442 547.188C462.729 547.057 465.956 548.092 468.555 550.109C471.082 552.136 473.086 554.74 474.396 557.704C475.923 561.008 476.985 564.507 477.551 568.103C478.159 571.968 478.471 575.875 478.486 579.788C478.516 583.893 478.085 587.989 477.2 591.998C476.357 595.435 474.998 598.724 473.17 601.755C471.557 604.548 469.317 606.928 466.627 608.707C463.971 610.449 460.866 611.382 457.689 611.394ZM458.682 565.357C458.166 565.352 457.656 565.466 457.19 565.689C456.724 565.911 456.316 566.238 455.995 566.642C455.176 567.586 454.541 568.677 454.126 569.856C453.627 571.336 453.274 572.863 453.075 574.413C452.842 576.097 452.724 577.795 452.724 579.495C452.739 581.45 452.876 583.401 453.133 585.338C453.32 587.105 453.692 588.848 454.243 590.537C454.618 591.882 455.232 593.148 456.054 594.276C456.362 594.801 456.811 595.228 457.349 595.512C457.888 595.795 458.494 595.923 459.101 595.88C459.708 595.838 460.291 595.627 460.784 595.271C461.278 594.916 461.663 594.43 461.895 593.867C462.664 592.494 463.234 591.019 463.589 589.486C463.985 587.754 464.258 585.997 464.407 584.228C464.407 582.397 464.407 580.878 464.407 579.671C464.518 578.115 464.518 576.553 464.407 574.997C464.266 573.429 463.952 571.881 463.473 570.382C463.055 569.038 462.381 567.788 461.486 566.701C461.16 566.269 460.736 565.922 460.248 565.688C459.76 565.455 459.223 565.341 458.682 565.357Z" fill="#6D5953"/>
<path d="M534.974 571.55C534.984 576.363 533.968 581.123 531.995 585.513C530.052 589.843 527.363 593.799 524.05 597.198C520.711 600.672 516.747 603.486 512.367 605.494C507.996 607.537 503.23 608.594 498.405 608.59C497.918 608.584 497.439 608.458 497.011 608.224C496.583 607.99 496.22 607.654 495.952 607.246C495.267 606.177 494.736 605.016 494.375 603.799C493.896 602.296 493.564 600.751 493.382 599.184C493.382 597.49 492.973 595.795 492.856 594.218C492.739 592.641 492.856 591.122 492.856 589.836V586.915C492.856 585.046 492.856 583.176 492.856 581.073C492.856 578.97 492.856 577.334 492.856 575.231C492.856 574.646 492.856 573.77 492.856 572.602C492.856 571.433 492.856 570.089 492.856 568.57C492.856 567.051 492.856 565.532 493.265 563.897C493.674 562.261 493.615 560.8 493.849 559.398C494.083 557.996 494.199 556.769 494.375 555.659C494.509 554.91 494.745 554.183 495.076 553.497C495.914 552.176 497.055 551.074 498.405 550.284C499.918 549.343 501.523 548.56 503.195 547.947C504.928 547.356 506.706 546.906 508.511 546.603C510.035 546.325 511.578 546.169 513.126 546.136C516.397 546.068 519.639 546.768 522.59 548.181C525.196 549.459 527.474 551.318 529.249 553.614C531.075 555.959 532.424 558.638 533.221 561.501C534.327 564.739 534.919 568.129 534.974 571.55ZM521.129 573.945C521.114 572.692 520.897 571.449 520.487 570.265C520.029 569.015 519.4 567.836 518.617 566.759C517.814 565.742 516.822 564.889 515.697 564.247C514.547 563.631 513.262 563.31 511.958 563.312C510.745 563.332 509.55 563.611 508.453 564.13C508.161 564.13 507.927 564.831 507.694 565.649C507.437 566.666 507.262 567.701 507.168 568.746C507.168 569.972 507.168 571.316 506.759 572.718C506.35 574.121 506.759 575.523 506.759 576.808C506.759 578.093 506.759 579.203 506.759 580.196V584.637C506.701 585.687 506.701 586.741 506.759 587.791C506.759 588.843 506.759 589.778 506.759 590.537C506.759 591.297 506.759 591.647 507.343 591.647C509.15 591.582 510.881 590.902 512.25 589.719C515.657 586.901 518.29 583.262 519.902 579.145C520.634 577.504 521.05 575.74 521.129 573.945Z" fill="#6D5953"/>
<path d="M575.748 552.679C575.753 553.658 575.512 554.622 575.047 555.484C574.57 556.302 573.935 557.017 573.178 557.587C572.384 558.176 571.52 558.667 570.608 559.047C569.735 559.392 568.837 559.665 567.921 559.865C567.921 566.058 567.57 572.076 567.22 577.801C566.869 583.527 566.285 589.486 565.525 595.737H565.993C566.865 595.622 567.749 595.622 568.622 595.737C569.434 595.9 570.207 596.217 570.9 596.672C571.574 597.121 572.134 597.721 572.535 598.424C573.038 599.344 573.251 600.393 573.147 601.436C573.043 602.478 572.626 603.465 571.951 604.267C571.096 605.256 570.041 606.053 568.855 606.604C567.477 607.318 566.029 607.886 564.532 608.298C562.954 608.712 561.355 609.044 559.742 609.291C558.238 609.575 556.715 609.751 555.186 609.817H551.739H549.111C548.196 609.76 547.292 609.583 546.423 609.291C545.605 609.085 544.859 608.661 544.262 608.064C543.944 607.792 543.694 607.45 543.532 607.065C543.37 606.679 543.3 606.261 543.327 605.844C543.31 604.771 543.551 603.709 544.028 602.748C544.514 601.851 545.146 601.041 545.898 600.352C546.653 599.631 547.521 599.039 548.468 598.6C549.403 598.165 550.382 597.832 551.389 597.606C551.798 594.569 552.148 591.764 552.499 588.609C552.849 585.455 553.024 582.767 553.141 579.495C553.258 576.224 553.141 573.244 553.492 570.206C553.842 567.168 553.492 564.364 553.492 561.034H552.44H551.506C550.69 561.113 549.868 561.113 549.052 561.034C548.188 560.892 547.357 560.595 546.599 560.157C545.856 559.793 545.199 559.276 544.671 558.639C544.117 558.012 543.824 557.196 543.853 556.36C543.862 555.463 544.078 554.58 544.483 553.78C544.888 552.979 545.472 552.283 546.19 551.745C547.937 550.44 549.921 549.488 552.031 548.94C554.204 548.286 556.434 547.836 558.691 547.597C560.491 547.344 562.306 547.208 564.124 547.188H567.161C568.433 547.294 569.687 547.549 570.9 547.947C572.068 548.245 573.162 548.782 574.113 549.525C574.682 549.812 575.146 550.272 575.44 550.838C575.733 551.404 575.841 552.048 575.748 552.679Z" fill="#6D5953"/>
<path d="M622.656 566.701C622.652 567.801 622.535 568.897 622.306 569.973C622.091 571.108 621.676 572.196 621.079 573.186C620.56 574.16 619.844 575.016 618.976 575.698C618.039 576.364 616.913 576.712 615.763 576.691C614.248 576.795 612.738 576.428 611.44 575.64C610.556 574.994 609.884 574.099 609.513 573.069C609.087 571.99 608.869 570.84 608.87 569.68C608.87 568.512 608.87 567.402 608.87 566.35C608.837 565.47 608.66 564.602 608.344 563.78C608.175 563.423 607.897 563.13 607.551 562.941C607.205 562.752 606.808 562.678 606.416 562.728C605.872 562.725 605.333 562.832 604.831 563.043C604.329 563.253 603.874 563.564 603.496 563.955C602.599 564.84 601.885 565.892 601.393 567.051C600.709 568.409 600.18 569.84 599.815 571.316C599.42 572.876 599.108 574.456 598.881 576.049C598.611 577.518 598.416 579 598.297 580.489C598.297 581.891 598.297 583.059 598.297 583.936C598.297 584.812 598.297 586.448 598.297 588.025C598.364 589.589 598.619 591.138 599.056 592.641C599.454 593.993 600.131 595.246 601.042 596.321C601.519 596.846 602.108 597.255 602.766 597.518C603.424 597.781 604.133 597.891 604.839 597.84C605.924 597.854 607.005 597.716 608.052 597.431C609.102 597.182 610.136 596.869 611.148 596.497C612.2 596.124 613.273 595.812 614.361 595.562C615.409 595.283 616.49 595.145 617.574 595.153C618.183 595.134 618.788 595.263 619.337 595.527C619.886 595.791 620.363 596.184 620.728 596.672C621.524 597.621 621.958 598.822 621.955 600.06C621.959 601.831 621.385 603.554 620.32 604.968C619.183 606.523 617.802 607.884 616.23 608.999C614.605 610.124 612.837 611.027 610.973 611.686C609.331 612.316 607.591 612.652 605.832 612.68C602.288 612.821 598.785 611.884 595.785 609.992C593.056 608.228 590.76 605.872 589.067 603.098C587.337 600.169 586.113 596.969 585.445 593.634C584.704 590.197 584.332 586.692 584.335 583.176C584.336 580.631 584.551 578.09 584.978 575.581C585.417 572.786 586.081 570.032 586.964 567.344C587.831 564.562 588.945 561.864 590.294 559.281C591.569 556.808 593.16 554.51 595.025 552.446C596.695 550.537 598.669 548.918 600.867 547.655C603.186 546.427 605.778 545.804 608.403 545.844C610.824 545.768 613.204 546.486 615.179 547.889C616.996 549.239 618.492 550.975 619.56 552.972C620.663 555.1 621.431 557.386 621.838 559.749C622.332 562.035 622.606 564.363 622.656 566.701Z" fill="#6D5953"/>
<path d="M679.495 579.729C679.495 581.949 679.495 584.286 679.495 586.681C679.262 589.022 678.871 591.345 678.327 593.634C677.761 595.84 676.999 597.991 676.049 600.06C675.137 602.014 673.892 603.793 672.368 605.318C670.853 606.851 669.045 608.063 667.052 608.882C664.712 609.812 662.21 610.269 659.692 610.226C655.757 610.474 651.837 609.56 648.418 607.597C645.377 605.685 642.77 603.158 640.765 600.177C638.879 597.051 637.517 593.637 636.735 590.07C635.747 586.492 635.237 582.799 635.216 579.086V577.801C635.187 577.51 635.187 577.216 635.216 576.925C635.216 575.756 635.216 574.179 635.216 572.251C635.216 570.323 635.566 568.103 635.917 565.883C636.267 563.663 636.676 561.326 637.202 558.931C637.654 556.76 638.339 554.644 639.246 552.621C639.964 550.893 641.016 549.325 642.342 548.006C642.892 547.429 643.554 546.971 644.287 546.659C645.021 546.348 645.81 546.19 646.607 546.194C647.714 546.159 648.796 546.533 649.644 547.246C650.496 547.999 651.191 548.912 651.689 549.933C652.207 551.009 652.58 552.149 652.799 553.322C653.019 554.379 653.136 555.455 653.149 556.535C653.139 558.046 652.983 559.553 652.682 561.034L651.806 565.532C651.339 567.928 650.988 570.265 650.754 572.66C650.468 575.064 650.332 577.483 650.345 579.904C650.345 581.131 650.345 582.709 650.345 584.52C650.453 586.293 650.806 588.044 651.397 589.719C651.889 591.298 652.683 592.766 653.734 594.043C654.828 595.131 656.309 595.742 657.852 595.742C659.395 595.742 660.876 595.131 661.97 594.043C662.998 592.847 663.773 591.456 664.248 589.953C664.743 588.318 665.056 586.633 665.183 584.929C665.183 583.176 665.183 581.657 665.183 580.372C665.165 576.769 664.852 573.174 664.248 569.622C663.652 566.055 662.852 562.524 661.853 559.047C661.565 558.127 661.331 557.191 661.152 556.243C661.066 555.31 661.066 554.372 661.152 553.439C661.122 551.971 661.62 550.54 662.554 549.408C662.998 548.83 663.575 548.369 664.237 548.063C664.898 547.758 665.624 547.618 666.351 547.655C667.795 547.705 669.168 548.288 670.207 549.291C671.494 550.5 672.561 551.923 673.361 553.497C674.364 555.362 675.186 557.318 675.815 559.34C676.457 561.501 677.042 563.604 677.567 565.708C678.093 567.811 678.444 569.856 678.677 571.55C678.911 573.244 679.086 575.055 679.145 576.224C679.173 576.769 679.173 577.315 679.145 577.86L679.495 579.729Z" fill="#6D5953"/>
<path d="M46.7328 510.615C44.2209 508.745 41.5922 507.051 38.9635 505.357C40.3655 504.831 41.8259 504.422 43.1694 503.838C49.6848 501.352 55.5127 497.346 60.1685 492.153C64.5782 487.527 67.2906 481.543 67.8635 475.177C68.4363 468.811 66.8358 462.439 63.323 457.1C51.3477 440.975 27.3387 442.728 10.0476 445.415C7.41058 446.127 5.16255 447.854 3.79442 450.219C2.42629 452.583 2.04922 455.393 2.74556 458.035C3.5339 460.63 5.28914 462.823 7.6484 464.16C10.0077 465.497 12.7906 465.877 15.4218 465.22C22.5707 463.703 29.9388 463.525 37.1526 464.695C39.1487 465.047 41.1053 465.595 42.9942 466.331C44.149 466.914 45.2616 467.578 46.3239 468.317C44.1625 466.973 46.3239 467.382 46.8496 468.96C50.7051 476.73 40.4239 482.923 34.5239 485.259C26.5209 488.473 15.0129 488.297 10.807 496.944C6.1921 506.584 12.6179 513.419 20.4456 518.035C27.871 522.187 34.9091 526.997 41.4754 532.407C47.7316 537.695 52.4488 544.571 55.1315 552.312C57.8143 560.052 58.3636 568.373 56.722 576.399C55.2615 585.98 51.6982 597.314 43.1694 602.923C34.6407 608.532 23.6001 602.923 15.7723 597.431C13.3948 596.083 10.584 595.72 7.94182 596.418C5.29961 597.117 3.036 598.823 1.63565 601.17C0.320711 603.546 -0.024458 606.338 0.672392 608.963C1.36924 611.587 3.05409 613.84 5.37428 615.25C20.0367 625.942 39.2556 630.674 55.1447 619.632C71.0339 608.59 76.5834 589.603 77.8685 571.784C79.3175 555.803 74.6865 539.864 64.9002 527.149C59.6266 520.835 53.5141 515.272 46.7328 510.615Z" fill="#EF8D56"/>
<path d="M235.767 505.883C233.795 491.41 228.885 477.493 221.338 464.987C214.153 454.354 201.185 444.13 188.216 451.433C176.533 458.034 170.224 472.991 166.018 485.026C164.792 488.531 163.799 492.095 162.805 495.717C162.513 494.724 162.338 493.672 162.046 492.738C158.015 478.19 151.882 461.54 139.322 452.426C129.158 445.24 117.183 449.622 109.296 458.268C101.189 468.085 95.5595 479.706 92.8815 492.153C87.4335 513.401 85.0146 535.312 85.6963 557.236C85.3402 573.106 88.7221 588.836 95.5686 603.157C98.1027 608.398 102.047 612.828 106.96 615.951C118.643 621.794 129.158 604.267 117.358 598.424C116.832 597.782 116.189 597.198 115.664 596.672C115.255 596.087 114.846 595.503 114.495 594.919C112.479 592.032 111.05 588.776 110.289 585.338C108.632 579.911 107.517 574.334 106.96 568.687C105.29 549.324 106.292 529.822 109.939 510.732C111.54 498.404 115.507 486.501 121.622 475.678L122.498 474.451C122.931 473.858 123.399 473.293 123.9 472.757L125.419 471.238C125.57 471.117 125.707 470.98 125.828 470.829L127.581 469.836H127.873C128.515 470.537 129.275 471.238 129.976 471.939L130.443 472.407C131.202 473.575 132.02 474.685 132.721 475.853C134.346 478.579 135.79 481.409 137.044 484.325L138.563 488.181C139.381 490.401 140.14 492.679 140.841 495.016C151.882 529.544 152.583 566.701 152.524 602.28C152.72 604.881 153.891 607.312 155.803 609.085C157.715 610.859 160.227 611.844 162.835 611.844C165.442 611.844 167.954 610.859 169.866 609.085C171.778 607.312 172.949 604.881 173.145 602.28C173.145 569.271 174.021 535.269 182.141 502.962C183.296 498.153 184.72 493.414 186.406 488.765C186.698 487.83 187.048 486.954 187.399 486.077C187.749 485.201 187.866 484.851 188.041 484.383C188.216 483.916 188.742 482.923 188.859 482.63C188.976 482.338 189.618 480.995 190.027 480.235C191.371 477.606 192.948 475.211 194.525 472.757V472.407L194.934 471.998C195.635 471.296 196.395 470.595 197.037 469.836L198.673 470.771L200.425 472.465C201.068 473.108 201.652 473.809 202.236 474.51L202.704 475.269C204.055 477.297 205.283 479.404 206.384 481.579C208.88 486.759 210.837 492.182 212.225 497.762C217.156 516.442 219.572 535.697 219.411 555.016C219.412 563.025 218.59 571.012 216.957 578.853C216.318 581.763 215.498 584.632 214.504 587.441C214.059 589.111 213.37 590.705 212.459 592.173C211.7 593.575 210.823 594.861 209.947 596.204L208.896 597.314L208.545 597.723C196.862 603.566 207.143 621.677 218.943 615.25C233.664 607.538 237.636 584.578 239.272 570.148C241.171 548.668 239.991 527.028 235.767 505.883ZM126.529 468.726H126.821C126.237 468.667 125.77 468.551 126.529 468.726ZM126.12 470.595C126.763 469.953 126.471 470.595 126.12 470.595V470.595ZM197.212 469.076H196.804H197.212ZM198.439 469.076C199.023 469.076 198.965 469.076 198.439 469.076C197.913 469.076 198.79 469.076 198.965 469.076C199.14 469.076 198.965 469.485 197.972 469.544L198.439 469.076Z" fill="#EF6852"/>
<path d="M628.673 196.476C627.892 195.235 627.033 194.045 626.103 192.912C625.519 192.153 624.818 191.393 624.117 190.575C610.564 176.32 587.899 180.877 564.24 192.737C528.84 210.322 491.279 244.441 479.011 255.95L478.018 256.885C473.985 260.079 468.967 261.772 463.823 261.676H462.48L456.229 261.091C454.068 261.091 451.789 261.091 449.57 260.741C445.539 260.741 441.508 260.332 437.478 260.273C431.636 260.273 426.262 260.273 420.654 260.273C408.37 260.785 396.134 262.112 384.027 264.246L382.566 264.538C377.251 265.531 371.876 266.583 366.677 267.985C363.932 268.745 361.186 269.329 358.499 270.147C355.812 270.965 354.293 271.432 352.19 272.075C349.153 273.068 346.349 274.061 343.194 275.171L338.229 277.041C334.081 278.618 330.051 280.371 326.02 282.24C322.295 284.058 318.005 284.341 314.073 283.031C310.141 281.72 306.88 278.919 304.99 275.23L303.763 273.36L302.128 269.972L294.417 254.139C291.321 247.537 287.933 239.825 285.421 233.048C285.421 233.048 285.421 232.581 285.421 232.289C285.421 231.997 285.012 231.179 284.837 230.595L284.486 229.601C284.486 229.017 284.077 228.375 283.96 227.849C281.156 216.807 290.444 214.879 295.643 214.704C306.859 214.704 320.529 216.69 320.529 216.69C335.256 217.094 349.941 214.94 363.932 210.322L429.883 188.238C429.883 188.238 432.512 135.015 350.963 165.921C347.501 167.236 343.677 167.236 340.215 165.921C309.514 156.257 277.867 149.911 245.815 146.992C214.737 144.363 180.798 145.59 152.349 156.222C145.729 158.706 140.131 163.334 136.447 169.37C132.763 175.405 131.204 182.5 132.02 189.523C138.134 244.22 165.646 294.273 208.545 328.745L213.394 332.309L237.753 350.537C249.507 359.133 263.073 364.924 277.411 367.465C291.749 370.007 306.478 369.232 320.47 365.201L493.732 315.308C500.169 313.467 506.142 310.281 511.257 305.96L631.944 204.48C631.323 201.643 630.216 198.936 628.673 196.476Z" fill="#EF8D56"/>
<path d="M558.749 107.031C557.165 104.03 555.41 101.124 553.492 98.3255L551.272 95.2291L550.22 93.9438C547.523 90.6804 544.616 87.5969 541.516 84.713L540.231 83.603L538.712 82.2592C538.405 82.0699 538.129 81.8333 537.895 81.5582L537.018 80.9155C505.999 58.4228 460.552 69.6983 434.615 93.9438C432.244 96.1925 429.274 97.7099 426.063 98.3142C422.851 98.9185 419.533 98.5842 416.507 97.3513C413.48 96.1183 410.873 94.039 408.998 91.3624C407.122 88.6857 406.058 85.5252 405.933 82.2592C404.648 45.5697 378.36 4.03116 341.266 0.467369C336.581 -0.156096 331.846 -0.312659 327.13 -1.33216e-05H324.443H323.508C322.607 0.231931 321.689 0.388268 320.762 0.467369L317.549 0.817905C312.574 2.16223 307.695 3.84083 302.945 5.84226L301.368 6.54334L297.922 8.29602C295.434 9.57661 293.033 11.0209 290.736 12.6193L287.582 14.8978L285.187 16.9426C282.841 19.0551 280.636 21.319 278.586 23.7196L277.768 24.7128C277.489 25.1273 277.177 25.5181 276.833 25.8813C276.669 25.9863 276.53 26.1258 276.425 26.2902C275.256 28.0429 274.322 29.3282 273.504 30.6719C271.54 33.8462 269.746 37.1225 268.129 40.487L266.319 44.9271C265.559 46.9135 264.917 48.8998 264.274 50.7694C262.825 55.4279 261.655 60.1685 260.769 64.9661C258.895 75.7666 258.073 86.7236 258.316 97.6829C258.316 106.329 259.017 115.21 260.126 125.667C260.314 127.323 261.058 128.865 262.235 130.043C263.413 131.221 264.956 131.965 266.611 132.152C284.087 134.453 301.423 137.71 318.542 141.909C326.137 143.837 333.03 145.706 339.514 147.751L341.15 148.219C345.507 148.838 349.95 148.335 354.059 146.758C390.161 134.664 415.864 136.651 432.746 152.892C437.367 157.463 441.005 162.93 443.436 168.958C445.867 174.986 447.04 181.448 446.882 187.946C446.758 191.638 445.503 195.203 443.289 198.16C441.074 201.116 438.006 203.322 434.498 204.48L404.823 214.412L392.147 218.793C368.313 227.148 343.603 235.736 318.25 233.457L313.402 233.048C310.423 232.756 307.56 232.406 304.406 232.23C304.216 232.172 304.012 232.172 303.822 232.23C303.707 233.128 303.849 234.039 304.231 234.86L304.99 236.729L306.217 239.767C308.495 244.85 310.948 249.816 313.402 254.84L314.687 257.411C315.096 258.287 315.505 259.163 315.972 260.04C316.44 260.916 316.615 261.267 316.907 261.851H317.316L318.484 265.239C318.57 265.443 318.697 265.626 318.858 265.777C319.019 265.928 319.21 266.043 319.419 266.116C320.878 266.436 322.404 266.185 323.683 265.415C324.248 265.152 324.834 264.937 325.436 264.772C328.765 263.311 332.387 261.792 336.009 260.39C351.497 254.603 367.524 250.375 383.852 247.771C401.615 244.86 419.595 243.473 437.594 243.623C445.188 243.623 452.607 244.09 459.734 244.733C461.076 244.816 462.422 244.816 463.765 244.733C467.07 244.027 470.025 242.188 472.118 239.533L473.403 238.365C495.018 217.756 518.886 199.647 544.554 184.382C550.332 181.041 554.988 176.059 557.931 170.069C561.161 163.698 563.575 156.946 565.116 149.971C566.635 141.863 566.635 133.542 565.116 125.434C563.959 119.007 561.811 112.798 558.749 107.031Z" fill="#EF6852"/>
</g>
<defs>
<clipPath id="clip0_130_10954">
<rect width="683" height="626" fill="white"/>
</clipPath>
</defs>
</svg>
