<svg width="232" height="115" viewBox="0 0 232 115" fill="none" xmlns="http://www.w3.org/2000/svg">
<path d="M108.39 100.109C111.118 103.847 114.82 106.766 119.093 108.547C123.365 110.328 128.044 110.903 132.62 110.209C153.82 107.419 154.62 89.2986 154.17 85.9386C152.91 76.3486 149.85 73.0687 145.38 71.0087C136.56 66.9287 133.02 73.3585 127.53 73.3485C122.04 73.3385 115.25 71.6785 108.32 77.3485C102.19 82.3485 104.22 94.5085 108.39 100.109Z" fill="#EF6852"/>
<path d="M127.6 72.4886C127.1 70.4886 124.37 63.6485 125.46 62.6585C126.55 61.6685 127.91 61.8487 127.98 62.3287C128.05 62.8087 128.92 72.3287 128.56 72.3287L127.6 72.4886Z" fill="#98D3A9"/>
<path d="M127.28 71.8584C125.28 71.7484 122.02 69.8584 118.8 70.4184C115.58 70.9784 112.07 73.8584 112.07 73.8584C112.07 73.8584 118.4 71.0786 119.44 71.5486C120.48 72.0186 122.79 72.9384 124.22 73.5984C125.65 74.2584 127.28 71.8584 127.28 71.8584Z" fill="#98D3A9"/>
<path d="M128.891 71.5887C129.801 71.0987 132.771 67.7587 134.541 67.3087C137.611 66.5487 140.341 68.7386 141.541 69.4386C143.205 70.2717 144.965 70.8997 146.781 71.3087C146.781 71.3087 142.081 72.6587 141.151 72.0487C140.221 71.4387 138.011 70.3387 136.811 70.5487C134.239 71.2065 131.747 72.1453 129.381 73.3485L128.891 71.5887Z" fill="#98D3A9"/>
<path d="M125.82 72.3583C124.46 73.1483 122.68 75.3583 120.62 77.3583C119.334 78.7746 118.584 80.5968 118.5 82.5085C118.5 82.5085 123.96 77.8784 124.89 76.9684C125.759 75.8061 126.391 74.4845 126.75 73.0785C126.846 72.8232 126.87 72.5465 126.82 72.2785C126.6 71.7685 125.82 72.3583 125.82 72.3583Z" fill="#98D3A9"/>
<path d="M125.71 71.5186C124.89 72.4086 126.12 76.4585 127.16 77.9085C128.2 79.3585 128.33 84.9085 128.33 84.9085C128.33 84.9085 130.85 80.9084 130.53 79.3884C130.21 77.8684 128.78 75.3885 128.91 74.4785C129.04 73.5685 130.6 71.9286 130.19 71.2686C129.78 70.6086 126.23 70.9486 125.71 71.5186Z" fill="#98D3A9"/>
<path d="M229.72 77.7084C209.52 53.2384 203.47 83.6185 188.09 66.0085C186.94 64.6885 184.67 63.9486 184.24 66.3286C178.35 67.8186 185.88 70.4684 187.24 78.4484C188.41 84.1184 184.95 90.6183 184.54 96.6083C183.47 112.128 202.16 117.958 213.78 113.118C232.9 105.218 234.31 85.9884 229.72 77.7084Z" fill="#FFD9A6"/>
<path d="M210.98 90.0486C200.53 80.0986 219.15 99.5885 219.66 103.929C218.86 99.2185 214.59 93.9686 210.98 90.0486Z" fill="#FFC988"/>
<path d="M198.01 97.8583C193.69 91.8583 199.83 103.858 203.24 105.908C202.84 103.708 199.47 100.678 198.01 97.8583Z" fill="#FFC988"/>
<path d="M224.06 81.8086C229.34 87.0086 221.24 76.2186 217.53 74.8086C218.31 76.8686 222.13 79.2786 224.06 81.8086Z" fill="#FFC988"/>
<path d="M220.35 84.6384C216.62 81.3884 222.35 88.2384 224.23 89.6384C223.97 88.1284 221.88 86.3584 220.35 84.6384Z" fill="#FFC988"/>
<path d="M202.21 90.7886C198.93 87.0886 203.74 94.6186 205.4 96.2886C205.35 94.7186 203.47 92.6886 202.21 90.7886Z" fill="#FFC988"/>
<path d="M33.3202 87.7186C-4.67978 81.7186 -6.11979 68.3987 11.3202 77.7887C18.9402 80.9287 27.3202 83.1786 33.8302 87.2086" fill="#98D3A9"/>
<path d="M34.4704 88.2186C7.89045 84.8786 13.4705 89.1385 17.7505 89.1185C23.9205 89.7885 30.5504 88.4986 36.9104 88.9186" fill="#98D3A9"/>
<path d="M99.47 102.268C101.72 98.4385 53.21 78.5484 38.66 79.6784C28.59 80.4584 25.02 92.0183 27.14 95.3883C32.19 103.388 97.13 106.218 99.47 102.268Z" fill="#EF8D56"/>
<path d="M182.18 42.7485C182.18 42.9085 182.18 42.9484 182.18 42.8584C182.192 42.8226 182.192 42.7843 182.18 42.7485Z" fill="#FFBD00"/>
<path d="M149.47 42.8584C149.47 42.9484 149.47 42.9085 149.52 42.7485C149.504 42.762 149.491 42.7788 149.483 42.7979C149.474 42.8169 149.47 42.8375 149.47 42.8584Z" fill="#FFBD00"/>
<path d="M167.32 58.0285C201.595 58.0285 229.38 53.9811 229.38 48.9885C229.38 43.9958 201.595 39.9485 167.32 39.9485C133.045 39.9485 105.26 43.9958 105.26 48.9885C105.26 53.9811 133.045 58.0285 167.32 58.0285Z" fill="#333333"/>
<path d="M213.7 4.66836C213.458 4.33369 213.128 4.07196 212.747 3.91152C212.367 3.75108 211.949 3.69815 211.54 3.75844C211.761 3.30043 211.822 2.78165 211.714 2.28481C211.606 1.78798 211.336 1.34151 210.945 1.01626C210.554 0.691005 210.066 0.505816 209.558 0.48989C209.05 0.473964 208.551 0.628222 208.14 0.928366C207.14 1.66837 207.65 4.1083 207.65 4.1083L199.56 10.2384C200.33 11.1884 201.12 12.1285 201.88 13.0885L210.02 7.3583C210.02 7.3583 212.19 8.5983 213.2 7.8583C213.688 7.50046 214.014 6.9643 214.108 6.3666C214.202 5.7689 214.055 5.15829 213.7 4.66836Z" fill="#F9E5D3"/>
<path d="M202.79 10.0386C202.676 10.0052 202.571 9.94522 202.484 9.86378C202.397 9.78235 202.331 9.68177 202.29 9.56984C202.249 9.45791 202.235 9.33783 202.249 9.2195C202.263 9.10117 202.305 8.9877 202.371 8.88844C202.506 8.66522 202.577 8.40932 202.577 8.14845C202.577 7.88758 202.506 7.63169 202.371 7.40846C202.108 7.0747 201.757 6.82231 201.357 6.68068C200.956 6.53904 200.524 6.51394 200.111 6.60841C199.284 6.80007 198.489 7.11009 197.751 7.52858C194.561 9.02858 190.98 9.42859 187.48 9.78859C183.98 10.1486 180.4 10.4985 177.17 11.9085C173.94 13.3185 171.05 15.9785 170.32 19.4285C169.9 21.6855 170.308 24.0186 171.47 25.9986C172.638 27.9597 174.309 29.5723 176.311 30.6685C178.574 31.9772 181.158 32.6302 183.772 32.5542C186.385 32.4783 188.926 31.6765 191.111 30.2385C195.84 26.8785 197.741 20.5986 202.301 17.0186C203.255 16.3655 204.161 15.6434 205.01 14.8584C205.421 14.4523 205.726 13.9526 205.901 13.4021C206.075 12.8516 206.113 12.2668 206.01 11.6985C205.887 11.2592 205.626 10.871 205.267 10.5903C204.907 10.3097 204.467 10.1513 204.01 10.1384C203.601 10.1527 203.192 10.1193 202.79 10.0386Z" fill="#E27640"/>
<path d="M219.47 42.4685C219.448 43.3833 219.223 44.2816 218.81 45.0984C218.471 45.7755 218.048 46.4073 217.55 46.9785C216.719 47.9337 215.691 48.6968 214.535 49.2148C213.38 49.7328 212.126 49.9934 210.86 49.9785H123.12C121.67 49.9895 120.26 49.5047 119.123 48.6045C117.987 47.7042 117.192 46.4425 116.87 45.0285C116.87 45.0285 116.87 45.0285 116.87 44.9685C116.595 43.7987 116.683 42.5727 117.123 41.4543C117.562 40.3359 118.332 39.3781 119.33 38.7085C120.096 38.2594 120.701 37.5807 121.06 36.7685C121.15 36.5785 121.23 36.3885 121.32 36.2085C128.59 20.1385 147.16 10.2085 164.65 7.71847C174.65 6.28847 185.13 7.47859 194.11 12.0886C203.09 16.6986 208.05 25.4986 213.17 34.0886L213.37 34.4284C215.12 37.3784 219.57 38.2785 219.47 42.4685Z" fill="#EF8D56"/>
<path d="M144.02 45.2185C143.832 45.2702 143.636 45.281 143.443 45.25C143.251 45.219 143.067 45.1469 142.905 45.0388C142.743 44.9307 142.606 44.789 142.503 44.6233C142.401 44.4576 142.335 44.272 142.31 44.0786C142.196 42.6352 142.524 41.191 143.25 39.9385C144.31 38.2715 145.536 36.7169 146.91 35.2986C148.047 33.747 149.393 32.3604 150.91 31.1785C152.65 30.0485 154.76 29.6486 156.66 28.8186C158.56 27.9886 160.35 26.5086 160.58 24.5086C160.593 24.3557 160.646 24.2089 160.734 24.0835C160.823 23.9581 160.943 23.8587 161.083 23.7954C161.223 23.7322 161.377 23.7073 161.529 23.7236C161.682 23.74 161.827 23.797 161.95 23.8884C162.314 24.239 162.553 24.6992 162.63 25.1985C163.54 28.8236 163.076 32.6572 161.328 35.9605C159.579 39.2637 156.67 41.8029 153.16 43.0886C150.47 44.0986 146.98 44.4185 144.02 45.2185Z" fill="#E27640"/>
<path d="M224.83 15.7587C224.55 15.456 224.192 15.2355 223.796 15.121C223.399 15.0064 222.979 15.0021 222.58 15.1085C222.712 14.7164 222.736 14.2963 222.65 13.8917C222.564 13.4871 222.371 13.1131 222.09 12.8087C221.678 12.3675 221.107 12.1081 220.503 12.0875C219.9 12.0669 219.312 12.2866 218.87 12.6986C217.95 13.5486 218.75 15.9186 218.75 15.9186L211.44 22.9186C212.32 23.7686 213.21 24.6086 214.09 25.4686L221.49 18.8187C221.49 18.8187 223.79 19.8186 224.71 18.9386C225.141 18.5288 225.395 17.9669 225.417 17.3729C225.439 16.7789 225.229 16.1998 224.83 15.7587Z" fill="#F9E5D3"/>
<path d="M214.63 22.3784C214.513 22.3568 214.403 22.3084 214.307 22.2368C214.212 22.1651 214.135 22.0722 214.081 21.9656C214.028 21.8589 214 21.7413 214 21.6221C214 21.5028 214.027 21.3853 214.08 21.2785C214.185 21.0417 214.224 20.7808 214.193 20.5237C214.161 20.2665 214.06 20.0228 213.9 19.8186C213.601 19.5168 213.223 19.3058 212.809 19.2102C212.394 19.1146 211.962 19.1384 211.56 19.2785C210.762 19.5743 210.009 19.978 209.32 20.4785C206.32 22.3385 202.83 23.1584 199.39 23.9284C195.95 24.6984 192.45 25.4685 189.39 27.2485C186.33 29.0285 183.8 32.0185 183.48 35.5285C183.325 37.8162 184.003 40.0827 185.39 41.9084C186.784 43.7233 188.638 45.1321 190.76 45.9885C193.164 47.0209 195.808 47.3638 198.395 46.9787C200.982 46.5937 203.412 45.4961 205.41 43.8086C209.71 39.9186 210.85 33.4584 214.96 29.3584C215.835 28.6043 216.647 27.7817 217.39 26.8984C217.759 26.4507 218.012 25.9193 218.127 25.3508C218.242 24.7824 218.216 24.1943 218.05 23.6384C217.877 23.2164 217.572 22.8613 217.181 22.6255C216.791 22.3896 216.335 22.2857 215.88 22.3286C215.467 22.3906 215.048 22.4072 214.63 22.3784Z" fill="#E27640"/>
<path d="M45.8406 11.2986C42.8406 18.9286 51.8406 23.1386 58.0106 23.9986C59.4106 24.9986 61.0106 26.1585 62.8606 26.2185C64.9206 26.5485 66.5306 25.2885 68.4506 24.9085C71.4909 25.5262 74.6521 25.0179 77.3454 23.478C80.0387 21.9382 82.0806 19.472 83.0906 16.5386C86.2206 7.12859 74.0906 4.89858 67.8606 2.02858C65.4106 1.38858 63.0606 2.2285 60.5406 2.4485C53.0706 1.5685 48.4706 5.6386 45.8406 11.2986Z" fill="#5E4B47"/>
<path d="M71.8103 21.6685C71.9103 22.3185 73.5203 21.5385 72.0303 21.2085C71.9203 21.3185 71.7703 21.2185 71.8103 21.6685Z" fill="#4F3E3B"/>
<path d="M50.5902 17.6284C50.5902 18.1484 53.4102 16.7485 52.1502 15.2685C51.0102 14.7785 49.6302 16.6084 50.5902 17.6284Z" fill="#4F3E3B"/>
<path d="M66.7205 8.10838C67.8805 8.86838 68.8505 5.82859 66.6505 6.32859C66.0805 6.84859 65.9705 7.41838 66.7205 8.10838ZM67.0406 6.94847C67.1106 6.94847 67.1005 6.83855 67.1905 7.02855C67.0936 7.03824 67.0041 7.08466 66.9405 7.15843C66.9636 7.08398 66.9973 7.01329 67.0406 6.94847Z" fill="#4F3E3B"/>
<path d="M56.5303 7.21851C56.6403 8.07851 58.8903 10.5785 58.2703 7.4485C58.3203 6.7385 55.9103 4.90851 56.5303 7.21851Z" fill="#4F3E3B"/>
<path d="M76.1404 16.0887C75.9704 17.2187 78.8905 17.1784 78.7405 14.3484C78.6105 14.3384 77.2104 13.4387 76.1404 16.0887ZM77.2604 15.4986C77.4404 15.3286 77.2605 15.4985 77.9105 14.9385C77.6756 15.4002 77.3325 15.7981 76.9105 16.0984C76.9849 15.8766 77.104 15.6725 77.2604 15.4986Z" fill="#4F3E3B"/>
<path d="M64.4704 17.4784C63.7904 18.1684 64.8704 19.3883 65.2004 17.4083C65.1504 17.1483 64.7604 16.9584 64.4704 17.4784Z" fill="#6D5953"/>
<path d="M57.5904 19.0786C58.4104 22.2886 60.8404 17.8386 57.8804 17.8286C57.7662 17.8785 57.6652 17.9544 57.5856 18.0503C57.5059 18.1462 57.4497 18.2592 57.4216 18.3806C57.3934 18.502 57.394 18.6284 57.4233 18.7495C57.4526 18.8707 57.5098 18.9835 57.5904 19.0786Z" fill="#6D5953"/>
<path d="M62.0902 13.9784C61.8502 14.7384 64.8502 13.2985 64.0902 10.7985C63.1302 10.3285 61.6702 12.4384 62.0902 13.9784Z" fill="#6D5953"/>
<path d="M73.6402 12.2185C74.1402 12.5485 75.2603 11.4284 74.1203 10.8884C73.9652 10.8875 73.8137 10.9347 73.6866 11.0235C73.5594 11.1122 73.4629 11.238 73.4103 11.3838C73.3576 11.5296 73.3515 11.6882 73.3927 11.8377C73.4339 11.9871 73.5203 12.1202 73.6402 12.2185Z" fill="#6D5953"/>
<path d="M62.54 34.7786C67.3 25.0986 55.9599 18.5986 48.0099 16.7786C46.2899 15.3686 44.3899 13.6187 41.8999 13.3287C39.2499 12.6787 36.9999 14.1385 34.4399 14.4185C30.5253 13.2744 26.3284 13.5907 22.6294 15.3087C18.9305 17.0266 15.9812 20.0294 14.3299 23.7586C9.18994 35.7586 24.82 39.9986 32.67 44.4486C35.8 45.5586 38.98 44.7286 42.31 44.7186C51.99 46.7086 58.53 41.8886 62.54 34.7786Z" fill="#6D5953"/>
<path d="M29.6905 18.2987C29.6205 17.4387 27.4305 18.2985 29.3405 18.8885C29.4705 18.7485 29.6905 18.8887 29.6905 18.2987Z" fill="#5E4B47"/>
<path d="M57.02 25.9484C57.11 25.2784 53.23 26.7884 54.71 28.8684C56.15 29.6384 58.16 27.3884 57.02 25.9484Z" fill="#5E4B47"/>
<path d="M34.84 36.6283C33.41 35.4983 31.84 39.3784 34.73 38.9584C35.54 38.3484 35.74 37.6083 34.84 36.6283ZM34.28 38.1083C34.2 38.1583 34.2 38.2484 34.1 37.9884C34.2306 37.9809 34.3544 37.9279 34.45 37.8385C34.4081 37.9371 34.3507 38.028 34.28 38.1083Z" fill="#5E4B47"/>
<path d="M48.0903 38.8984C48.0303 37.7584 45.3703 34.2384 45.8303 38.3984C45.6903 39.3584 48.6403 42.0184 48.0903 38.8984Z" fill="#5E4B47"/>
<path d="M23.38 25.1385C23.74 23.6685 19.91 23.3985 19.79 27.1385C19.96 27.1485 21.69 28.4885 23.38 25.1385ZM21.85 25.7786C21.6 25.9786 21.92 25.8285 20.94 26.4485C21.3137 25.8645 21.821 25.3778 22.42 25.0286C22.2864 25.3168 22.092 25.5727 21.85 25.7786Z" fill="#5E4B47"/>
<path d="M38.8003 24.6084C39.8003 23.7684 38.4903 22.0584 37.8003 24.6084C37.9003 24.9684 38.3803 25.2184 38.8003 24.6084Z" fill="#826D68"/>
<path d="M48.0103 23.2785C47.2903 18.9785 43.6203 24.5484 47.5003 24.8784C47.6541 24.8248 47.7934 24.7361 47.907 24.6194C48.0206 24.5026 48.1056 24.361 48.155 24.2058C48.2045 24.0506 48.2171 23.886 48.192 23.7251C48.1669 23.5641 48.1047 23.4113 48.0103 23.2785Z" fill="#826D68"/>
<path d="M41.5603 29.4584C41.9503 28.4584 37.8603 30.0384 38.5603 33.3984C39.7903 34.1184 41.9303 31.5184 41.5603 29.4584Z" fill="#826D68"/>
<path d="M26.2204 30.5386C25.6104 30.0586 24.0104 31.3985 25.4504 32.2385C25.6521 32.2501 25.8526 32.2003 26.0255 32.0957C26.1983 31.9911 26.3355 31.8369 26.4188 31.6528C26.5022 31.4688 26.5278 31.2638 26.4924 31.0649C26.457 30.866 26.3622 30.6825 26.2204 30.5386Z" fill="#826D68"/>
</svg>
