<svg width="76" height="77" viewBox="0 0 76 77" fill="none" xmlns="http://www.w3.org/2000/svg">
<path d="M54.6401 69.0686C54.6401 69.0686 54.6401 76.0686 27.5201 76.0686C2.52014 76.0686 0.410156 69.0686 0.410156 69.0686V8.14868H54.6401V69.0686Z" fill="#333333"/>
<path d="M27.5201 15.4885C42.4926 15.4885 54.6302 12.2023 54.6302 8.1485C54.6302 4.09473 42.4926 0.808472 27.5201 0.808472C12.5477 0.808472 0.410156 4.09473 0.410156 8.1485C0.410156 12.2023 12.5477 15.4885 27.5201 15.4885Z" fill="#444444"/>
<path d="M27.84 13.5285C41.4262 13.5285 52.44 10.9944 52.44 7.86847C52.44 4.74254 41.4262 2.2085 27.84 2.2085C14.2538 2.2085 3.23999 4.74254 3.23999 7.86847C3.23999 10.9944 14.2538 13.5285 27.84 13.5285Z" fill="#333333"/>
<path d="M64.47 12.9983C74 12.5283 75.34 22.7783 75.19 24.9983C75.1455 27.9818 74.5382 30.9305 73.4 33.6888C70.21 40.2988 61.74 43.2987 59.08 50.1487C58.6945 51.5868 58.123 52.9683 57.38 54.2586C56.51 55.4586 54.73 56.2584 53.51 55.3684C53.1474 55.0536 52.8536 54.6673 52.6472 54.2337C52.4407 53.8001 52.3259 53.3284 52.3101 52.8484C51.991 50.1613 52.659 47.4498 54.19 45.2185C55.6188 43.4413 57.2237 41.8131 58.98 40.3587C62.77 36.7287 66.98 33.7185 68.64 28.7185C69.36 26.4985 70.26 19.8983 64.7 19.0183C61.41 18.4983 59.45 19.7688 58.39 21.7088C57.55 23.2488 57.89 25.1984 57.15 26.7884C56.7896 27.527 56.2155 28.1403 55.5023 28.5486C54.789 28.957 53.9695 29.1416 53.15 29.0784C52.787 29.067 52.437 28.9411 52.15 28.7185C51.9004 28.4776 51.7206 28.1736 51.63 27.8387C50.33 24.0487 52.63 21.1488 54.63 18.2088C56.63 15.2688 60.81 13.2183 64.47 12.9983Z" fill="#444444"/>
<path d="M27.16 50.9083C26.8717 51.1325 26.5142 51.2493 26.1492 51.2384C25.7842 51.2274 25.4344 51.0893 25.16 50.8483C21.48 47.7283 17.84 44.3982 15.87 40.0182C14.96 38.0182 14.52 35.3786 16.5 33.9586C16.7726 33.759 17.0768 33.6067 17.4 33.5084C18.1491 33.3094 18.9322 33.2736 19.6964 33.4029C20.4606 33.5323 21.1881 33.8239 21.83 34.2584C23.622 35.3339 25.0075 36.9727 25.77 38.9186C26.4765 37.1999 27.5282 35.6441 28.86 34.3483C29.5265 33.6859 30.3751 33.2373 31.2976 33.0592C32.2202 32.8811 33.1749 32.9816 34.04 33.3483C34.669 33.7397 35.1916 34.2805 35.5614 34.9225C35.9313 35.5644 36.1369 36.2879 36.16 37.0284C36.1886 38.5103 35.8845 39.9795 35.27 41.3282C33.67 45.3682 30.6 48.3283 27.16 50.9083Z" fill="#EF6852"/>
</svg>
