<svg width="138" height="76" viewBox="0 0 138 76" fill="none" xmlns="http://www.w3.org/2000/svg">
<path opacity="0.3" d="M41.1901 28.6287C41.0717 29.4461 40.6931 30.2033 40.1101 30.7884C39.5283 31.2508 38.7899 31.4698 38.0501 31.3988C37.2002 31.3369 36.3985 30.9801 35.7833 30.3905C35.1681 29.8008 34.778 29.0153 34.6801 28.1688C34.3601 23.4188 42.3601 23.2187 41.1901 28.6287Z" fill="white"/>
<path d="M7.97009 52.1287C7.97009 63.3887 35.3601 75.7585 69.1501 75.7585C102.94 75.7585 130.32 63.3887 130.32 52.1287C130.32 40.8687 102.93 34.9587 69.1501 34.9587C35.3701 34.9587 7.97009 40.8587 7.97009 52.1287Z" fill="#444444"/>
<path d="M69.1401 69.2585C107.099 69.2585 137.87 59.5565 137.87 47.5885C137.87 35.6204 107.099 25.9185 69.1401 25.9185C31.1816 25.9185 0.410156 35.6204 0.410156 47.5885C0.410156 59.5565 31.1816 69.2585 69.1401 69.2585Z" fill="#333333"/>
<path d="M123.95 34.3988C126.95 37.9388 127.65 43.7788 124.53 47.1488C122.89 48.9088 120.53 49.7189 118.28 50.4589L101.92 55.8686C95.7301 57.9186 89.5101 59.9787 83.0801 60.9887C76.4144 61.8604 69.6828 62.1182 62.9701 61.7587C49.6901 61.392 36.4201 60.622 23.1601 59.4486C21.3299 59.3883 19.5193 59.0511 17.7901 58.4486C14.7901 57.2186 12.7001 54.5487 10.7001 51.9887C9.58108 50.7437 8.72708 49.2841 8.19005 47.6986C7.44005 44.9286 8.6901 41.9089 10.6801 39.9189C12.7683 38.0404 15.2331 36.6289 17.9101 35.7787C25.2479 33.1937 32.7473 31.0925 40.3601 29.4887C52.0562 26.173 64.2214 24.8213 76.3601 25.4887C85.6601 25.6587 94.9701 25.8387 104.25 26.4887C110.84 26.9487 119.47 28.9888 123.95 34.3988Z" fill="#FFD9A6"/>
<path d="M8.10007 46.2185C8.6369 47.807 9.49085 49.2697 10.6101 50.5183C12.6101 53.0783 14.74 55.7485 17.7 56.9685C19.4267 57.5879 21.2373 57.9417 23.07 58.0183C36.3234 59.1916 49.5934 59.9617 62.88 60.3284C69.5931 60.6895 76.3252 60.4286 82.9901 59.5486C89.4201 58.5486 95.6401 56.4887 101.83 54.4387L118.19 49.0286C120.45 48.2786 122.8 47.4687 124.44 45.7087C125.766 44.2066 126.479 42.2616 126.44 40.2585C126.649 41.4838 126.586 42.7399 126.254 43.9377C125.922 45.1356 125.33 46.2459 124.52 47.1887C122.88 48.9487 120.52 49.7583 118.27 50.4983L101.91 55.9084C95.7201 57.9584 89.5 60.0186 83.07 61.0286C76.4078 61.9001 69.6795 62.1579 62.9701 61.7986C49.6834 61.4319 36.4101 60.6619 23.1501 59.4885C21.3198 59.4282 19.5093 59.091 17.7801 58.4885C14.7801 57.2585 12.69 54.5886 10.69 52.0286C9.57106 50.7836 8.71713 49.324 8.18009 47.7385C8.00724 47.0867 7.93638 46.412 7.97007 45.7385C8.0046 45.9008 8.048 46.061 8.10007 46.2185Z" fill="#EF8D56"/>
<path d="M12.85 40.7387C13.0763 40.15 13.1009 39.503 12.92 38.8988C12.8019 38.6868 12.6646 38.4859 12.51 38.2987C14.1692 37.2541 15.9403 36.3985 17.79 35.7484C25.1279 33.1634 32.6273 31.0627 40.2401 29.4589C51.9361 26.1432 64.1014 24.7915 76.2401 25.4589C85.5401 25.6289 94.85 25.7989 104.13 26.4589C109.55 26.8489 116.35 28.3186 121.13 31.8686C121.512 32.2306 121.87 32.6184 122.2 33.0287C124 35.2687 124.68 38.7487 122.99 41.0287C121.62 42.9087 119.17 43.4988 116.92 43.8788C109.92 45.0788 102.73 45.5588 96.07 48.0688C91.55 49.7688 87.21 52.4088 82.4 52.5888C77.59 52.7688 73.0001 50.4288 68.2401 49.5888C57.4901 47.5888 46.9 53.1386 36.05 54.3886C34.1104 54.6864 32.1317 54.612 30.22 54.1689C28.22 53.6289 26.5301 52.4687 24.6201 51.7587C21.7401 50.7087 18.47 50.6686 15.95 48.8886C14.7098 47.9672 13.759 46.7106 13.2098 45.2665C12.6605 43.8225 12.5357 42.2513 12.85 40.7387Z" fill="#EFAB7D"/>
<path d="M129.28 33.3684C131.93 37.1384 132.19 43.0186 128.8 46.1086C127.02 47.7386 124.61 48.3387 122.3 48.8987L105.54 52.8987C99.2001 54.4287 92.8301 55.9587 86.3401 56.4387C79.6401 56.9287 72.9202 56.2783 66.2402 55.5383C53.0268 54.0583 39.8668 52.1885 26.7601 49.9285C24.9392 49.6963 23.1631 49.1944 21.4902 48.4387C18.6502 46.9687 16.7401 44.1387 14.9601 41.4387C13.9549 40.0995 13.2273 38.5728 12.8201 36.9485C12.3001 34.1285 13.8201 31.2187 15.9501 29.3987C18.1885 27.7049 20.7625 26.508 23.5002 25.8884C31.0244 23.9145 38.6711 22.4412 46.3901 21.4783C53.1565 20.3121 59.997 19.6273 66.8602 19.4285C72.1308 19.4822 77.3949 19.816 82.6301 20.4285C91.8801 21.3785 101.14 22.3286 110.34 23.7786C116.83 24.8486 125.22 27.5984 129.28 33.3684Z" fill="#FFD9A6"/>
<path d="M12.85 35.4783C13.2572 37.1025 13.9848 38.6293 14.9901 39.9685C16.7801 42.6885 18.68 45.5185 21.53 46.9685C23.1957 47.7344 24.9702 48.2373 26.79 48.4587C39.89 50.7187 53.05 52.5886 66.27 54.0686C72.95 54.8086 79.6701 55.4585 86.3701 54.9685C92.8701 54.4885 99.24 52.9687 105.58 51.4387L122.33 47.4387C124.64 46.8887 127.05 46.2784 128.83 44.6584C130.282 43.2726 131.16 41.3915 131.29 39.3884C131.396 40.6259 131.229 41.8718 130.798 43.0369C130.368 44.2019 129.685 45.2576 128.8 46.1287C127.02 47.7587 124.61 48.3587 122.3 48.9187L105.54 52.9187C99.2 54.4487 92.83 55.9787 86.34 56.4587C79.64 56.9487 72.9201 56.2983 66.2401 55.5583C53.0267 54.0784 39.8667 52.2085 26.76 49.9485C24.9391 49.7163 23.163 49.2144 21.4901 48.4587C18.6501 46.9887 16.74 44.1587 14.96 41.4587C13.9548 40.1196 13.2272 38.5928 12.82 36.9685C12.7006 36.3084 12.6837 35.6338 12.77 34.9685C12.79 35.1185 12.82 35.2983 12.85 35.4783Z" fill="#EF8D56"/>
<path d="M18.0401 30.4484C18.3134 29.8794 18.3907 29.2359 18.2601 28.6183C18.1537 28.4008 18.0334 28.1905 17.9001 27.9884C19.6434 27.0878 21.4813 26.3834 23.3801 25.8883C30.9065 23.924 38.5526 22.4508 46.2701 21.4782C58.2121 19.1472 70.4577 18.8093 82.5101 20.4782C91.7601 21.4282 101.02 22.3685 110.22 23.8185C115.59 24.6685 122.22 26.6986 126.69 30.6286C127.052 31.0218 127.386 31.4394 127.69 31.8786C129.29 34.2586 129.69 37.7786 127.81 39.9386C126.28 41.6986 123.81 42.0785 121.52 42.2785C114.44 42.8885 107.24 42.7684 100.4 44.7184C95.7501 46.0384 91.2101 48.3085 86.4001 48.0885C81.5901 47.8685 77.2201 45.1583 72.5401 43.8883C61.9901 41.0183 50.9701 45.6484 40.0601 45.9884C38.1064 46.129 36.1438 45.8911 34.2801 45.2882C32.3701 44.5882 30.7301 43.2884 28.8901 42.4284C26.1101 41.1284 22.8901 40.8185 20.4801 38.8385C19.3139 37.8196 18.4643 36.4876 18.0318 35.0006C17.5994 33.5136 17.6023 31.9338 18.0401 30.4484Z" fill="#EFAB7D"/>
<path d="M112.47 20.4187C114.47 24.1787 114.66 30.0587 112.03 33.1687C110.671 34.5725 108.934 35.5519 107.03 35.9885L94.0301 40.0984C89.1201 41.6584 84.1901 43.2183 79.1801 43.7283C73.9933 44.0766 68.7835 43.8083 63.6601 42.9285C53.4601 41.5285 43.3001 39.725 33.1801 37.5183C31.7674 37.2853 30.4107 36.7902 29.1801 36.0583C26.9901 34.5984 25.5301 31.7783 24.1801 29.0583C23.3838 27.6686 22.8293 26.1538 22.5401 24.5784C22.3967 23.2162 22.5416 21.8394 22.9654 20.5369C23.3893 19.2344 24.0825 18.0353 25.0001 17.0183C26.6303 15.3742 28.639 14.1554 30.8501 13.4685C36.6153 11.4738 42.5354 9.95887 48.5501 8.93872C53.7487 7.75293 59.0433 7.03658 64.3701 6.79858C68.4485 6.84741 72.5184 7.18156 76.5501 7.79858C83.6901 8.69858 90.8401 9.59829 97.9301 10.9983C102.93 11.9683 109.39 14.6687 112.47 20.4187Z" fill="#FFD9A6"/>
<path d="M22.5501 23.1184C22.8437 24.6894 23.3979 26.2005 24.19 27.5886C25.55 30.2986 27.01 33.1286 29.19 34.5886C30.4375 35.3306 31.8158 35.8262 33.2501 36.0486C43.3568 38.2486 53.5134 40.0521 63.7201 41.4587C68.8424 42.3486 74.0534 42.617 79.2401 42.2585C84.2401 41.7585 89.1801 40.1884 94.0901 38.6384L107.09 34.5183C108.995 34.0839 110.733 33.1041 112.09 31.6985C113.27 30.184 113.945 28.3374 114.02 26.4187C114.346 28.615 113.794 30.8511 112.484 32.6438C111.174 34.4365 109.211 35.6413 107.02 35.9983L94.0201 40.1086C89.1101 41.6686 84.1801 43.2285 79.1701 43.7385C73.9833 44.0869 68.7735 43.8185 63.6501 42.9387C53.4501 41.5387 43.2934 39.7352 33.1801 37.5286C31.7454 37.3079 30.3668 36.8122 29.1201 36.0686C26.9301 34.6086 25.4701 31.7886 24.1201 29.0686C23.328 27.6769 22.7737 26.1628 22.4801 24.5886C22.4017 23.9243 22.4017 23.253 22.4801 22.5886C22.4701 22.7486 22.5301 22.9384 22.5501 23.1184Z" fill="#EF8D56"/>
<path d="M26.5901 18.0583C26.8019 17.4729 26.8637 16.8437 26.7701 16.2283C26.6932 16.0114 26.5996 15.8008 26.4901 15.5984C27.8075 14.7055 29.2364 13.9895 30.7401 13.4685C36.5052 11.4758 42.4254 9.96399 48.4401 8.94849C53.6391 7.76349 58.9334 7.04408 64.2601 6.79858C68.3349 6.85205 72.4012 7.18618 76.4301 7.79858C83.5801 8.69858 90.7301 9.59829 97.8201 10.9983C101.96 11.8183 107.1 13.8183 110.51 17.7283C110.786 18.1257 111.036 18.54 111.26 18.9685C112.48 21.3385 112.76 24.8586 111.26 27.0286C110.08 28.7986 108.15 29.1887 106.39 29.3987C100.93 30.0487 95.3901 29.9587 90.0701 31.9387C86.4701 33.2887 82.9501 35.5884 79.2401 35.3884C75.5301 35.1884 72.1601 32.4983 68.5601 31.2483C60.4201 28.4383 51.8901 33.1283 43.4601 33.5183C41.9368 33.6632 40.4014 33.43 38.9901 32.8386C37.5301 32.1486 36.2701 30.8385 34.8501 30.0085C32.7101 28.7285 30.1901 28.4385 28.3701 26.4685C27.443 25.3 26.7997 23.9322 26.4908 22.4729C26.1819 21.0136 26.2159 19.5023 26.5901 18.0583Z" fill="#EFAB7D"/>
<path d="M100.74 16.4687L98.7401 15.9687C98.6579 15.9462 98.588 15.8919 98.5458 15.8178C98.5036 15.7437 98.4926 15.6559 98.5151 15.5737C98.5376 15.4915 98.592 15.4215 98.666 15.3793C98.7401 15.3371 98.8279 15.326 98.9101 15.3486L100.91 15.8486C100.991 15.8719 101.059 15.9261 101.1 15.999C101.141 16.0719 101.152 16.1579 101.13 16.2387C101.107 16.3196 101.053 16.3883 100.981 16.4311C100.908 16.4739 100.822 16.4873 100.74 16.4687Z" fill="#D89559"/>
<path d="M84.4701 31.3484C84.2101 31.3484 83.95 31.3484 83.69 31.3484H83.3101H83.2201C83.1401 31.3484 83.2201 31.3484 83.2201 31.3484H83.0001C82.9581 31.367 82.9126 31.3763 82.8666 31.3757C82.8207 31.3752 82.7754 31.3651 82.7339 31.3455C82.6923 31.3259 82.6555 31.2976 82.6258 31.2625C82.5962 31.2273 82.5745 31.1861 82.5622 31.1418C82.5498 31.0976 82.5472 31.051 82.5544 31.0056C82.5616 30.9602 82.5784 30.9169 82.6039 30.8787C82.6293 30.8404 82.6626 30.8082 82.7016 30.7839C82.7407 30.7597 82.7845 30.7443 82.8301 30.7385C83.3854 30.6472 83.9472 30.6003 84.51 30.5984C84.5949 30.5984 84.6764 30.6321 84.7364 30.6921C84.7964 30.7522 84.8301 30.8338 84.8301 30.9187C84.8275 31.0028 84.793 31.0824 84.7336 31.1418C84.6741 31.2013 84.5941 31.236 84.51 31.2385L84.4701 31.3484Z" fill="#D89559"/>
<path d="M90.6401 24.9685H89.6401C89.5552 24.9685 89.4738 24.9348 89.4138 24.8748C89.3538 24.8147 89.3201 24.7336 89.3201 24.6487C89.3201 24.5638 89.3538 24.4821 89.4138 24.4221C89.4738 24.3621 89.5552 24.3284 89.6401 24.3284H90.6401C90.7249 24.3284 90.8064 24.3621 90.8664 24.4221C90.9264 24.4821 90.9601 24.5638 90.9601 24.6487C90.9601 24.7336 90.9264 24.8147 90.8664 24.8748C90.8064 24.9348 90.7249 24.9685 90.6401 24.9685Z" fill="#D89559"/>
<path d="M44.3501 25.9484L42.1501 26.3483C42.0681 26.3669 41.982 26.3534 41.9095 26.3107C41.837 26.2679 41.7835 26.1991 41.7601 26.1183C41.7385 26.0374 41.7495 25.9514 41.7906 25.8785C41.8317 25.8056 41.8998 25.7515 41.9802 25.7281L44.1802 25.3282C44.2622 25.3096 44.3483 25.3231 44.4208 25.3658C44.4933 25.4086 44.5467 25.4774 44.5701 25.5582C44.5917 25.6391 44.5809 25.7256 44.5397 25.7985C44.4986 25.8714 44.4305 25.925 44.3501 25.9484Z" fill="#D89559"/>
<path d="M63.13 11.5885L62.4301 11.3985C62.3906 11.3892 62.3534 11.3718 62.3207 11.3477C62.288 11.3237 62.2606 11.2934 62.2401 11.2584C62.2081 11.2036 62.1932 11.1406 62.1972 11.0772C62.2012 11.0139 62.2239 10.9533 62.2625 10.9029C62.3011 10.8525 62.3538 10.8144 62.4139 10.794C62.474 10.7737 62.5388 10.7716 62.6001 10.7882L63.3001 10.9683C63.3806 10.9915 63.4488 11.0453 63.4901 11.1183C63.5199 11.1989 63.5199 11.2876 63.4901 11.3683C63.4646 11.4494 63.4088 11.5177 63.3343 11.5587C63.2597 11.5997 63.1722 11.6104 63.0901 11.5885H63.13Z" fill="#D89559"/>
<path d="M61.92 26.6785L60.42 26.5486C60.3785 26.5486 60.3373 26.5404 60.2991 26.5242C60.2608 26.508 60.2261 26.4842 60.1972 26.4543C60.1683 26.4245 60.1456 26.3891 60.1307 26.3503C60.1157 26.3116 60.1087 26.2698 60.11 26.2283C60.11 26.1451 60.1423 26.0653 60.2002 26.0056C60.258 25.9459 60.3369 25.911 60.42 25.9084L61.92 26.0383C62.0049 26.0383 62.0863 26.0721 62.1463 26.1321C62.2063 26.1921 62.24 26.2738 62.24 26.3586C62.2375 26.4427 62.2029 26.5223 62.1435 26.5818C62.084 26.6413 62.0041 26.676 61.92 26.6785Z" fill="#D89559"/>
<path d="M47.2601 29.9587H46.7601C46.7177 29.9601 46.6755 29.9524 46.636 29.9368C46.5966 29.9212 46.5607 29.8979 46.5307 29.8679C46.5007 29.8379 46.4772 29.8019 46.4617 29.7625C46.4461 29.723 46.4387 29.6808 46.4401 29.6384C46.4392 29.553 46.4715 29.4706 46.5301 29.4084C46.595 29.3543 46.6757 29.3229 46.7601 29.3186H47.2601C47.3419 29.3212 47.42 29.353 47.4801 29.4084C47.5123 29.4375 47.538 29.4728 47.5556 29.5125C47.5732 29.5521 47.5823 29.5951 47.5823 29.6384C47.5823 29.6818 47.5732 29.7248 47.5556 29.7644C47.538 29.804 47.5123 29.8393 47.4801 29.8684C47.4191 29.9225 47.3415 29.9545 47.2601 29.9587Z" fill="#D89559"/>
<path d="M72.0201 17.8586H71.4701C71.4277 17.86 71.3854 17.8527 71.346 17.8372C71.3065 17.8216 71.2707 17.7978 71.2407 17.7678C71.2107 17.7378 71.1872 17.7018 71.1716 17.6624C71.156 17.6229 71.1487 17.5807 71.1501 17.5383C71.1487 17.4974 71.156 17.4566 71.1715 17.4187C71.187 17.3808 71.2104 17.3468 71.2401 17.3186C71.3006 17.2563 71.3832 17.2203 71.4701 17.2185H72.0701C72.1567 17.2213 72.239 17.2572 72.3001 17.3186C72.3298 17.3468 72.3531 17.3808 72.3686 17.4187C72.3841 17.4566 72.3914 17.4974 72.3901 17.5383C72.3915 17.5807 72.3842 17.6229 72.3686 17.6624C72.353 17.7018 72.3294 17.7378 72.2994 17.7678C72.2694 17.7978 72.2336 17.8216 72.1941 17.8372C72.1547 17.8527 72.1125 17.86 72.0701 17.8586H72.0201Z" fill="#D89559"/>
<path d="M100.14 31.9285L98.4701 32.1487C98.4285 32.1487 98.3874 32.14 98.3491 32.1238C98.3108 32.1076 98.2762 32.0843 98.2472 32.0544C98.2183 32.0246 98.1957 31.9892 98.1808 31.9504C98.1658 31.9117 98.1587 31.8699 98.1601 31.8284C98.16 31.7452 98.1924 31.6654 98.2502 31.6057C98.3081 31.546 98.3869 31.5111 98.4701 31.5085L100.14 31.2883C100.225 31.2883 100.306 31.3221 100.366 31.3821C100.426 31.4421 100.46 31.5238 100.46 31.6086C100.455 31.692 100.42 31.7703 100.361 31.8293C100.302 31.8884 100.223 31.9237 100.14 31.9285Z" fill="#F9DB91"/>
<path d="M99.9901 34.0584C99.2947 34.1883 98.5856 34.2287 97.88 34.1785C97.7959 34.176 97.716 34.1413 97.6566 34.0819C97.5971 34.0224 97.5626 33.9428 97.5601 33.8587C97.5601 33.7738 97.5937 33.6922 97.6537 33.6321C97.7138 33.5721 97.7951 33.5384 97.88 33.5384C98.5283 33.5905 99.1805 33.5572 99.82 33.4388C99.9008 33.4197 99.9858 33.4317 100.058 33.4725C100.13 33.5132 100.185 33.5795 100.21 33.6585C100.222 33.6992 100.226 33.7422 100.222 33.7845C100.217 33.8267 100.204 33.8674 100.184 33.9046C100.163 33.9418 100.136 33.9749 100.102 34.0013C100.069 34.0277 100.031 34.0469 99.9901 34.0584Z" fill="#F9DB91"/>
<path d="M94.1601 36.3185L90.2401 37.1886C89.8401 37.2786 89.6701 36.6585 90.0701 36.5685L93.9901 35.6984C94.3901 35.6184 94.5601 36.2285 94.1601 36.3185Z" fill="#F9DB91"/>
<path d="M93.6801 33.6888C92.9141 33.892 92.1215 33.9763 91.33 33.9388C91.2459 33.9363 91.166 33.9016 91.1066 33.8422C91.0471 33.7827 91.0125 33.7026 91.01 33.6185C91.0148 33.5352 91.0501 33.4568 91.1091 33.3978C91.1681 33.3388 91.2467 33.3035 91.33 33.2987C92.0643 33.337 92.7999 33.2594 93.51 33.0687C93.5507 33.0582 93.5931 33.0555 93.6348 33.0614C93.6764 33.0673 93.7165 33.0815 93.7527 33.1029C93.7889 33.1243 93.8205 33.1523 93.8458 33.1859C93.8711 33.2195 93.8895 33.258 93.9 33.2987C93.9121 33.3388 93.916 33.3807 93.9114 33.4222C93.9068 33.4638 93.8938 33.504 93.8733 33.5404C93.8527 33.5768 93.825 33.6087 93.7918 33.6342C93.7586 33.6596 93.7206 33.6785 93.6801 33.6888Z" fill="#F9DB91"/>
<path d="M81.7701 39.2187C81.5578 39.0792 81.3337 38.9589 81.1002 38.8588H81.0201L80.8301 38.7885C80.7099 38.7446 80.5861 38.7116 80.4602 38.6889C80.379 38.6634 80.3108 38.6072 80.2698 38.5326C80.2289 38.4581 80.2182 38.3707 80.2402 38.2885C80.2635 38.2081 80.3174 38.1402 80.3903 38.099C80.4632 38.0579 80.5493 38.0471 80.6301 38.0688C81.1632 38.1942 81.6707 38.4109 82.1301 38.7089C82.1712 38.7272 82.2079 38.7536 82.2379 38.787C82.2679 38.8204 82.2905 38.86 82.3043 38.9027C82.3181 38.9455 82.3228 38.9904 82.3179 39.0351C82.3131 39.0797 82.299 39.1232 82.2764 39.162C82.2538 39.2008 82.2233 39.2344 82.1868 39.2607C82.1504 39.2869 82.1089 39.3052 82.0649 39.3144C82.0209 39.3235 81.9755 39.323 81.9316 39.3134C81.8877 39.3038 81.8464 39.2853 81.8102 39.2587L81.7701 39.2187Z" fill="#F9DB91"/>
<path d="M74.11 35.5983L72.8 35.1383C72.7184 35.1128 72.6494 35.0577 72.6068 34.9836C72.5642 34.9094 72.551 34.8218 72.57 34.7384C72.5955 34.6573 72.6513 34.589 72.7258 34.548C72.8004 34.507 72.8879 34.4963 72.97 34.5182L74.28 34.9884C74.3604 35.0118 74.4285 35.0654 74.4696 35.1383C74.5107 35.2112 74.5217 35.2977 74.5001 35.3786C74.4897 35.4191 74.4712 35.4572 74.4458 35.4904C74.4204 35.5236 74.3884 35.5509 74.352 35.5714C74.3155 35.592 74.2753 35.6054 74.2338 35.61C74.1922 35.6146 74.1501 35.6104 74.11 35.5983Z" fill="#F9DB91"/>
<path d="M74.6301 38.6488C73.7824 38.8369 72.9182 38.9408 72.0501 38.9589C71.9652 38.9589 71.8838 38.9252 71.8238 38.8652C71.7638 38.8051 71.7301 38.7235 71.7301 38.6386C71.7301 38.5537 71.7638 38.4725 71.8238 38.4125C71.8838 38.3525 71.9652 38.3188 72.0501 38.3188C72.8614 38.3073 73.6692 38.2101 74.4601 38.0287C74.5409 38.0071 74.627 38.0179 74.7 38.059C74.7729 38.1001 74.8268 38.1681 74.8501 38.2485C74.872 38.3306 74.8614 38.4186 74.8204 38.4931C74.7794 38.5676 74.7112 38.6234 74.6301 38.6488Z" fill="#F9DB91"/>
<path d="M100.47 24.7482C100.44 25.6251 100.612 26.4973 100.97 27.298C101.329 28.0987 101.866 28.8067 102.54 29.3683C103.8 30.5783 105.35 31.4485 106.71 32.5485C108.55 34.0623 110.019 35.9762 111.007 38.1442C111.995 40.3122 112.475 42.6767 112.41 45.0583C112.429 46.6715 111.954 48.2523 111.05 49.5885C110.589 50.2464 109.942 50.7525 109.193 51.0426C108.443 51.3328 107.624 51.3939 106.84 51.2184C104.14 50.4284 103.71 46.8283 101.98 44.6183C99.7901 41.7883 95.2401 41.0386 93.9801 37.6686C93.7651 36.7443 93.498 35.8328 93.1801 34.9386C92.2501 33.0986 89.9101 32.5783 87.8701 32.3083C85.0801 31.9483 82.2901 31.6584 79.4901 31.4684C75.8701 31.2184 72.1501 31.1185 68.7201 32.2985C65.2901 33.4785 62.1701 36.1584 61.4401 39.7184C60.8301 42.7184 61.7401 46.3986 59.4401 48.3786C58.4401 49.2686 56.9401 49.5185 55.8201 50.2985C53.1801 52.1185 53.1901 55.9485 51.7601 58.8185C51.622 59.1876 51.4002 59.5193 51.1122 59.7882C50.8242 60.0572 50.4778 60.2558 50.1001 60.3683C48.9201 60.5683 48.0201 59.3682 47.5701 58.2282C46.7441 56.1323 46.4136 53.8742 46.6045 51.6295C46.7953 49.3849 47.5022 47.2146 48.6701 45.2882C49.2695 44.5488 49.6195 43.6391 49.6701 42.6886C49.5401 41.3986 48.2101 40.6385 47.2101 39.8185C46.0981 38.8898 45.2548 37.6806 44.7677 36.3161C44.2807 34.9516 44.1675 33.4812 44.4401 32.0583C41.247 31.335 38.1297 30.3103 35.1301 28.9982C34.0365 28.6481 33.0903 27.9446 32.4401 26.9982C31.7001 25.6182 32.3001 23.8586 33.3001 22.6486C34.3001 21.4386 35.6501 20.5684 36.7201 19.4284C37.1453 19.0374 37.43 18.5173 37.5301 17.9484C37.6601 16.5484 35.9901 15.7282 34.6001 15.4782C33.2101 15.2282 31.5201 14.8885 31.1001 13.5485C30.6201 12.0385 32.2001 10.7084 33.6101 9.98843C39.7301 6.87843 46.6101 5.69863 53.4101 4.68863C63.4101 3.21863 73.7601 2.08835 83.4101 5.15835C87.0101 6.31835 90.4101 8.09835 93.9801 9.15835C96.1601 9.83835 98.6301 9.76849 100.68 10.7985C103.3 12.1085 105.37 14.9084 104.46 17.9084C103.62 20.4984 100.75 21.9682 100.47 24.7482Z" fill="#EF6852"/>
<path d="M53.7401 10.3685C56.3303 10.3685 58.4301 8.26874 58.4301 5.67853C58.4301 3.08831 56.3303 0.988525 53.7401 0.988525C51.1498 0.988525 49.05 3.08831 49.05 5.67853C49.05 8.26874 51.1498 10.3685 53.7401 10.3685Z" fill="#333333"/>
<path d="M51.33 1.1084C51.3068 1.16223 51.2638 1.20527 51.21 1.22852C51.1584 1.24766 51.1016 1.24766 51.05 1.22852L50.17 0.948486L50.3 1.6084H49.19L49.6 2.29858H48.87C48.76 2.29858 48.61 2.2985 48.63 2.4585C48.6314 2.4774 48.6377 2.49571 48.6482 2.51147C48.6587 2.52724 48.6731 2.54002 48.69 2.54858C48.99 2.85858 49.3 3.16849 49.63 3.44849C49.7494 3.59256 49.9189 3.68608 50.1044 3.71021C50.29 3.73433 50.4777 3.68738 50.63 3.57861C51.15 3.32861 52.02 2.86858 52.25 2.29858C52.48 1.72858 51.95 1.09854 51.56 0.748535C51.4758 0.86355 51.399 0.983655 51.33 1.1084Z" fill="#98D3A9"/>
<path d="M52.5201 30.1085C55.1103 30.1085 57.2101 28.0087 57.2101 25.4185C57.2101 22.8283 55.1103 20.7285 52.5201 20.7285C49.9299 20.7285 47.8301 22.8283 47.8301 25.4185C47.8301 28.0087 49.9299 30.1085 52.5201 30.1085Z" fill="#333333"/>
<path d="M50.12 20.8484C50.0908 20.8979 50.0495 20.9393 50 20.9685C49.9477 20.983 49.8924 20.983 49.84 20.9685L48.96 20.6887L49.09 21.3484H47.98L48.39 22.0286H47.66C47.55 22.0286 47.4 22.0287 47.42 22.1887C47.4214 22.2076 47.4277 22.2257 47.4382 22.2415C47.4487 22.2572 47.4631 22.27 47.48 22.2786C47.78 22.5886 48.09 22.8985 48.42 23.1785C48.5571 23.3149 48.7308 23.4087 48.92 23.4485C49.0995 23.4484 49.2757 23.3999 49.43 23.3083C49.95 23.0583 50.82 22.5986 51.05 22.0286C51.28 21.4586 50.75 20.8283 50.36 20.4783C50.272 20.5962 50.1919 20.7199 50.12 20.8484Z" fill="#98D3A9"/>
<path d="M62.4001 24.2485C64.9903 24.2485 67.0901 22.1487 67.0901 19.5585C67.0901 16.9683 64.9903 14.8685 62.4001 14.8685C59.8099 14.8685 57.7101 16.9683 57.7101 19.5585C57.7101 22.1487 59.8099 24.2485 62.4001 24.2485Z" fill="#333333"/>
<path d="M60.0001 14.9885C59.9735 15.04 59.9315 15.082 59.88 15.1086C59.8284 15.1278 59.7717 15.1278 59.7201 15.1086L58.84 14.8284L58.9701 15.4885H57.8601L58.27 16.1785H57.5401C57.4301 16.1785 57.2701 16.2286 57.3001 16.3386C57.3015 16.3575 57.3077 16.3756 57.3182 16.3914C57.3287 16.4071 57.3432 16.4199 57.3601 16.4285C57.6601 16.7385 57.9601 17.0484 58.2901 17.3284C58.4318 17.4638 58.6084 17.5573 58.8001 17.5984C58.9796 17.5983 59.1557 17.5503 59.3101 17.4587C59.8301 17.2087 60.7001 16.7485 60.9301 16.1785C61.1601 15.6085 60.6301 14.9787 60.2401 14.6287C60.1492 14.741 60.0688 14.8614 60.0001 14.9885Z" fill="#98D3A9"/>
<path d="M87.98 13.6985C90.5703 13.6985 92.67 11.5987 92.67 9.00848C92.67 6.41827 90.5703 4.31848 87.98 4.31848C85.3898 4.31848 83.29 6.41827 83.29 9.00848C83.29 11.5987 85.3898 13.6985 87.98 13.6985Z" fill="#333333"/>
<path d="M85.57 4.43872C85.5467 4.49255 85.5038 4.53511 85.45 4.55835C85.3984 4.5775 85.3416 4.5775 85.29 4.55835L84.41 4.27856L84.55 4.93872H83.47L83.88 5.62866H83.15C83.04 5.62866 82.89 5.62856 82.91 5.77856C82.9181 5.81498 82.9395 5.84691 82.97 5.86841C83.27 6.17841 83.58 6.48831 83.91 6.76831C84.0306 6.91004 84.1991 7.00276 84.3834 7.02856C84.5677 7.05437 84.7551 7.0116 84.91 6.90845C85.43 6.64845 86.3 6.18841 86.53 5.61841C86.76 5.04841 86.23 4.4186 85.84 4.0686C85.7417 4.18567 85.6515 4.30941 85.57 4.43872Z" fill="#98D3A9"/>
<path d="M87.7701 29.1486C90.3603 29.1486 92.4601 27.0488 92.4601 24.4586C92.4601 21.8683 90.3603 19.7686 87.7701 19.7686C85.1799 19.7686 83.0801 21.8683 83.0801 24.4586C83.0801 27.0488 85.1799 29.1486 87.7701 29.1486Z" fill="#333333"/>
<path d="M85.36 19.8787C85.36 19.9287 85.3 19.9885 85.25 20.0085C85.1943 20.0234 85.1357 20.0234 85.08 20.0085L84.2 19.7283L84.34 20.3884H83.22L83.63 21.0686H82.9C82.79 21.0686 82.64 21.0683 82.66 21.2283C82.6703 21.2637 82.6913 21.2955 82.72 21.3186C83.03 21.6286 83.33 21.9287 83.66 22.2087C83.7985 22.3506 83.976 22.4478 84.17 22.4885C84.3461 22.4867 84.5186 22.4383 84.67 22.3484C85.19 22.0884 86.06 21.6383 86.3 21.0583C86.54 20.4783 85.99 19.8683 85.6 19.5183C85.47 19.6283 85.47 19.7587 85.36 19.8787Z" fill="#98D3A9"/>
</svg>
