<svg width="137" height="128" viewBox="0 0 137 128" fill="none" xmlns="http://www.w3.org/2000/svg">
<path d="M15.6202 65.6487C14.3902 72.2387 17.4102 78.3283 22.3502 79.2483C27.2902 80.1683 32.3502 75.5585 33.5202 68.9685C34.0764 66.1784 33.8053 63.2868 32.7402 60.6487C30.98 56.3526 30.5177 51.6344 31.4102 47.0783L36.7902 18.1584C37.3793 15.1492 38.5038 12.2703 40.1102 9.65842C40.5973 8.86981 40.9362 7.99902 41.1102 7.0886C41.7302 3.7886 40.2202 0.748551 37.7502 0.288551C35.2802 -0.171449 32.7502 2.12843 32.1602 5.41843C31.9903 6.35412 31.9903 7.31283 32.1602 8.24851C32.7913 11.3425 32.8388 14.527 32.3002 17.6384L27.3202 44.2185C26.4219 49.3724 23.8322 54.0801 19.9602 57.5984C17.6654 59.7297 16.1396 62.5601 15.6202 65.6487Z" fill="#333333"/>
<g style="mix-blend-mode:multiply" opacity="0.5">
<path d="M116.032 69.3482C121.865 51.2672 113.317 32.3264 96.9389 27.0428C80.5608 21.7591 62.5553 32.1335 56.7223 50.2145C50.8893 68.2955 59.4376 87.2362 75.8156 92.5199C92.1936 97.8035 110.199 87.4292 116.032 69.3482Z" fill="#EBD5C6"/>
</g>
<path d="M102.84 124.518C73.5179 128.963 43.6929 128.963 14.3704 124.518L4.90039 105.779H110.15L102.84 124.518Z" fill="#333333"/>
<path d="M5.39038 105.498C5.61126 105.15 5.95825 104.9 6.35889 104.802C6.75952 104.703 7.18282 104.763 7.54038 104.969C8.24334 105.406 8.88841 105.93 9.46038 106.529C10.1769 107.113 11.0239 107.515 11.9292 107.701C12.8346 107.887 13.7715 107.852 14.6604 107.599C16.6604 107.029 18.3604 105.369 20.4104 105.599C22.0304 105.769 23.2504 107.059 24.6404 107.919C25.8167 108.632 27.1464 109.054 28.5188 109.149C29.8911 109.245 31.2664 109.012 32.5304 108.469C35.0004 107.379 37.2604 105.049 39.9104 105.569C41.1345 105.948 42.2773 106.551 43.2804 107.349C45.2017 108.556 47.3825 109.288 49.6429 109.487C51.9032 109.685 54.1783 109.343 56.2804 108.489C58.5604 107.539 60.6804 105.968 63.1404 105.788C65.6004 105.608 67.6604 106.699 69.8404 107.509C72.0204 108.319 74.5904 108.819 76.5704 107.609C77.3122 106.972 78.1363 106.436 79.0204 106.018C81.6004 105.238 83.6104 108.668 86.2804 109.018C88.9504 109.368 90.9304 106.679 93.5204 106.159C96.4104 105.569 99.1004 107.759 102.02 108.239C104.62 108.659 107.23 107.689 109.7 106.739C110.17 106.559 110.7 106.269 110.7 105.739C110.7 105.019 109.7 104.799 109.03 104.819" fill="#FFB67C"/>
<path d="M7.67024 107.779C7.90024 107.509 5.55024 108.609 5.85024 108.029C6.15672 108.416 6.49094 108.78 6.85024 109.119C7.76042 109.979 8.84011 110.639 10.0202 111.058C12.4674 111.903 15.1493 111.745 17.4802 110.619C18.1402 110.339 19.2202 109.859 19.6102 109.619C20.0002 109.379 20.2002 109.509 19.8002 109.469C19.6302 109.469 20.4802 109.849 20.5802 109.909C22.5802 111.189 24.2602 112.509 26.5802 112.989C28.916 113.499 31.3504 113.311 33.5802 112.449C35.3802 111.739 37.6802 109.798 39.1402 109.578C38.5402 109.668 39.6702 109.798 39.2402 109.578C38.8102 109.358 40.1202 110.058 39.9902 109.978C40.8402 110.488 41.6502 111.038 42.5402 111.478C44.8204 112.604 47.3022 113.264 49.8402 113.419C51.8667 113.548 53.8998 113.307 55.8402 112.709C58.0502 112.009 59.9102 110.708 62.0402 109.808C63.9302 109.038 65.4702 109.699 67.2902 110.409C69.4593 111.416 71.8187 111.948 74.2102 111.969C76.3525 111.905 78.3989 111.066 79.9702 109.609L79.3802 109.538L79.7302 109.639C79.3902 109.499 79.4302 109.538 79.8402 109.748C80.6402 110.238 81.3602 110.859 82.1502 111.369C83.07 111.998 84.1079 112.434 85.2011 112.65C86.2943 112.867 87.42 112.86 88.5102 112.629C90.3602 112.209 92.3602 110.629 93.6602 110.139C93.9049 110.012 94.1745 109.943 94.4496 109.934C94.7247 109.925 94.9982 109.978 95.2502 110.089C96.3586 110.443 97.4468 110.856 98.5102 111.328C101.198 112.346 104.131 112.521 106.92 111.828C109.7 111.198 113.53 110.159 114.5 107.119C115.69 103.379 112.42 100.799 109.01 100.699C108.458 100.671 107.906 100.756 107.388 100.949C106.87 101.141 106.396 101.437 105.996 101.818C105.595 102.199 105.276 102.658 105.058 103.166C104.841 103.674 104.728 104.221 104.728 104.774C104.728 105.327 104.841 105.874 105.058 106.382C105.276 106.89 105.595 107.348 105.996 107.729C106.396 108.11 106.87 108.406 107.388 108.599C107.906 108.791 108.458 108.876 109.01 108.849C108.54 108.776 108.099 108.571 107.74 108.259L106.69 106.469L106.76 106.788V104.619L106.65 104.959L107.65 103.169C107.81 102.989 108.59 102.759 107.44 103.169C106.91 103.359 106.37 103.569 105.82 103.739C105.01 104.033 104.161 104.204 103.3 104.248C101.5 104.248 99.7402 103.249 98.0102 102.649C95.9182 101.9 93.6385 101.858 91.5202 102.529C89.8733 103.274 88.2766 104.126 86.7402 105.078C87.0402 104.928 86.1302 105.479 86.6002 105.129L86.8102 105.189C86.3802 105.039 86.3202 105.039 86.6302 105.189C85.9194 104.806 85.2316 104.382 84.5702 103.919C83.0506 102.756 81.1834 102.14 79.2702 102.169C78.1685 102.248 77.1019 102.591 76.1602 103.169C75.4402 103.609 74.9102 104.318 74.1602 104.538C72.7002 104.938 70.6302 103.869 69.2202 103.339C67.2745 102.497 65.1803 102.051 63.0602 102.029C60.6464 102.275 58.3101 103.02 56.2002 104.219C54.7899 104.96 53.2392 105.397 51.6491 105.5C50.0589 105.604 48.4648 105.372 46.9702 104.819C45.1102 104.059 43.7002 102.589 41.8202 101.869C40.6462 101.462 39.4 101.305 38.1618 101.408C36.9235 101.511 35.7206 101.873 34.6302 102.469C31.5302 103.949 29.3502 106.229 26.1602 104.139C24.0202 102.749 22.1602 101.399 19.4002 101.619C17.0502 101.799 15.1302 103.379 13.1102 103.959C13.4402 103.869 12.8002 103.959 12.7602 103.959C13.1402 103.959 11.8302 103.699 12.0202 103.779C11.0202 103.329 10.2402 102.409 9.22024 101.909C6.92024 100.769 3.67024 101.288 2.52024 103.808C2.14153 104.487 2.01706 105.279 2.16917 106.041C2.32127 106.804 2.73999 107.487 3.35024 107.969C3.9644 108.455 4.73596 108.698 5.51789 108.652C6.29982 108.606 7.03746 108.274 7.59024 107.719L7.67024 107.779Z" fill="#FFB67C"/>
<path d="M6.98043 102.098C6.68573 102.194 6.39832 102.311 6.12043 102.448L6.90043 102.118C6.82397 102.157 6.74349 102.188 6.66043 102.209H6.55043L5.72043 102.549L4.98043 103.129L5.68043 102.589C5.43446 102.767 5.16952 102.918 4.89043 103.038L5.73043 102.689C5.50016 102.789 5.25827 102.859 5.01043 102.899L5.96043 102.768C5.81414 102.783 5.66672 102.783 5.52043 102.768L6.52043 102.899C6.3872 102.88 6.25643 102.846 6.13043 102.799L7.00043 103.169C6.90845 103.129 6.82125 103.078 6.74043 103.018L7.48043 103.578C7.41649 103.529 7.35932 103.472 7.31042 103.408L7.87043 104.138C7.83451 104.085 7.80434 104.028 7.78043 103.969L8.14043 104.839C8.13708 104.775 8.13708 104.712 8.14043 104.649C8.14043 104.969 8.23043 105.289 8.27043 105.649C8.26545 105.582 8.26545 105.515 8.27043 105.448C8.27043 105.768 8.18043 106.088 8.14043 106.448C8.15137 106.386 8.1716 106.325 8.20043 106.268C8.07043 106.548 7.95043 106.839 7.83043 107.129C7.86779 107.052 7.91126 106.978 7.96043 106.908L7.40043 107.638C7.46273 107.561 7.53313 107.491 7.61043 107.428L6.89043 107.998C6.97273 107.93 7.06349 107.873 7.16043 107.828L6.30043 108.189C6.44379 108.135 6.59083 108.091 6.74043 108.058C7.23277 107.964 7.69847 107.764 8.10457 107.47C8.51066 107.176 8.84723 106.797 9.09043 106.359L9.45043 105.518C9.59009 105.064 9.61075 104.583 9.51043 104.118C9.5114 103.806 9.42853 103.498 9.27043 103.228C9.13045 102.794 8.87868 102.404 8.54043 102.098C8.43043 101.958 8.41043 101.988 8.16043 101.788L7.80043 101.518L6.95043 101.158C6.61997 101.095 6.28604 101.052 5.95043 101.029H5.86043C5.39308 101.058 4.92851 101.121 4.47043 101.219L4.30043 101.268C3.96024 101.388 3.62646 101.525 3.30043 101.678C3.25095 101.696 3.2039 101.719 3.16043 101.748C2.87131 101.941 2.59414 102.152 2.33043 102.379C2.28224 102.417 2.23863 102.46 2.20043 102.509C1.97402 102.765 1.76362 103.036 1.57043 103.319L1.49043 103.439C1.4148 103.595 1.34803 103.755 1.29043 103.919C1.23043 104.059 1.14043 104.249 1.08043 104.419C1.0701 104.465 1.0701 104.512 1.08043 104.558C1.08043 104.788 0.96043 105.308 0.94043 105.558V105.709C0.967808 106.044 1.01455 106.378 1.08043 106.709C1.13349 106.906 1.20723 107.097 1.30043 107.279C1.36043 107.419 1.44043 107.649 1.53043 107.819C1.63406 107.981 1.75114 108.135 1.88043 108.279C1.99203 108.441 2.11571 108.595 2.25043 108.739C2.25043 108.739 2.25043 108.738 2.25043 108.788C2.48043 108.988 2.77043 109.208 3.02043 109.388L3.17043 109.478C3.49432 109.634 3.82842 109.768 4.17043 109.879L4.32043 109.928H4.41043C4.741 109.991 5.07488 110.034 5.41043 110.058H5.60043C5.95043 110.058 6.33043 109.979 6.68043 109.919C6.8231 109.885 6.9634 109.841 7.10043 109.788C7.59488 109.621 8.07074 109.403 8.52043 109.138C8.86632 108.906 9.20009 108.655 9.52043 108.388L9.80043 108.138L9.86043 108.078C9.97321 107.969 10.0707 107.844 10.1504 107.709C10.3608 107.498 10.5124 107.236 10.5904 106.948C10.6774 106.763 10.7542 106.573 10.8204 106.379C10.8204 106.329 10.8204 106.279 10.8204 106.219V106.149C10.8812 105.842 10.9213 105.531 10.9404 105.219C10.9415 104.649 10.7895 104.089 10.5004 103.598C10.3037 103.233 10.0182 102.924 9.67043 102.698C9.36442 102.415 8.98809 102.218 8.58043 102.129C8.02163 101.969 7.42923 101.969 6.87043 102.129L6.98043 102.098Z" fill="#FFB67C"/>
<path d="M13.5503 111.598C13.7674 113.599 14.1862 115.572 14.8003 117.488C15.0703 118.488 15.3703 119.398 15.6903 120.348C15.9681 121.287 16.4081 122.171 16.9902 122.959C17.2102 123.229 17.6503 122.958 17.6503 122.678C17.5952 121.713 17.3929 120.762 17.0503 119.859C16.7603 118.939 16.4803 118.018 16.2003 117.098C15.6403 115.218 15.2003 113.298 14.5103 111.468C14.3303 110.988 13.5103 111.008 13.5103 111.598H13.5503Z" fill="#545454"/>
<path d="M18.2603 110.848C18.398 113.103 18.7326 115.342 19.2603 117.538C19.6861 119.745 20.4235 121.88 21.4503 123.878C21.4844 123.929 21.5337 123.967 21.591 123.988C21.6483 124.009 21.7108 124.012 21.7695 123.995C21.8282 123.979 21.8802 123.943 21.918 123.896C21.9559 123.848 21.9777 123.789 21.9803 123.728C21.7109 121.548 21.2899 119.39 20.7203 117.268C20.2203 115.078 19.7203 112.888 19.2103 110.718C19.2017 110.653 19.1803 110.589 19.1473 110.532C19.1143 110.474 19.0703 110.424 19.0179 110.384C18.9654 110.343 18.9055 110.314 18.8416 110.296C18.7776 110.279 18.7109 110.275 18.6453 110.283C18.5796 110.292 18.5163 110.313 18.4589 110.346C18.4015 110.379 18.3511 110.423 18.3107 110.476C18.2704 110.528 18.2407 110.588 18.2235 110.652C18.2062 110.716 18.2017 110.783 18.2103 110.848H18.2603Z" fill="#545454"/>
<path d="M40.7802 111.129C40.6902 112.439 40.5102 113.728 40.4702 115.058C40.4302 116.388 40.4702 117.478 40.5302 118.698C40.5902 119.918 40.6002 121.118 40.6802 122.328C40.7502 123.328 40.6802 124.788 41.3902 125.638C41.4252 125.672 41.4674 125.698 41.5137 125.713C41.56 125.728 41.6091 125.733 41.6573 125.726C41.7055 125.719 41.7516 125.701 41.7919 125.674C41.8323 125.647 41.8659 125.611 41.8902 125.569C42.4402 124.699 42.2302 123.318 42.1902 122.328C42.1902 121.068 42.0602 119.818 41.9902 118.558C41.9202 117.298 41.8802 116.129 41.7702 114.919C41.6602 113.709 41.4002 112.399 41.2502 111.129C41.239 111.075 41.2095 111.026 41.1667 110.991C41.1239 110.956 41.0704 110.937 41.0152 110.937C40.96 110.937 40.9065 110.956 40.8637 110.991C40.8209 111.026 40.7914 111.075 40.7802 111.129Z" fill="#545454"/>
<path d="M42.6203 113.029C42.8903 114.859 43.0503 116.709 43.2603 118.549C43.3503 120.37 43.5979 122.18 44.0003 123.959C44.1003 124.319 44.7103 124.369 44.7803 123.959C45.0103 122.089 44.9699 120.197 44.6603 118.339C44.4503 116.449 44.0803 114.588 43.6603 112.728C43.5203 111.998 42.4703 112.319 42.5803 113.029H42.6203Z" fill="#545454"/>
<path d="M68.5704 113.038C68.2904 115.398 68.1804 117.728 68.0804 120.098C68.0304 121.248 67.9704 122.408 67.9204 123.558C67.9204 124.128 67.8304 124.718 67.8604 125.288C67.8459 125.812 67.952 126.332 68.1704 126.808C68.1979 126.858 68.237 126.901 68.2843 126.933C68.3316 126.965 68.3858 126.985 68.4424 126.992C68.4991 126.999 68.5566 126.992 68.6101 126.972C68.6636 126.953 68.7117 126.921 68.7504 126.879C69.03 126.459 69.2081 125.979 69.2704 125.478C69.3604 124.886 69.4106 124.288 69.4204 123.689C69.5004 122.539 69.5404 121.388 69.5704 120.228C69.6573 117.827 69.5536 115.423 69.2604 113.038C69.2465 112.957 69.2042 112.883 69.1411 112.83C69.0779 112.777 68.998 112.747 68.9154 112.747C68.8328 112.747 68.7528 112.777 68.6897 112.83C68.6265 112.883 68.5843 112.957 68.5704 113.038Z" fill="#545454"/>
<path d="M71.7102 113.728C71.4602 115.668 71.3102 117.599 71.1702 119.549C71.1102 120.549 71.0502 121.489 71.0002 122.459C70.8608 123.402 70.9084 124.363 71.1402 125.288C71.1709 125.381 71.2273 125.464 71.3029 125.527C71.3785 125.589 71.4702 125.629 71.5674 125.641C71.6647 125.654 71.7634 125.639 71.8524 125.597C71.9413 125.556 72.0169 125.491 72.0702 125.408C72.399 124.541 72.552 123.616 72.5202 122.689C72.5669 121.675 72.6069 120.675 72.6402 119.689C72.7102 117.689 72.7502 115.739 72.6902 113.759C72.6902 113.626 72.6375 113.499 72.5438 113.405C72.45 113.311 72.3228 113.259 72.1902 113.259C72.0576 113.259 71.9304 113.311 71.8366 113.405C71.7429 113.499 71.6902 113.626 71.6902 113.759L71.7102 113.728Z" fill="#545454"/>
<path d="M96.2002 111.789C95.5572 113.494 95.0424 115.246 94.6602 117.029C94.4302 117.909 94.1803 118.789 93.9603 119.669C93.6588 120.541 93.5034 121.456 93.5002 122.379C93.5002 122.689 93.9502 122.969 94.1902 122.669C94.6925 121.93 95.0583 121.107 95.2702 120.239C95.5602 119.339 95.8002 118.428 96.0302 117.518C96.5858 115.729 96.9216 113.879 97.0302 112.009C97.0302 111.609 96.4002 111.379 96.2202 111.789H96.2002Z" fill="#545454"/>
<path d="M98.5404 113.028C98.2904 113.928 97.9504 114.778 97.6904 115.658C97.4304 116.538 97.1904 117.438 96.9304 118.318C96.6704 119.198 96.3704 120.078 96.1304 120.968C95.8188 121.805 95.6432 122.686 95.6104 123.578C95.6141 123.642 95.636 123.705 95.6736 123.757C95.7112 123.809 95.7628 123.85 95.8225 123.874C95.8823 123.898 95.9476 123.905 96.0109 123.893C96.0743 123.882 96.133 123.852 96.1804 123.808C96.7394 123.137 97.1608 122.362 97.4203 121.528C97.7634 120.634 98.0605 119.723 98.3103 118.798C98.5503 117.918 98.7904 117.018 98.9704 116.118C99.1504 115.218 99.2304 114.208 99.3604 113.258C99.4304 112.728 98.6904 112.488 98.5404 113.028Z" fill="#545454"/>
<path d="M109.53 103.319C109.53 99.5986 86.5302 96.5784 58.1402 96.5784C29.7502 96.5784 6.75024 99.5786 6.75024 103.319C6.75024 107.059 29.7502 110.058 58.1402 110.058C86.5302 110.058 109.53 107.039 109.53 103.319Z" fill="#FFD9A6"/>
<path d="M2.58032 103.578C2.21556 103.929 1.92537 104.35 1.72715 104.816C1.52893 105.281 1.42676 105.782 1.42676 106.288C1.42676 106.794 1.52893 107.295 1.72715 107.761C1.92537 108.227 2.21556 108.648 2.58032 108.998C3.30101 109.756 4.27745 110.22 5.32032 110.299C6.20744 110.251 7.09691 110.275 7.98032 110.368C8.77629 110.72 9.54799 111.124 10.2903 111.578C11.3276 112.075 12.4713 112.309 13.6203 112.259C14.7509 112.154 15.8526 111.842 16.8703 111.339C17.5293 110.916 18.2806 110.659 19.0603 110.589C20.5303 110.749 22.0603 112.319 23.3903 112.969C25.7569 114.121 28.4245 114.506 31.0203 114.069C33.1778 113.656 35.2438 112.86 37.1203 111.719C38.7303 110.809 39.7203 110.219 41.5303 110.939C43.3403 111.659 44.8903 112.629 46.6603 113.299C48.7729 114.036 51.0431 114.202 53.2403 113.779C56.9903 113.179 60.4503 110.729 64.2403 110.679C66.205 110.828 68.1416 111.235 70.0003 111.888C72.2076 112.564 74.5391 112.732 76.8203 112.379C77.7169 112.15 78.5986 111.866 79.4603 111.529C80.3127 111.225 81.2481 111.254 82.0803 111.609C84.3223 112.408 86.7275 112.638 89.0803 112.279C91.5003 111.859 93.6003 111.159 96.0803 111.629C98.702 112.268 101.383 112.634 104.08 112.719C106.58 112.719 109.62 112.358 111.82 111.098C112.465 110.762 113.035 110.3 113.496 109.738C113.958 109.177 114.302 108.528 114.507 107.831C114.712 107.134 114.775 106.402 114.691 105.68C114.608 104.958 114.38 104.261 114.02 103.629C111.88 99.8987 106.1 103.259 108.24 107.009L108.45 105.328C108.327 105.379 108.2 105.419 108.07 105.449C107.547 105.533 107.032 105.66 106.53 105.828C105.722 105.982 104.903 106.066 104.08 106.078C101.99 106.034 99.9116 105.762 97.8803 105.268C95.8658 104.838 93.7923 104.757 91.7503 105.029C89.9603 105.309 88.0603 106.199 86.2303 106.029C84.4003 105.859 82.8803 104.928 81.0703 104.828C79.0703 104.708 77.5803 105.619 75.7103 106.049C74.1871 106.26 72.6353 106.095 71.1903 105.569C69.2355 104.955 67.2263 104.529 65.1903 104.299C61.5103 104.049 58.1203 105.589 54.7303 106.759C53.411 107.29 52.0112 107.594 50.5903 107.658C49.1371 107.524 47.7309 107.074 46.4703 106.339C42.9603 104.669 39.6503 103.459 35.8903 105.109C32.6303 106.529 29.7603 108.959 26.1103 107.109C24.3903 106.239 22.9103 104.969 21.0103 104.459C18.9199 103.98 16.7268 104.279 14.8403 105.299C14.3703 105.6 13.8479 105.81 13.3003 105.919C12.6503 105.919 11.8603 105.159 11.3003 104.919C10.3449 104.432 9.2924 104.165 8.22032 104.138C7.66541 104.155 7.11314 104.222 6.57032 104.339L5.74032 104.509C6.55032 105.209 6.74032 105.269 6.44032 104.709L6.80032 106.038C6.73032 106.248 6.67032 106.459 6.60032 106.669C6.87528 106.147 6.95684 105.544 6.83057 104.968C6.70431 104.392 6.37835 103.879 5.91034 103.52C5.44233 103.161 4.86242 102.979 4.27316 103.006C3.68389 103.033 3.12323 103.268 2.69032 103.669L2.58032 103.578Z" fill="#EF8D56"/>
<path d="M7.6504 105.968C7.2704 106.218 7.6504 106.238 8.0204 106.478C8.3582 106.738 8.72377 106.959 9.11039 107.138C9.73659 107.428 10.4205 107.572 11.1104 107.558C12.8104 107.508 14.4604 106.428 15.9704 105.758C19.0304 104.398 23.0504 107.348 25.9704 108.148C27.5551 108.602 29.2163 108.725 30.8504 108.508C32.5931 108.14 34.276 107.531 35.8504 106.698C37.4891 105.869 39.3538 105.599 41.1604 105.928C43.0807 106.44 44.9733 107.051 46.8304 107.758C50.3766 108.839 54.1642 108.839 57.7104 107.758C60.9204 106.898 64.4104 105.428 67.7604 106.448C69.3704 106.938 70.7604 107.838 72.4804 108.048C74.7204 108.348 75.4804 106.718 77.4204 106.098C79.1204 105.558 81.2204 106.398 82.8704 106.828C84.6985 107.427 86.618 107.698 88.5404 107.628C90.7204 107.408 92.6204 106.318 94.8704 106.738C97.1204 107.158 99.1304 108.068 101.35 108.448C104.96 109.048 108.53 108.558 111.2 105.868C113.37 103.668 109.58 100.558 107.78 103.228C105.98 105.898 100.91 104.078 98.4704 103.598C96.5973 103.179 94.6788 102.998 92.7604 103.058C90.8304 103.188 89.0404 103.988 87.0904 103.978C85.3909 103.853 83.7029 103.602 82.0404 103.228C80.2682 102.958 78.4569 103.119 76.7604 103.698C76.1685 104.011 75.5248 104.215 74.8604 104.298C74.0675 104.226 73.2836 104.075 72.5204 103.848C70.8004 103.368 69.3004 102.388 67.5204 102.088C63.9804 101.488 60.5204 102.578 57.1604 103.488C55.4952 104.01 53.7723 104.325 52.0304 104.428C50.0478 104.342 48.0939 103.923 46.2504 103.189C42.9978 101.984 39.4406 101.875 36.1204 102.878C34.4604 103.378 32.8404 103.928 31.1204 104.328C29.3018 104.703 27.4147 104.565 25.6704 103.928C23.9447 103.314 22.181 102.813 20.3904 102.428C18.5126 102.219 16.612 102.48 14.8604 103.189C14.1004 103.449 12.8604 104.189 12.1004 104.189C11.3404 104.189 10.6704 103.188 10.0104 102.738C9.33396 102.171 8.47676 101.866 7.59427 101.877C6.71179 101.888 5.86248 102.215 5.2004 102.798C3.4004 104.238 5.76039 107.308 7.67039 106.008L7.6504 105.968Z" fill="#EF8D56"/>
<path d="M125.554 72.5333C131.525 54.0265 122.367 34.5083 105.101 28.9381C87.8347 23.3679 68.9978 33.8551 63.0274 52.3618C57.057 70.8685 66.214 90.3867 83.4803 95.9569C100.747 101.527 119.584 91.04 125.554 72.5333Z" fill="#6D5953"/>
<path d="M117.641 69.8471C123.791 50.7832 114.779 30.8133 97.5131 25.2431C80.2468 19.6729 61.2642 30.6117 55.114 49.6756C48.9639 68.7395 57.9752 88.7093 75.2415 94.2796C92.5078 99.8498 111.491 88.911 117.641 69.8471Z" fill="#4F3E3B"/>
<path d="M112.179 68.2251C116.415 55.0953 110.206 41.3409 98.3119 37.5036C86.4173 33.6664 73.341 41.1994 69.1053 54.3291C64.8695 67.4589 71.0784 81.2134 82.9729 85.0507C94.8675 88.8879 107.944 81.3548 112.179 68.2251Z" fill="#6D5953"/>
<path d="M69.7804 59.3386C69.8848 57.8801 70.4247 56.4866 71.3304 55.3386C72.7204 53.8686 75.0204 53.6684 76.6004 52.4084C78.8004 50.6484 79.1704 47.1884 81.5104 45.6184C82.3457 45.1161 83.2686 44.7768 84.2304 44.6184C87.2804 43.9484 90.8904 43.8486 93.0704 46.0886C94.8404 47.9086 95.4204 51.0886 97.8404 51.8386C99.0504 52.2286 100.38 51.8385 101.65 51.9885C104.13 52.2385 106.09 54.3985 106.82 56.7785C107.4 59.2077 107.4 61.7395 106.82 64.1687C106.306 67.9936 104.998 71.6688 102.98 74.9587C100.1 79.2487 95.5104 82.0385 91.6504 85.4685C91.0722 85.9159 90.6009 86.4863 90.2704 87.1384C89.9615 88.1095 89.9201 89.1458 90.1504 90.1384C90.489 92.2784 90.4518 94.4614 90.0404 96.5886C89.6173 98.7301 88.4169 100.639 86.6704 101.948C84.5304 103.448 81.7504 103.609 79.1404 103.629C70.6304 103.699 62.0104 102.809 53.6904 104.629C52.8741 104.88 52.0081 104.925 51.1704 104.759C49.3804 104.199 48.9504 101.599 50.0404 100.069C51.1304 98.5386 53.1304 97.9586 55.0404 97.8386C56.916 97.8824 58.7926 97.8154 60.6604 97.6384C63.0365 97.202 65.1473 95.8525 66.5404 93.8786C67.5608 92.2454 68.3137 90.4595 68.7704 88.5886C69.5829 86.4253 70.251 84.2105 70.7704 81.9587C71.1204 79.7587 70.1504 77.4183 69.7704 75.2483C68.9676 69.9751 68.971 64.6108 69.7804 59.3386Z" fill="#EF8D56"/>
</svg>
