<svg width="127" height="108" viewBox="0 0 127 108" fill="none" xmlns="http://www.w3.org/2000/svg">
<path d="M88.5602 37.7986C84.9302 32.0486 75.3002 30.2584 69.0602 29.6584C60.0002 28.7884 51.1302 28.4885 41.8402 28.4885C31.4402 28.4885 20.9202 29.6684 11.1902 33.4084C0.340225 37.5684 0.080226 46.3383 0.190226 47.2683C0.380226 48.6783 0.620228 49.5583 0.880228 50.9783L2.05023 55.6687C2.0407 55.5222 2.0407 55.3748 2.05023 55.2283C8.46023 84.6683 44.9002 82.2285 66.8802 73.9285C75.0702 70.8385 83.1402 66.4083 87.1202 58.2883C88.6959 54.7728 89.7535 51.0473 90.2602 47.2283C90.5016 46.15 90.6455 45.0525 90.6902 43.9485C90.522 41.7492 89.7882 39.6308 88.5602 37.7986Z" fill="#333333"/>
<path d="M86.9104 44.3784C86.9104 42.2284 84.9104 40.9382 82.9104 40.8682C83.7404 36.4782 77.9104 39.0985 77.0704 36.4585C76.4104 34.4585 78.9404 34.5385 77.5404 32.4585C76.7004 31.1985 75.0804 30.8385 74.2104 29.6685C73.0804 28.1585 73.3104 27.6184 71.1604 27.0884C69.6704 26.7184 68.3204 27.4882 67.6404 25.6782C67.0604 24.1283 68.1904 22.8883 66.8904 21.2183C65.8891 20.1379 64.6398 19.3174 63.2504 18.8282C61.2504 18.0182 59.8904 17.9582 58.0904 19.1782C56.2904 20.3982 55.0904 22.2281 52.6504 21.2881C50.8404 20.5881 50.4704 19.0882 48.2004 19.1182C46.2004 19.1182 45.2004 20.1683 43.3404 20.2383C42.5804 20.2383 41.8104 19.6583 40.8804 20.2383C40.1404 20.6883 40.3404 22.0384 39.5404 22.3584C38.4104 22.8184 36.8404 21.0981 35.3204 20.9981C30.7804 20.7181 27.7104 24.5681 25.6604 27.9981C21.5104 26.8581 17.9204 27.3581 15.2204 31.5381C13.9104 33.5381 14.5904 34.3283 14.7704 36.4683C15.0204 39.4683 14.3104 38.5184 12.3704 38.7984C11.2904 38.9584 8.43039 39.2281 7.68039 39.9781C6.93039 40.7281 7.68039 41.6182 7.22039 42.3282C6.76039 43.0382 6.22039 42.8583 5.57039 43.2583C3.93039 44.3183 2.94039 44.2581 2.76039 46.7681C2.65039 48.2181 2.7604 50.4385 3.6904 51.4585L5.57039 55.6782C5.82039 60.0783 10.8304 65.6283 14.4704 67.6782C18.1104 69.7282 22.3004 70.5684 26.2604 71.3184C34.2604 72.8284 42.9304 74.0581 51.0104 72.9781C60.2422 71.6804 69.1706 68.7554 77.3804 64.3384C82.3804 61.5684 85.8104 58.5685 87.7404 53.1485C88.5904 50.7785 90.5904 45.3884 86.9104 44.3784Z" fill="#FFD9A6"/>
<path d="M90.6803 43.9485C89.6803 46.6585 87.7503 48.3783 85.9203 50.0583C83.5771 52.2206 80.9288 54.0269 78.0603 55.4187C70.4503 59.2287 61.6703 60.5583 53.3503 61.2883C42.0903 62.2883 30.9703 61.5786 20.3503 58.0886C13.001 55.7881 6.15368 52.1165 0.170309 47.2683C-0.399691 53.4883 0.590309 58.7784 1.24031 62.8884C2.63031 71.7384 6.24031 81.7786 12.6703 88.0486C14.0756 89.4329 15.5943 90.6971 17.2103 91.8284C18.2103 110.078 47.2103 107.019 57.1503 106.629C64.1503 106.359 70.6503 102.829 72.8103 99.5686C74.016 97.1493 74.5118 94.4377 74.2403 91.7483C78.9883 88.4254 82.8451 83.9851 85.4703 78.8186C89.4703 70.8186 89.2703 62.3187 90.3703 53.6487C90.7251 50.4283 90.8288 47.185 90.6803 43.9485Z" fill="#444444"/>
<path d="M1.32038 55.3588C2.09239 55.2304 2.88511 55.3312 3.60038 55.6489C4.12911 55.9562 4.56724 56.3975 4.87038 56.9287C5.81038 58.3787 6.46038 59.9285 7.87038 60.9985C10.7204 62.9985 14.3404 60.7787 17.2804 62.4687C18.0736 62.9773 18.8169 63.5602 19.5004 64.2089C20.1804 64.7989 20.8504 65.3887 21.5004 65.9487C22.7736 67.0547 24.2468 67.907 25.8404 68.4589C27.7434 68.9615 29.7463 68.9439 31.6404 68.4086C33.3133 67.8492 35.0244 67.4114 36.7604 67.0986C37.6333 67.0244 38.5121 67.1337 39.3404 67.4189C40.3707 67.8557 41.3727 68.3567 42.3404 68.9189C44.2648 69.9237 46.3825 70.5031 48.5504 70.6186C50.7781 70.653 52.972 70.0719 54.8904 68.9389C56.4427 67.9307 58.1633 67.2089 59.9704 66.8085C61.4062 66.6671 62.8558 66.8204 64.2304 67.2587C65.9604 67.7187 67.7204 68.4787 69.5404 68.2587C72.3304 67.9187 73.6804 65.3988 75.4704 63.5688C76.4 62.5484 77.6286 61.8483 78.9804 61.5688C80.1445 61.4903 81.3135 61.5271 82.4704 61.6787C83.0473 61.7169 83.6253 61.6235 84.1607 61.4052C84.696 61.1869 85.1747 60.8496 85.5604 60.4189C86.1475 59.7323 86.6141 58.9512 86.9404 58.1088C87.2204 57.4288 87.3004 56.6987 87.5304 56.0087C87.5565 55.878 87.6085 55.7539 87.6833 55.6435C87.7581 55.5331 87.8542 55.4383 87.9661 55.3657C88.0779 55.293 88.2031 55.2437 88.3344 55.2202C88.4656 55.1966 88.6003 55.1992 88.7304 55.2285V54.0888C88.317 54.1383 87.931 54.3208 87.6304 54.6088C87.0804 55.0888 87.8804 55.8886 88.4304 55.4086C88.5138 55.3246 88.6169 55.2625 88.7304 55.2285C88.8816 55.2285 89.0265 55.1689 89.1334 55.062C89.2403 54.9551 89.3004 54.8098 89.3004 54.6586C89.3004 54.5075 89.2403 54.3627 89.1334 54.2558C89.0265 54.1489 88.8816 54.0888 88.7304 54.0888C88.3594 54.0426 87.9829 54.098 87.6411 54.2495C87.2994 54.401 87.0053 54.6428 86.7904 54.9487C86.4532 55.5716 86.2265 56.2483 86.1204 56.9487C85.8104 58.1987 85.0504 59.8586 83.7704 60.3886C82.7828 60.6116 81.7579 60.6116 80.7704 60.3886C79.3912 60.24 77.999 60.5048 76.7704 61.1489C75.5632 61.8851 74.5021 62.8378 73.6404 63.9589C72.9299 64.946 72.0734 65.8191 71.1004 66.5488C70.5002 66.8961 69.8322 67.1097 69.1419 67.1752C68.4515 67.2408 67.7552 67.1568 67.1004 66.9287C65.4104 66.3724 63.678 65.9544 61.9204 65.6787C60.4331 65.54 58.9348 65.7739 57.5604 66.3588C55.5604 67.1888 53.7104 68.5589 51.5604 69.1489C49.511 69.6823 47.3512 69.6127 45.3404 68.9487C44.2772 68.6035 43.2465 68.165 42.2604 67.6386C41.3129 67.0641 40.3073 66.5914 39.2604 66.2285C37.5995 65.8545 35.8669 65.955 34.2604 66.5185C32.3821 67.2024 30.4154 67.6134 28.4204 67.7387C24.7804 67.7387 22.2104 65.0486 19.6104 62.8686C18.9275 62.2258 18.1564 61.6838 17.3204 61.2587C16.539 60.9067 15.6968 60.7096 14.8404 60.6787C13.2704 60.5987 11.6704 61.0387 10.1104 60.7587C8.29038 60.4287 7.30038 59.0085 6.44038 57.4985C5.88866 56.2005 4.8973 55.1383 3.64038 54.4985C2.87218 54.2382 2.05412 54.1595 1.25038 54.2685C0.520381 54.3285 0.520381 55.4689 1.25038 55.3989L1.32038 55.3588Z" fill="#333333"/>
<path d="M2.70039 61.1386C3.06015 60.993 3.44965 60.936 3.83602 60.9726C4.22239 61.0091 4.5943 61.1381 4.92039 61.3485C5.49387 61.8154 5.96673 62.3939 6.31039 63.0487C7.09039 64.3287 7.64039 65.9386 8.82039 66.9086C9.46352 67.4268 10.2473 67.7402 11.0704 67.8085C12.0018 67.8699 12.9362 67.7477 13.8204 67.4486C14.6963 67.1023 15.6602 67.0461 16.5704 67.2885C17.3515 67.5805 18.0414 68.074 18.5704 68.7187C19.6504 69.9787 20.4004 71.5586 21.8504 72.4486C22.6878 72.9693 23.6452 73.2654 24.6304 73.3085C25.446 73.2813 26.2453 73.073 26.9704 72.6986C28.6104 71.9586 30.2004 71.0486 32.0604 71.1986C33.5035 71.4373 34.8723 72.0055 36.0604 72.8588C37.5309 73.8411 39.1428 74.5931 40.8404 75.0888C42.6182 75.4197 44.4536 75.2356 46.1304 74.5585C47.7454 73.8342 49.4621 73.3621 51.2204 73.1586C52.9228 73.2125 54.5855 73.6865 56.0604 74.5385C57.2775 75.2857 58.6422 75.7601 60.0604 75.9286C61.9804 76.0186 63.7804 75.0087 65.3704 74.0487C66.1975 73.492 67.0707 73.0067 67.9804 72.5985C68.9384 72.2448 69.9693 72.1351 70.9804 72.2787C71.9672 72.481 72.9732 72.5747 73.9804 72.5585C75.0079 72.4739 75.9816 72.0641 76.7604 71.3886C78.0704 70.2686 78.4804 68.5387 79.5104 67.2187C79.9952 66.572 80.6647 66.0872 81.4304 65.8285C82.1304 65.6285 82.8704 65.6087 83.5804 65.4687C84.7696 65.1597 85.8849 64.6156 86.8604 63.8686C87.4223 63.4855 87.96 63.0681 88.4704 62.6186C88.8694 62.3134 89.2084 61.9372 89.4704 61.5087C89.5916 61.3043 89.627 61.0604 89.5689 60.83C89.5108 60.5996 89.364 60.4013 89.1604 60.2787C89.0278 60.2031 88.8706 60.1832 88.7234 60.2235C88.5761 60.2639 88.451 60.3609 88.3754 60.4936C88.2998 60.6262 88.28 60.7834 88.3203 60.9306C88.3606 61.0778 88.4578 61.2031 88.5904 61.2787C88.6704 61.3287 88.5104 61.1986 88.5004 61.1786C88.3704 60.9186 88.5904 61.2887 88.5004 61.0287C88.5004 61.0287 88.5004 60.9084 88.5004 60.9784C88.5004 61.0484 88.4204 61.1384 88.5004 60.9784C88.4281 61.1444 88.3186 61.2917 88.1804 61.4086C87.7682 61.8372 87.3161 62.2257 86.8304 62.5687C85.9469 63.2855 84.9544 63.856 83.8904 64.2587C83.1704 64.4587 82.4104 64.4986 81.6804 64.6386C80.9485 64.759 80.2598 65.0656 79.6804 65.5287C78.2704 66.6387 77.7704 68.2686 76.8004 69.6986C76.3101 70.4434 75.5851 71.0029 74.7404 71.2885C73.7537 71.5195 72.7271 71.5195 71.7404 71.2885C70.7191 71.0986 69.6716 71.0986 68.6504 71.2885C67.7015 71.5066 66.7957 71.8821 65.9704 72.3988C64.3604 73.3488 62.7004 74.5988 60.8004 74.8388C59.4442 74.9153 58.098 74.5656 56.9504 73.8388C55.5052 73.0289 53.9328 72.4711 52.3004 72.1889C50.5554 72.0479 48.8027 72.3433 47.2004 73.0487C45.628 73.7697 43.929 74.174 42.2004 74.2387C40.4538 74.0345 38.7828 73.4102 37.3304 72.4188C36.0848 71.5895 34.7412 70.9177 33.3304 70.4188C31.7476 70.009 30.0724 70.15 28.5804 70.8188C27.0304 71.4488 25.4804 72.6486 23.7304 72.1586C22.883 71.9259 22.1153 71.4659 21.5104 70.8285C20.9754 70.2147 20.481 69.5667 20.0304 68.8886C19.5872 68.1564 18.9901 67.5295 18.2804 67.0512C17.5707 66.5729 16.7654 66.2545 15.9204 66.1186C14.0604 65.9486 12.3804 67.2186 10.5104 66.6786C9.05039 66.2586 8.51039 64.7285 7.83039 63.5185C7.15039 62.3085 6.25039 60.6888 4.83039 60.1288C4.04894 59.8636 3.20184 59.8636 2.42039 60.1288C1.72039 60.3588 2.02039 61.4484 2.72039 61.2284L2.70039 61.1386Z" fill="#333333"/>
<path d="M24.3804 45.1285C23.0604 43.9385 22.2904 45.6285 21.0004 45.1285C19.5604 44.5785 20.7404 43.4082 21.5104 42.8282C22.2804 42.2482 24.1304 42.0584 22.0504 40.7584C21.3204 40.3084 19.0504 40.5184 18.3204 40.7584C16.6704 41.1784 15.1504 42.2582 15.3204 44.0782C13.3804 44.4082 11.4204 42.7182 9.62041 44.0782C7.43041 45.7682 9.84041 47.9884 10.2104 46.5684C12.5604 46.2184 12.3904 48.2781 14.2904 48.9981C15.4204 49.4181 16.4304 48.7981 17.4604 49.7281C17.8588 50.1367 18.1622 50.6283 18.3488 51.1676C18.5355 51.7069 18.6009 52.2808 18.5404 52.8482C20.1204 50.4482 23.1904 51.3685 24.6604 48.6485C25.0077 48.1128 25.1685 47.4773 25.1179 46.8409C25.0673 46.2045 24.8081 45.6026 24.3804 45.1285Z" fill="#FFE7CA"/>
<path d="M38.3803 33.0385C37.9303 33.0385 35.7403 33.7185 35.2203 33.3685C33.8703 32.4785 34.6703 29.3687 35.9503 28.7987C35.1403 27.7287 33.0603 27.7985 32.0503 28.6185C31.5003 29.0485 30.9803 29.8884 31.4003 30.2284C29.5303 29.8484 26.9003 29.0686 25.4003 29.6586C24.7503 29.9086 24.6003 30.7186 23.9803 30.9486C23.3603 31.1786 22.9803 30.8486 22.5803 30.9486C21.3703 31.1986 20.2403 31.1286 20.4903 32.9486C20.9703 32.9486 21.5703 33.0884 22.0303 33.0184C20.9603 33.5384 18.3403 34.1185 18.2203 35.7885C18.1931 36.0801 18.2601 36.3727 18.4114 36.6234C18.5628 36.8742 18.7905 37.0702 19.0612 37.182C19.3318 37.2939 19.6312 37.3158 19.9154 37.245C20.1996 37.1742 20.4537 37.0142 20.6403 36.7885H19.4103C21.1203 36.1385 25.4103 34.3987 24.6303 38.0087C26.5503 36.3487 27.8403 40.4186 24.7003 41.4086C25.8903 42.4886 26.9103 41.0486 28.0303 42.9286C28.5803 43.8686 29.3603 45.4984 28.6603 46.2484C30.3403 44.2484 35.3103 45.5888 34.1403 41.1888C33.7103 39.5988 31.6903 38.9489 33.9903 37.7089C36.2903 36.4689 36.5803 38.2885 38.1703 38.5985C40.7003 39.2185 41.7303 33.4285 38.3803 33.0385Z" fill="#FFE7CA"/>
<path d="M38.6104 25.0982C37.2304 23.1482 34.6104 21.3182 32.6104 23.3482C31.8876 24.0518 31.2407 24.8297 30.6804 25.6685C30.1004 26.6685 30.3704 28.3581 31.9104 27.0381L31.2004 26.8584C32.4704 25.6084 32.7704 26.1683 34.0204 25.9883C35.0204 25.8483 36.1904 24.7683 37.1404 25.9883C37.7404 26.7683 36.7004 29.2384 38.3704 28.8984C40.0404 28.5584 39.1604 25.8782 38.6104 25.0982Z" fill="#FFE7CA"/>
<path d="M63.5204 24.9283C63.4442 24.5716 63.2941 24.2346 63.0798 23.9395C62.8654 23.6444 62.5916 23.3977 62.276 23.2149C61.9603 23.0321 61.6099 22.9175 61.2472 22.8785C60.8845 22.8395 60.5177 22.8769 60.1704 22.9883C58.7204 23.5583 58.8504 25.4485 56.8404 25.1485C56.0804 25.0385 55.4404 24.1481 54.7304 24.0381C53.7304 23.8381 53.6504 24.2785 52.8004 24.3985C50.6704 24.6985 51.2904 23.7683 49.4604 22.6783C47.8904 21.7383 41.0804 22.3086 42.2504 25.4586C42.3234 25.6333 42.4415 25.7853 42.5926 25.8995C42.7437 26.0137 42.9224 26.0859 43.1104 26.1085C42.8704 26.4347 42.6971 26.805 42.6004 27.1983C42.1004 29.3383 44.2204 28.7982 44.2304 30.3682C44.2304 31.2082 43.1504 31.2283 43.6504 32.1783C43.9204 32.6983 45.1304 32.6683 45.5504 33.1783C45.9593 33.7961 46.1318 34.5408 46.0363 35.2755C45.9408 36.0101 45.5837 36.6856 45.0304 37.1783C43.7604 38.1783 42.1704 37.8481 42.0304 40.0381C41.9104 42.5881 44.6604 42.3184 46.3004 41.0884C48.4404 39.4984 48.0104 36.0884 50.2504 34.7984C51.7904 33.9384 54.0904 34.9885 55.5204 34.1885C57.4704 33.1085 57.3404 30.3782 56.4704 28.8282C58.4704 27.8982 59.9304 30.4684 61.7204 30.0284C63.3404 29.6284 63.9004 26.3583 63.5204 24.9283Z" fill="#FFE7CA"/>
<path d="M51.7503 42.8384C50.8903 40.8384 48.1003 41.6784 46.8203 42.8384C45.1603 44.3584 45.5803 45.7183 42.9603 44.9883C40.9603 44.4383 39.9603 43.6083 40.4703 41.4683C40.1939 41.2935 39.8621 41.2283 39.5402 41.2857C39.2182 41.3431 38.9293 41.5188 38.7303 41.7784C37.5203 41.6484 35.8303 42.8684 36.2703 44.2584C36.6503 45.4484 38.4203 45.0582 37.1703 46.3882C35.7003 47.9382 31.0203 46.1484 31.3403 48.8184C30.9903 48.1084 29.1103 49.8782 28.7903 50.6182C28.9703 50.6182 29.2003 50.7381 29.4103 50.7681C28.4103 52.4081 26.9303 54.1284 29.8203 54.2584C31.9103 54.3484 33.1503 52.3185 35.2303 52.6685C37.4903 53.0585 36.6903 55.1982 38.1703 56.0582C39.6503 56.9182 41.3503 55.3685 41.7703 54.1285C42.4203 52.2385 40.1203 50.5881 41.6203 48.9781C43.9503 46.4881 44.2303 50.6782 45.7603 51.0982C46.6803 51.3582 47.7003 50.3285 48.5903 50.2085C49.4803 50.0885 49.9603 50.6484 50.5903 50.0484C51.2203 49.4484 51.3203 47.5984 50.9503 46.2584C51.3031 45.7695 51.5555 45.2155 51.6928 44.6285C51.8301 44.0414 51.8497 43.4331 51.7503 42.8384Z" fill="#FFE7CA"/>
<path d="M67.3703 29.6284C65.1303 29.4884 64.2203 29.8684 63.4703 32.1084C62.4367 31.6249 61.2536 31.571 60.1803 31.9585C58.7203 32.8585 60.1303 33.6482 60.1803 34.9082C59.0603 35.2282 52.3803 36.5483 54.5203 38.4683C53.6903 38.3683 51.0103 38.5183 50.7003 39.4683C50.1003 41.3983 52.9503 40.5681 53.7003 41.0581C55.1203 41.9881 53.8503 43.4083 54.4003 44.7583C54.9503 46.1083 56.6203 46.4981 57.8903 46.3081C58.1297 45.7946 58.21 45.2212 58.1209 44.6616C58.0318 44.1021 57.7773 43.5823 57.3903 43.1685C57.3903 39.8285 58.7903 39.7582 60.9503 38.4282C61.8703 37.8482 61.7503 37.1084 63.1903 37.3584C64.1903 37.5384 64.6903 38.2681 65.4303 38.8281C65.9303 39.1881 66.1603 40.2482 66.8403 39.6182C67.5203 38.9882 66.0603 35.9683 65.9903 35.2783C65.6803 32.3783 68.8603 30.4082 71.0603 32.4282C71.4703 29.8782 69.4703 29.7584 67.3703 29.6284Z" fill="#FFE7CA"/>
<path d="M56.4702 58.4783L56.6502 57.9587C56.4539 57.8945 56.2633 57.814 56.0802 57.7185C56.0102 57.9885 56.1102 58.2183 56.4702 58.4783Z" fill="#FFE7CA"/>
<path d="M60.5304 53.7285C59.5304 53.4585 54.0104 54.4285 56.4804 51.8085C58.0204 50.1685 61.0404 50.3988 62.9204 50.5488C62.48 49.861 61.8882 49.283 61.1904 48.8588C60.0304 48.3788 59.6604 49.1087 58.5904 49.2187C56.8604 49.3887 55.3304 47.9988 53.5204 49.0288C53.8004 50.1788 54.4404 50.6285 53.7204 51.4985C53.0004 52.3685 52.0804 51.8186 51.2104 52.1586C49.0204 53.0086 50.7304 55.3388 47.5204 54.5688C41.2504 53.0588 44.0704 61.5685 48.4004 57.7685C49.5304 59.1385 51.4004 57.2689 52.6204 56.8989C54.3004 56.3889 54.9404 57.1687 56.0904 57.7187C56.2165 57.4555 56.3938 57.2203 56.6118 57.0263C56.8298 56.8323 57.0843 56.6835 57.3604 56.5888C58.3604 56.2188 59.4104 56.9288 60.2104 56.8588C62.6504 56.6588 62.9504 54.3585 60.5304 53.7285Z" fill="#FFE7CA"/>
<path d="M126.76 3.49826C125.76 0.358257 122.26 0.39857 119.52 0.818569C115.94 1.35857 112.71 4.31857 110.21 6.81857C108.39 8.66857 103.79 11.6684 105.15 14.6784C105.61 17.7684 110.74 17.5182 112.89 16.9782C116.53 16.0682 119.79 13.5985 122.58 11.0485C124.8 9.06855 127.88 6.88826 126.76 3.49826Z" fill="#EF6852"/>
<path d="M79.8504 40.3886L105.85 14.8989C105.85 14.8989 106.21 14.1488 107.34 14.5888C109.13 15.2888 108.98 16.1489 108.98 16.1489L82.9003 42.3886C81.8308 42.3698 80.7893 42.0436 79.9003 41.4487C79.5903 41.2187 79.8504 40.3886 79.8504 40.3886Z" fill="#444444"/>
</svg>
