<svg width="253" height="102" viewBox="0 0 253 102" fill="none" xmlns="http://www.w3.org/2000/svg">
<path d="M252.92 94.0785C253.92 87.0785 79.8301 97.0785 79.8301 97.0785C79.8301 97.0785 251.05 106.609 252.92 94.0785Z" fill="#98D3A9"/>
<path d="M83.0503 98.9885C105.2 97.2885 220.83 98.7085 222.05 87.7885C223.27 76.8685 83.0503 98.9885 83.0503 98.9885Z" fill="#71A579"/>
<path d="M82.2803 97.8287C88.8203 100.029 188.99 90.2287 191.61 97.8287C194.23 105.429 82.2803 97.8287 82.2803 97.8287Z" fill="#98D3A9"/>
<path d="M82.2803 97.8287C88.8203 100.029 188.99 90.2287 191.61 97.8287C194.23 105.429 82.2803 97.8287 82.2803 97.8287Z" fill="#7BBA88"/>
<path d="M107.69 95.3285C104.8 95.3285 66.5804 94.5384 61.4304 93.9184C56.2804 93.2984 57.6104 100.358 59.8604 101.638C62.1104 102.918 107.78 99.2985 107.78 99.2985L107.69 95.3285Z" fill="#F2F0C2"/>
<path d="M107.69 95.3285C104.8 95.3285 66.5804 94.5384 61.4304 93.9184C56.2804 93.2984 57.6104 100.358 59.8604 101.638C62.1104 102.918 107.78 99.2985 107.78 99.2985L107.69 95.3285Z" fill="#FFD9A6"/>
<path d="M80.9106 101.219C93.7906 100.449 107.781 99.3386 107.781 99.3386L107.691 95.3386C106.001 95.3386 92.2806 95.0785 80.1206 94.7285C78.7306 96.3785 79.5306 99.8285 80.9106 101.219Z" fill="#E5B789"/>
<path d="M57.4702 99.7987C57.7002 99.7987 57.7902 99.6187 58.3202 99.5187H58.2301C59.9101 99.4487 58.2301 98.6787 58.9001 96.2887C58.7801 95.7287 60.5001 94.8687 59.0101 94.7687C58.5401 93.5487 55.6402 94.4785 58.6602 95.0985C58.4029 95.4919 58.2104 95.9241 58.0901 96.3785C57.6501 95.2085 55.6602 95.8686 57.9702 96.8986C57.9654 96.9585 57.9654 97.0188 57.9702 97.0787C57.8202 96.7887 55.7402 96.9386 57.3502 97.4386C57.4702 97.6086 57.9401 97.1587 57.9801 98.0087C57.1301 97.3087 56.3101 98.6786 58.1201 98.6486H58.0302C58.1002 98.6486 58.1702 98.5887 58.2102 98.8287C57.9402 98.7887 56.4702 99.1287 57.4702 99.7987Z" fill="#333333"/>
<path d="M74.0902 53.6384C74.1522 52.4601 73.8893 51.2876 73.3302 50.2485C72.1732 47.8765 70.7326 45.6535 69.0402 43.6284C57.4302 29.0284 40.9602 18.8584 23.4802 12.3784C19.2043 10.7742 14.8325 9.43823 10.3902 8.37842C7.88018 7.79842 5.13018 7.37851 2.82018 8.46851C1.76386 8.96745 0.93011 9.84035 0.480181 10.9185C0.141093 11.6973 0.0352392 12.5577 0.175463 13.3955C0.315688 14.2333 0.695968 15.0125 1.27018 15.6384C4.27018 18.9284 7.82018 21.9185 11.1302 24.9385C17.9112 31.2169 25.0534 37.0936 32.5202 42.5386C36.7002 45.5386 41.0102 48.3885 45.5202 50.9785C51.9702 54.7385 59.0102 58.0585 66.5202 58.1685C67.2147 58.1834 67.9095 58.1535 68.6002 58.0786C69.5308 57.9846 70.4397 57.7377 71.2902 57.3484C72.0265 57.0086 72.6674 56.4922 73.1559 55.845C73.6444 55.1977 73.9653 54.4397 74.0902 53.6384V53.6384Z" fill="#F4CC73"/>
<path d="M25.63 16.2185C26.52 15.4785 27.72 14.8386 28.32 14.3286L27.74 14.0984C25.14 16.1884 24.23 15.6085 21.65 13.4885C22.1803 13.0705 22.7458 12.699 23.34 12.3784L22.72 12.1484C20.98 13.0584 19.8 12.6584 18.21 11.0984L18.77 10.7886L17.77 10.4585C17.3848 10.4516 17.0098 10.3334 16.69 10.1184L15.24 9.68848L17.16 11.0686C12.89 14.1986 14.96 13.4886 10.84 11.0686C11.635 10.3586 12.488 9.7162 13.39 9.14844L12.58 8.93848C9.84003 10.7785 11.1 11.3184 7.96002 9.13843C8.2822 8.77354 8.63701 8.43882 9.02003 8.13843L8.48003 8.03857C8.06426 8.26237 7.59342 8.36323 7.12245 8.32959C6.65147 8.29595 6.19977 8.12901 5.82002 7.84839C5.55243 7.85308 5.28533 7.87317 5.02003 7.90845C5.62521 8.44619 6.29747 8.90343 7.02003 9.26855C5.28003 12.5886 3.48002 10.8986 1.71002 9.26855C1.53411 9.42601 1.37032 9.5965 1.22003 9.77856C3.08003 10.9786 5.84003 11.8584 2.88003 14.8684C2.07466 14.0077 1.16416 13.2518 0.170023 12.6184C0.145149 12.8611 0.145149 13.1057 0.170023 13.3484C0.530023 13.6984 1.05002 14.1485 1.75002 14.7185C1.91227 14.8099 2.05401 14.9338 2.16646 15.0823C2.27891 15.2307 2.35967 15.4006 2.40373 15.5815C2.4478 15.7625 2.45422 15.9505 2.42262 16.134C2.39102 16.3176 2.32207 16.4926 2.22003 16.6484L2.53002 16.9785C2.69002 16.3785 2.84002 15.8886 3.03002 15.8386C5.03002 16.9186 5.03002 17.9884 4.75002 19.1584L5.20003 19.5786C5.35003 18.8486 5.48003 18.2184 5.70003 18.1484C8.40003 19.7784 8.63002 20.9585 8.35002 22.4485L8.80003 22.8584C8.90003 22.0784 9.00002 21.3885 9.28002 21.2085C12.28 23.4785 12.59 23.6785 11.95 25.7085L12.41 26.1284C12.5381 25.5023 12.743 24.8946 13.02 24.3186C15.3 25.3786 15.25 26.7184 14.67 28.1484L15.02 28.4585C15.1471 27.8004 15.4553 27.1909 15.91 26.6985C18.91 28.2285 18.78 29.8386 18.28 31.2986L18.72 31.6785C18.8309 30.9317 19.0892 30.2146 19.48 29.5686C22.12 30.8686 21.9 32.2984 21.35 33.8884L21.85 34.2986C22.05 33.2986 22.22 32.2085 22.54 32.0085C25.09 32.9285 24.94 35.4084 24.71 36.6284L24.83 36.7185C25.03 36.2985 25.35 35.6184 25.83 34.6284C30.18 36.6784 26.92 40.9784 29.09 37.1484C32.01 38.0584 31.94 41.1484 31.91 42.1484L32.06 42.2585C32.2 41.9185 32.45 41.2586 32.93 40.0486C37.58 42.0486 34.49 46.6484 36.72 42.8684C40.65 44.3184 37.17 49.4986 39.72 45.0186L42.12 46.7585C39.32 49.7585 43.5 45.8986 45.38 49.0786C44.9189 49.3955 44.5048 49.7758 44.15 50.2085L44.69 50.5386C44.8222 50.4352 44.9429 50.3177 45.05 50.1885C46.86 48.8085 48.29 51.0885 46.3 48.9985C48.62 46.2785 50.17 43.9986 52.55 46.8186C51.74 48.5186 47.97 51.4086 49.29 51.8186C51.99 49.0686 52.53 45.6085 56.02 49.2185C55.15 50.8085 51.41 53.5585 52.77 53.9285C57.59 47.0685 57.65 51.0186 64.89 55.2886C64.7 53.1786 58.5 50.8286 56.89 49.0786C57.982 47.6499 58.9048 46.0995 59.64 44.4585L69.24 50.8684C68.75 47.4984 57.24 45.8684 60.77 40.6284C60.77 38.5784 52.39 34.9586 50.2 32.7786C51.8 31.8386 46.51 31.4385 45.97 29.9385C47.12 28.8685 47.76 27.9984 46.88 28.1084C45.19 30.9784 43.63 27.8985 42.38 27.5085C43.65 26.1485 44.47 26.1584 44.28 25.3684C40.95 27.7484 41.66 26.8884 39.28 25.3684C41.13 24.0784 39.8 23.8286 39.28 24.5686C37.97 25.6186 36.47 22.9886 35.8 23.0386C37.08 22.3586 37.8 21.6884 36.95 21.6184C34.8 23.8584 33.14 20.7884 31.89 20.4084C34.05 19.2884 32.96 18.7286 32.09 19.5486C30.67 20.8286 29.59 18.3086 28.78 18.3086C30.01 17.4486 31.97 16.6786 30.92 16.3086C28.36 18.3786 27.3 17.5185 25.63 16.2185ZM30.82 20.4485C27.04 23.4485 28.88 22.8785 25.55 20.9385C26.3937 20.1335 27.2926 19.3883 28.24 18.7085L30.82 20.4485ZM28.99 29.4485C31.39 25.8385 32.58 25.7684 35.23 28.1384C32.47 31.1484 31.84 32.2184 28.99 29.3884V29.4485ZM38.64 30.4485C37.5458 31.6352 36.5207 32.8839 35.57 34.1885L32.45 31.9585C34.89 28.7385 35.97 27.8084 38.64 30.3584V30.4485ZM26.47 27.5386C24.01 26.1986 27.2 25.4485 27.47 24.2085C28.88 22.2085 30.69 25.7484 31.55 25.6184C29.31 27.7884 28.7 30.1186 26.47 27.5386ZM34.75 23.0186C31.27 26.3286 31.2 24.3286 28.75 23.0186C29.5891 22.2193 30.4811 21.4777 31.42 20.7986L34.75 23.0186ZM38.29 25.4084C35.22 28.9884 34.72 26.6886 32.56 25.5486C33.4226 24.7706 34.3345 24.049 35.29 23.3884L38.29 25.4084ZM41.47 27.5486C38.23 30.7786 39.65 30.0285 36.24 28.0085C37.08 27.2385 37.94 26.4885 38.81 25.7585L41.47 27.5486ZM45.1 29.9985C42.49 34.0585 41.79 31.2885 39.6 30.2485C40.37 29.4385 41.16 28.6484 41.97 27.8884L45.1 29.9985ZM40.1 37.3086C42.47 33.3786 43.33 32.7985 46.33 35.4885C43.6 38.2185 43.01 40.3386 40.08 37.3086H40.1ZM49.23 37.4285C46.79 40.9685 46.55 42.6586 43.31 39.5786C45.54 36.9586 46.81 34.8185 49.21 37.4285H49.23ZM49.23 32.7986C46.49 36.2886 45.53 34.0686 43.42 32.7986C44.12 31.9453 44.84 31.1153 45.58 30.3086L49.23 32.7986ZM47.23 35.4084C48.04 34.6384 48.87 33.8884 49.69 33.1484C53 34.8284 48.82 38.0884 47.27 35.4084H47.23ZM52.43 39.6084C50.43 43.4384 49.86 45.0685 46.66 41.9685C49.04 38.9185 49.32 36.5784 52.47 39.6084H52.43ZM59.32 43.4885C54.56 41.9985 59.22 36.1585 55.94 41.2385C51.39 39.5385 55.35 35.1386 52.71 39.0686L50 37.2585C50.6 36.3685 51.19 35.4586 51.77 34.5386L60.17 40.2085C60.0298 41.3299 59.758 42.4308 59.36 43.4885H59.32ZM53.32 46.6284C54.3375 45.1735 55.2755 43.6646 56.13 42.1084C60.76 44.0484 57.94 46.1085 56.32 48.6885L53.32 46.6284ZM50.14 44.4285C51.1676 43.0041 52.09 41.5068 52.9 39.9485C58.03 41.4485 52.9 48.2185 50.52 44.6985L50.14 44.4285ZM42.93 46.6084C45.59 43.2984 46.08 41.3884 49.29 44.6084C48.2133 46.0326 47.0263 47.3701 45.74 48.6084L42.93 46.6084ZM45.78 42.0984C44.46 43.8384 43.22 45.3385 42.44 46.2585C37.37 43.6985 43.47 38.1484 45.85 42.0984H45.78ZM39.68 37.8186L42.35 39.6985C41.2427 41.0646 40.2651 42.531 39.43 44.0786C35.29 42.2186 38.81 39.8386 39.75 37.8186H39.68ZM35.98 34.4485C38.52 30.4485 39.45 30.3685 42.46 32.9585C41.46 34.2585 40.46 35.5985 39.52 36.9585C37.47 35.4785 36.83 35.0085 36.05 34.4485H35.98ZM35.64 34.9385C40.64 37.8385 38.64 37.8585 36.49 41.9385C31.71 39.3685 34.12 37.4585 35.71 34.9385H35.64ZM32 32.3386C36.91 34.7686 33.83 35.9286 32.64 39.0586C28 36.4786 30.13 34.9586 32.07 32.3386H32ZM31.52 31.9885C30.4821 33.2801 29.5838 34.6778 28.84 36.1584C23.58 33.5884 28.68 27.9085 31.59 31.9885H31.52ZM24.98 27.2786C26.56 28.4386 27.49 29.0886 28.07 29.5186C27.124 30.8219 26.291 32.2034 25.58 33.6484C21.47 31.3484 23.47 29.9486 25.05 27.2786H24.98ZM27.65 23.0586C26.6217 24.1049 25.6787 25.2317 24.83 26.4285C19.74 24.2185 25.47 19.8086 27.72 23.0586H27.65ZM21.92 25.0586C26.06 26.9686 23.08 28.5986 22.23 31.0586C18.47 29.0086 20.64 27.2786 21.99 25.0386L21.92 25.0586ZM19 22.1685C21.14 19.3085 22.31 18.8585 24.52 20.9885C23.5242 21.9889 22.6081 23.0654 21.78 24.2085L19 22.1685ZM15.55 19.6384C18.1 15.2784 18.98 17.3884 21.36 18.8784C18.83 22.0484 18.1 21.9084 15.62 19.6184L15.55 19.6384ZM19.18 28.6384L17.81 27.5386C12.71 23.0186 25.41 20.5686 19.25 28.5886L19.18 28.6384ZM15.18 20.1685L18.1 22.3186C17.2018 23.4155 16.383 24.575 15.65 25.7886C12.1 23.5186 13.85 22.6284 15.28 20.1184L15.18 20.1685ZM11.41 17.2185C16.7 20.5185 13.74 20.2185 12.8 23.2185C9.36003 21.0685 9.24003 19.8085 11.41 17.2185ZM7.73003 14.4685C11.83 16.7785 10.48 17.5384 9.06002 20.1284C5.53002 17.7984 5.85003 16.8785 7.73003 14.4985V14.4685ZM5.00002 12.4685C8.36002 14.0785 6.27002 15.3884 5.49002 17.1284C4.49002 16.0184 3.04002 15.6185 3.56002 14.7485C3.99388 13.9604 4.47475 13.199 5.00002 12.4685V12.4685ZM9.84003 11.1084C9.02738 11.8974 8.27526 12.7465 7.59003 13.6484L5.36002 11.9785C6.00772 11.1128 6.71974 10.2972 7.49002 9.53857L9.84003 11.1084ZM13.73 13.7085C11.08 17.4785 10.3 15.6486 8.08003 14.0186C8.76482 13.1011 9.52766 12.2445 10.36 11.4585L13.73 13.7085ZM17.56 16.2686C16.6816 17.2111 15.8696 18.2135 15.13 19.2686L11.76 16.7786C14.68 13.2986 13.71 13.7186 17.56 16.2686V16.2686ZM20.62 13.4585C17.82 16.7485 16.89 15.1084 14.71 13.6384C15.6545 12.8202 16.6572 12.0716 17.71 11.3984L20.62 13.4585ZM24.62 16.1985C21.62 19.4985 20.71 17.5385 18.52 16.1985C20.2 14.4885 21.25 13.3185 22.52 14.7585L24.62 16.1985ZM27.72 18.2986C24.44 21.3686 24.8 20.2286 22.43 18.7886C23.3 18.0086 24.21 17.2586 25.14 16.5486L27.72 18.2986Z" fill="#E8B142"/>
<path d="M76.97 49.3585C75.8 42.7785 70.71 37.7285 66.11 32.8985C62.44 29.0685 58.9 25.0686 54.72 21.8086C49.19 17.5186 42.72 14.6585 36.26 11.9385C31.52 9.93853 26.77 7.98851 21.87 6.41851C20.67 6.02851 16.52 4.96866 15.27 6.31866C15.1209 6.48511 15.011 6.68287 14.9487 6.89752C14.8864 7.11216 14.8732 7.33819 14.91 7.55865C15.14 9.72865 20.24 11.4685 21.76 12.3985C27.586 16.0639 32.9164 20.4634 37.62 25.4886C44.19 32.3186 49.96 39.8686 56.17 47.0186C60.47 52.0186 65.32 56.9486 71.63 58.7586C71.9831 58.8649 72.3443 58.9418 72.71 58.9886C73.044 59.0352 73.384 59.0147 73.71 58.9285C74.4399 58.6675 75.0624 58.1716 75.48 57.5186C77.0389 55.1037 77.5748 52.1684 76.97 49.3585V49.3585Z" fill="#7BBA88"/>
<path d="M26.4702 33.6685C30.3502 35.7385 33.9102 38.3586 37.6002 40.7686C45.2482 45.7613 53.4413 49.8645 62.0202 52.9986C65.8302 54.3886 69.8202 55.6487 72.8602 58.3287C73.3702 58.7787 73.8602 59.4587 73.6302 60.0887C73.4895 60.3108 73.3004 60.498 73.077 60.6365C72.8536 60.7751 72.6016 60.8613 72.3401 60.8885C66.7201 62.2185 60.8001 60.8886 55.3401 59.0486C46.7704 55.9508 38.6365 51.7595 31.1402 46.5787C27.885 44.4894 24.8672 42.0517 22.1402 39.3087C20.7702 37.8587 19.5502 36.3086 18.2802 34.7586C17.1402 33.3786 15.1502 31.8487 14.4102 30.3387C15.6302 29.3387 18.9902 30.6286 20.3502 31.0486C22.4713 31.7186 24.5213 32.5961 26.4702 33.6685V33.6685Z" fill="#98D3A9"/>
<path d="M126.28 4.31855C129.28 8.13855 130.17 13.0685 131 17.7985C135.769 16.1258 140.787 15.2705 145.84 15.2685C143.76 9.9885 139.3 5.90834 134.41 2.85834C132.651 1.66066 130.689 0.790245 128.62 0.28852C126.214 -0.198168 123.723 -0.0675547 121.38 0.668402C123.322 1.40508 125.019 2.66936 126.28 4.31855V4.31855Z" fill="#BA8352"/>
<path d="M158.08 13.7986C150.788 10.5008 142.702 9.36593 134.783 10.5288C126.865 11.6917 119.447 15.1032 113.41 20.3584C113.41 20.3584 106.18 48.0986 121.59 76.0186C128.883 79.3163 136.969 80.4512 144.887 79.2883C152.806 78.1255 160.224 74.7137 166.26 69.4585C172.47 29.0285 158.08 13.7986 158.08 13.7986Z" fill="#EF8D56"/>
<path d="M189.93 48.9685C190.7 45.6057 190.902 42.1381 190.53 38.7085C190.49 38.3019 190.44 37.8919 190.38 37.4785C188.1 21.9986 174.94 11.1185 160.98 13.1685C160 13.311 159.031 13.5216 158.08 13.7986C158.08 13.7986 172.51 29.0285 166.26 69.4585C167.264 69.4445 168.266 69.3644 169.26 69.2185C179.6 67.6985 187.47 59.4585 189.93 48.9685Z" fill="#EA7F49"/>
<path d="M113.411 20.3584C112.406 20.3724 111.404 20.4526 110.411 20.5984C97.9105 22.4384 89.0105 34.0186 88.9205 47.5386C88.9107 49.1449 89.0244 50.7497 89.2605 52.3386C89.8438 56.4 91.2345 60.3034 93.3505 63.8186C98.7805 72.8186 108.511 78.1384 118.651 76.6484C119.634 76.506 120.606 76.2956 121.561 76.0186C106.181 48.0986 113.411 20.3584 113.411 20.3584Z" fill="#EA7F49"/>
<path d="M35.4706 58.9785C12.6006 53.1385 11.3106 60.9785 15.3706 59.4485C8.67056 66.9885 18.0606 63.8886 22.2206 63.8386C26.1206 63.3786 34.2206 65.6385 32.9106 60.5185C33.7406 60.9685 38.1406 60.6885 35.4706 58.9785Z" fill="#EA5647"/>
<path d="M26.8801 51.8483C24.8101 49.9983 25.0801 53.6983 24.8801 54.8483C24.5124 57.2027 23.9094 59.5145 23.0801 61.7485C24.9601 66.3585 29.4701 54.4583 26.8801 51.8483Z" fill="#BA8352"/>
<path d="M39.0705 59.4185C34.4605 57.5985 30.6705 62.1785 25.8805 61.6585C23.7505 61.0385 21.1305 60.0787 18.6105 59.3187C18.2567 59.1642 17.8831 59.0598 17.5005 59.0086C15.7312 58.4343 13.8806 58.1505 12.0205 58.1685C0.160493 58.8085 5.75049 82.9685 8.93049 86.9185C13.0105 92.9185 16.0705 91.7787 21.9305 91.5787C35.7905 96.5787 44.0005 82.6586 43.9305 72.0086C44.0305 67.7086 44.0905 61.5685 39.0705 59.4185Z" fill="#EF6852"/>
<path d="M233.071 30.7285C230.611 30.1085 227.691 26.0186 222.321 25.0286C217.681 24.1686 214.401 27.4486 212.881 32.3386C209.881 41.8686 211.671 58.4385 225.031 60.9385C244.251 64.5285 250.101 48.1285 251.151 42.4185C252.021 37.7085 250.671 32.0784 244.871 30.0984C241.091 28.8084 236.081 31.4985 233.071 30.7285Z" fill="#F4CC73"/>
<path d="M233.97 31.5386C234.134 29.2025 235.177 27.0153 236.89 25.4185C237.028 25.2663 237.102 25.0669 237.097 24.8616C237.092 24.6563 237.008 24.4609 236.863 24.3157C236.718 24.1705 236.522 24.0866 236.317 24.0815C236.112 24.0765 235.913 24.1507 235.76 24.2886C233.745 26.1839 232.529 28.777 232.36 31.5386C232.363 31.7499 232.448 31.9518 232.598 32.1013C232.747 32.2508 232.949 32.336 233.16 32.3386C233.372 32.3337 233.574 32.2481 233.724 32.0994C233.875 31.9507 233.963 31.75 233.97 31.5386V31.5386Z" fill="#BA8352"/>
</svg>
