<svg width="24" height="24" viewBox="0 0 24 24" fill="none" xmlns="http://www.w3.org/2000/svg">
<g id="Property 1=filters">
<g id="Filter">
<path id="Stroke 1" d="M11.9107 16.5237H4" stroke="#373737" stroke-width="1.5" stroke-linecap="round" stroke-linejoin="round"/>
<path id="Stroke 3" d="M12.7886 8.13739H20.6992" stroke="#373737" stroke-width="1.5" stroke-linecap="round" stroke-linejoin="round"/>
<path id="Stroke 5" fill-rule="evenodd" clip-rule="evenodd" d="M9.93394 7.42538C9.93394 5.79866 8.6054 4.47961 6.96697 4.47961C5.32854 4.47961 4 5.79866 4 7.42538C4 9.0521 5.32854 10.3711 6.96697 10.3711C8.6054 10.3711 9.93394 9.0521 9.93394 7.42538Z" stroke="#373737" stroke-width="1.5" stroke-linecap="round" stroke-linejoin="round"/>
<path id="Stroke 7" fill-rule="evenodd" clip-rule="evenodd" d="M20.3556 16.4746C20.3556 14.8479 19.0281 13.5288 17.3896 13.5288C15.7502 13.5288 14.4216 14.8479 14.4216 16.4746C14.4216 18.1013 15.7502 19.4203 17.3896 19.4203C19.0281 19.4203 20.3556 18.1013 20.3556 16.4746Z" stroke="#373737" stroke-width="1.5" stroke-linecap="round" stroke-linejoin="round"/>
</g>
</g>
</svg>
